<svg width="144" height="135" viewBox="0 0 144 135" fill="none" xmlns="http://www.w3.org/2000/svg">
    <path d="m106.558 102.514-72.615 18.692a9.604 9.604 0 0 1-11.68-6.895L.303 29.065A9.595 9.595 0 0 1 7.201 17.39L74.757 0l17.29 7.74 21.407 83.1a9.597 9.597 0 0 1-6.898 11.676l.002-.002z" fill="#F2F2F2"/>
    <path d="M7.887 20.063a6.837 6.837 0 0 0-4.911 8.314l21.96 85.247a6.833 6.833 0 0 0 3.144 4.174 6.843 6.843 0 0 0 5.174.736l72.615-18.692a6.835 6.835 0 0 0 4.911-8.314L89.703 9.714l-15.195-6.8L7.887 20.063z" fill="#F6F6F6"/>
    <path d="m91.861 8.179-11.238 2.893a3.195 3.195 0 0 1-3.891-2.295L74.594.48a.2.2 0 0 1 .275-.232L91.89 7.804a.2.2 0 0 1-.031.376l.001-.001z" fill="#F2F2F2"/>
    <path d="M85.951 80.976 52.89 89.485a1.598 1.598 0 1 1-.799-3.092l33.063-8.509a1.598 1.598 0 0 1 .798 3.092zM93.673 84.553l-39.44 10.153a1.598 1.598 0 0 1-.799-3.092l39.44-10.153a1.596 1.596 0 1 1 .8 3.092z" fill="#CCC"/>
    <path d="M39.396 99.737a5.644 5.644 0 1 0 0-11.286 5.644 5.644 0 1 0 0 11.287z" fill="#E6E6E6"/>
    <path d="M82.434 66.207 38.526 77.508a4.948 4.948 0 0 1-6.016-3.552l-9.202-35.732a4.943 4.943 0 0 1 3.553-6.014L70.77 20.913a4.948 4.948 0 0 1 6.016 3.552l9.202 35.731a4.942 4.942 0 0 1-3.553 6.01z" fill="#fff"/>
    <path d="M82.434 66.207 38.526 77.508a4.948 4.948 0 0 1-6.016-3.552l-9.202-35.732a4.943 4.943 0 0 1 3.553-6.014L70.77 20.913a4.948 4.948 0 0 1 6.016 3.552l9.202 35.731a4.942 4.942 0 0 1-3.553 6.01zM27.006 32.769a4.365 4.365 0 0 0-3.135 5.307l9.201 35.731a4.363 4.363 0 0 0 5.309 3.134l43.907-11.298a4.365 4.365 0 0 0 3.136-5.306l-9.202-35.732a4.363 4.363 0 0 0-5.308-3.134L27.006 32.77z" fill="#E6E6E6"/>
    <path d="m68.54 32.926-22.158 5.702a.794.794 0 0 1-.962-.5.764.764 0 0 1 .539-.97l22.557-5.806c.911.461.672 1.405.026 1.572l-.001.002zM69.543 36.81l-22.16 5.703a.794.794 0 0 1-.96-.5.764.764 0 0 1 .538-.97l22.557-5.807c.911.462.672 1.406.025 1.572v.003z" fill="#F2F2F2"/>
    <path d="m43.16 45.959-6.763 1.742a.862.862 0 0 1-1.047-.618l-2.054-7.979a.861.861 0 0 1 .619-1.046l6.763-1.742a.86.86 0 0 1 1.047.618l2.053 7.978a.86.86 0 0 1-.618 1.047z" fill="#E6E6E6"/>
    <path d="m71.526 44.783-33.819 8.703a.794.794 0 0 1-.961-.5.762.762 0 0 1 .538-.97l34.218-8.805c.911.462.67 1.405.024 1.572zM72.527 48.67l-33.82 8.702a.794.794 0 0 1-.96-.5.764.764 0 0 1 .538-.97l34.217-8.804c.912.461.671 1.405.025 1.572zM73.528 52.554l-33.82 8.703a.793.793 0 0 1-.961-.5.764.764 0 0 1 .539-.97l34.217-8.805c.911.462.672 1.406.025 1.572zM74.528 56.44l-33.82 8.702a.794.794 0 0 1-.96-.5.764.764 0 0 1 .538-.97l34.217-8.803c.911.462.671 1.405.025 1.572v-.001zM75.529 60.325l-33.82 8.703a.794.794 0 0 1-.961-.5.764.764 0 0 1 .539-.97l34.215-8.804c.912.462.672 1.405.026 1.572z" fill="#F2F2F2"/>
    <path d="M39.812 96.073a.585.585 0 0 1-.37-.026h-.008l-1.537-.653a.59.59 0 0 1 .46-1.084l.997.424 1.307-3.071a.59.59 0 0 1 1.084.462l-1.536 3.61a.589.589 0 0 1-.398.34l.001-.002z" fill="#fff"/>
    <path d="M134.409 135H59.426a9.597 9.597 0 0 1-9.59-9.587V37.384a9.596 9.596 0 0 1 9.59-9.587h69.759L143.997 39.6v85.812a9.597 9.597 0 0 1-9.591 9.587h.003z" fill="#E6E6E6"/>
    <path d="M59.426 30.558a6.839 6.839 0 0 0-6.83 6.828v88.028a6.833 6.833 0 0 0 6.83 6.827h74.984a6.84 6.84 0 0 0 6.83-6.827V40.93l-13.02-10.373-68.794.001z" fill="#fff"/>
    <path d="M119.825 56.153h-34.14a1.598 1.598 0 1 1 0-3.194h34.14a1.596 1.596 0 1 1 0 3.194zM126.413 61.541H85.686a1.597 1.597 0 1 1 0-3.193h40.727a1.599 1.599 0 0 1 1.597 1.596 1.598 1.598 0 0 1-1.597 1.597z" fill="#517BBF"/>
    <path d="M119.825 77.107H85.687a1.598 1.598 0 0 0 0 3.194h34.138a1.6 1.6 0 0 0 1.598-1.597 1.6 1.6 0 0 0-1.598-1.597zM126.414 82.496H85.687a1.598 1.598 0 1 0 0 3.194h40.727a1.596 1.596 0 1 0 0-3.194zM119.825 104.449h-34.14a1.599 1.599 0 0 1-1.597-1.596 1.594 1.594 0 0 1 1.598-1.597h34.139a1.595 1.595 0 0 1 1.597 1.597 1.596 1.596 0 0 1-1.597 1.596zM126.413 109.836H85.686a1.602 1.602 0 0 1-1.13-.468 1.59 1.59 0 0 1-.468-1.129 1.6 1.6 0 0 1 1.598-1.596h40.727a1.597 1.597 0 1 1 0 3.193z" fill="#CCC"/>
    <path d="M71.47 62.894a5.644 5.644 0 1 0 0-11.287 5.644 5.644 0 1 0 0 11.287z" fill="#517BBF"/>
    <path d="M77.695 81.398a5.641 5.641 0 0 1-5.644 5.645 1.213 1.213 0 0 1-.145-.006 5.646 5.646 0 0 1-5.111-3.583 5.64 5.64 0 0 1 4.21-7.602 5.647 5.647 0 0 1 5.75 2.426c.614.925.94 2.01.94 3.12zM71.47 111.189a5.644 5.644 0 1 0 0-11.287 5.644 5.644 0 1 0 0 11.287zM143.711 39.98h-11.604a3.196 3.196 0 0 1-3.195-3.194v-8.565a.2.2 0 0 1 .324-.156l14.599 11.561a.201.201 0 0 1 .069.101.202.202 0 0 1-.193.256v-.003z" fill="#CCC"/>
    <path d="M77.694 81.398a5.64 5.64 0 0 1-5.789 5.639 12.213 12.213 0 0 1 1.096-11.203 5.648 5.648 0 0 1 4.693 5.564zM84.09 78.704a1.601 1.601 0 0 1 1.596-1.597h8.507c.497 1.01.85 2.086 1.05 3.194h-9.555a1.598 1.598 0 0 1-1.597-1.597h-.002zM95.441 82.496a12.18 12.18 0 0 1-.424 3.194h-9.33a1.598 1.598 0 1 1 0-3.194h9.754z" fill="#517BBF"/>
    <path d="M116.49 102.186a1.736 1.736 0 0 1-1.078.787 1.749 1.749 0 0 1-1.318-.206L93.747 90.363a1.744 1.744 0 0 1-.12-2.895 1.744 1.744 0 0 1 1.935-.08l20.345 12.405a1.738 1.738 0 0 1 .583 2.393z" fill="#475467"/>
    <path d="M96.143 89.782A13.949 13.949 0 0 1 82.08 96.3a13.952 13.952 0 0 1-11.405-10.493 13.939 13.939 0 0 1 5.334-14.549 13.953 13.953 0 0 1 21.782 7.98 13.941 13.941 0 0 1-1.648 10.545zM75.304 77.074a10.456 10.456 0 0 0 5.333 15.266 10.467 10.467 0 0 0 11.298-2.737 10.458 10.458 0 0 0-10.162-17.248 10.466 10.466 0 0 0-6.469 4.72z" fill="#475467"/>
    <path d="M71.389 56.69a1.682 1.682 0 1 0 0-3.365 1.682 1.682 0 0 0 0 3.365zM68.904 61.014v-.856a1.709 1.709 0 0 1 1.71-1.709h1.71a1.71 1.71 0 0 1 1.71 1.71v.855" stroke="#fff" stroke-linecap="round" stroke-linejoin="round"/>
</svg>
