<svg width="320" height="321" viewBox="0 0 320 321" fill="none" xmlns="http://www.w3.org/2000/svg">
    <g clip-path="url(#20pzdjx3ka)">
        <path d="M59.885.5h-.64v86.74h.64V.5z" fill="#C7C7C7"/>
        <path d="m89.69 116.276-2.426 5.324H31.859l-2.413-5.324L53.03 99.949H66.1l23.59 16.327z" fill="#EBEBEB"/>
        <path d="M67.738 84.219 66.099 99.95H53.03l-1.632-15.731h16.34zM89.683 116.275l-2.42 5.325H31.86l-2.413-5.325h60.237z" fill="#DBDBDB"/>
        <path d="M124.563.5h-.64v69.562h.64V.5z" fill="#C7C7C7"/>
        <path d="m154.361 99.092-2.425 5.331H96.537l-2.419-5.331 23.591-16.326h13.062l23.59 16.326z" fill="#EBEBEB"/>
        <path d="m132.41 67.041-1.639 15.725h-13.062L116.07 67.04h16.34zM154.355 99.098l-2.419 5.324H96.531l-2.413-5.324h60.237z" fill="#DBDBDB"/>
        <path d="M260.735 49.16h16.948V42h-16.948v7.161zM270.195 40.129h16.948v-7.162h-16.948v7.162zM123.001 148.699h16.947v-7.161h-16.947v7.161zM132.454 139.668h16.947v-7.162h-16.947v7.162zM141.868 148.699h16.947v-7.161h-16.947v7.161zM32.858 40.129h16.947v-7.162H32.858v7.162zM42.316 234.125h16.948v-7.162H42.316v7.162zM32.858 225.096h16.947v-7.162H32.858v7.162zM270.195 234.125h16.948v-7.162h-16.948v7.162z" fill="#EBEBEB"/>
        <g opacity=".9">
            <path d="M221.069 28.186H98.938v79.833h122.131V28.185z" fill="#fff"/>
            <path d="M221.222 108.173H98.777V28.019h122.445v80.154zm-122.125-.32h121.805V28.346H99.097v79.507z" fill="#A6A6A6"/>
            <path d="M221.069 28.186H98.938v3.564h122.131v-3.564z" fill="#475467"/>
            <path d="M102.528 29.94a.77.77 0 0 1-.474.71.768.768 0 1 1 .474-.71z" fill="#C7C7C7"/>
            <path d="M105.664 29.94a.77.77 0 0 1-.474.71.77.77 0 1 1 .474-.71z" fill="#fff"/>
            <path d="M108.8 29.94a.764.764 0 0 1-.474.71.77.77 0 1 1 .474-.71z" fill="#517BBF"/>
            <path d="M221.069 31.75H98.938v13.978h122.131V31.75z" fill="#667085"/>
            <path d="M212.064 36.89h-96.372v3.405h96.372v-3.404z" fill="#fff"/>
            <path d="M212.102 40.333H115.66v-3.481h96.442v3.481zm-96.371-.07h96.3v-3.341h-96.3v3.34z" fill="#C7C7C7"/>
            <path d="m118.33 39.329-.237.18-.371-.487-.077-.103-.083-.108.096-.052a.6.6 0 0 0 .115-.134l.083.109.083.102.391.493z" fill="#EBEBEB"/>
            <path d="m117.952 38.816-.083-.102a.472.472 0 0 0 .07-.122l-.096-.121a.578.578 0 0 1 0 .083.185.185 0 0 1 0 .057.575.575 0 0 1-.115.135l.077.102.083.103.288.384h-.032l-.294-.384-.077-.103-.077-.102-.096.051h-.121l.083.109a.528.528 0 0 0 .128-.045l.077.103.371.486.237-.18-.423-.454z" fill="#EBEBEB"/>
            <path d="M117.856 37.934a.644.644 0 0 0-.698-.243.635.635 0 0 0-.23.121.642.642 0 0 0-.116.922.642.642 0 0 0 .704.23.496.496 0 0 0 .128-.044l.09-.058c.01.003.022.003.032 0a.728.728 0 0 0 .16-.224.642.642 0 0 0-.07-.704zm-.045.608a.277.277 0 0 1 0 .057.598.598 0 0 1-.115.135l-.096.051H117.376a.524.524 0 1 1 .416-.838.563.563 0 0 1 .096.441.783.783 0 0 1-.077.154z" fill="#EBEBEB"/>
            <path d="M117.939 38.593a.64.64 0 0 0-1.011-.78.642.642 0 0 0-.116.92.642.642 0 0 0 .704.231.496.496 0 0 0 .128-.045l.077.103.09-.058h.038a.733.733 0 0 0 .09-.102l-.083-.103a.47.47 0 0 0 .083-.166zm-.173.051a.327.327 0 0 1-.064.07l-.077.045a.305.305 0 0 1-.128.045.522.522 0 0 1-.616-.336.529.529 0 0 1-.024-.253.512.512 0 0 1 .205-.352.532.532 0 0 1 .842.316.517.517 0 0 1-.068.375l-.07.09z" fill="#EBEBEB"/>
            <path d="m103.462 39.757-1.241-1.139 1.241-1.19.192.198-1.024.986 1.024.94-.192.205zM106.458 37.428l1.241 1.139-1.235 1.19-.198-.198 1.03-.986-1.024-.94.186-.205z" fill="#fff"/>
            <path d="M216.998 39.987a1.64 1.64 0 1 1-1.723-2.789 1.64 1.64 0 0 1 1.723 2.789z" fill="#DBDBDB"/>
            <path d="M216.633 38.407a.498.498 0 0 1-.852.353.504.504 0 0 1-.108-.544.502.502 0 0 1 .461-.308.5.5 0 0 1 .499.5z" fill="#fff"/>
            <path d="M216.998 39.782v.205a1.49 1.49 0 0 1-.474.198 1.637 1.637 0 0 1-1.28-.198v-.205a.864.864 0 1 1 1.728 0h.026zM111.405 40.076a1.618 1.618 0 1 1 1.6-1.824l-.295.039a1.315 1.315 0 0 0-2.044-.918 1.32 1.32 0 0 0 .087 2.239 1.318 1.318 0 0 0 1.631-.265l.217.192a1.61 1.61 0 0 1-1.196.537z" fill="#fff"/>
            <path d="m111.993 37.87.096-.148.723.486.429-.755.16.09-.531.915-.877-.589z" fill="#fff"/>
        </g>
        <path d="M147.59 288.23h-60.8c-.499-1.958-.985-3.885-1.472-5.76-.558-2.176-1.1-4.309-1.625-6.4-.115-.461-.237-.928-.352-1.382-.403-1.587-.794-3.136-1.178-4.634-.23-.921-.467-1.817-.685-2.713-.217-.896-.467-1.805-.69-2.676l-.148-.678c-.064-.256-.128-.499-.186-.749-.057-.249-.153-.595-.23-.896-.09-.313-.166-.64-.243-.928-.154-.589-.301-1.165-.435-1.728-.218-.832-.423-1.645-.64-2.438a40.603 40.603 0 0 0-.263-1.037c-.147-.55-.281-1.094-.416-1.626-.09-.352-.173-.697-.262-1.036a728.073 728.073 0 0 1-.999-3.93c-.083-.326-.16-.64-.25-.947a82 82 0 0 0-.383-1.536c-.083-.307-.16-.64-.23-.896-.27-1.05-.519-2.003-.724-2.848-.064-.224-.115-.435-.166-.64-.141-.551-.275-1.043-.378-1.485-.051-.179-.09-.346-.134-.499l-.122-.487c0-.108-.057-.217-.077-.307-.019-.089-.076-.294-.108-.416-.032-.121 0-.134-.045-.185-.096-.365-.141-.551-.141-.551h59.168s1.92 6.72 5.069 17.549c.64 2.208 1.318 4.589 2.054 7.11 2.067 7.2 4.487 15.629 7.091 24.749z" fill="#1B1D3D"/>
        <path d="M96.754 288.232h-1.516a2065.844 2065.844 0 0 1-6.541-27.987l-1.51-6.823-.135-.64a.087.087 0 0 1 .013-.063.09.09 0 0 1 .117-.031c.02.011.035.028.043.049 0 .064.038.135.064.205a1443.84 1443.84 0 0 1 2.041 7.341 1440.81 1440.81 0 0 1 7.424 27.949z" fill="#263238"/>
        <path d="m131.462 238.805-2.611 13.075-2.131 10.726-3.642 18.272-.39 1.863-.64 3.123-.467 2.361H86.797c-.493-1.964-.986-3.891-1.466-5.76-.559-2.176-1.1-4.309-1.625-6.4-.116-.46-.237-.928-.352-1.382-.404-1.587-.794-3.136-1.178-4.634-.23-.921-.467-1.817-.685-2.713-.217-.896-.467-1.805-.691-2.675l-.16-.672c-.064-.256-.128-.5-.186-.749-.057-.25-.153-.595-.23-.896-.09-.314-.166-.64-.243-.928-.154-.589-.301-1.165-.435-1.728-.218-.832-.423-1.645-.64-2.439-.09-.358-.173-.697-.263-1.036-.147-.551-.281-1.095-.416-1.626-.09-.352-.173-.698-.262-1.037a728.775 728.775 0 0 1-.999-3.929c-.083-.327-.16-.64-.25-.948a82 82 0 0 0-.383-1.536c-.083-.307-.16-.64-.23-.896-.27-1.049-.519-2.003-.724-2.848-.064-.224-.115-.435-.166-.64-.141-.55-.275-1.043-.378-1.484-.051-.18-.09-.346-.134-.5l-.122-.486c0-.109-.057-.218-.077-.307-.019-.09-.076-.295-.108-.416-.032-.122 0-.135-.045-.186-.096-.365-.141-.55-.141-.55l57.254-.019z" fill="#263238"/>
        <path d="M131.469 238.786c0 .326-.25 3.84-.82 9.241a252.61 252.61 0 0 1-.576 5.12 261.572 261.572 0 0 1-1.312 9.543c-.909 5.939-2.093 12.416-3.635 18.752a146.589 146.589 0 0 1-1.786 6.745H46.963a13052.93 13052.93 0 0 1 2.38-30.464c.916-11.673 1.498-18.989 1.498-18.989h69.287l11.341.052z" fill="#1B1D3D"/>
        <path d="M131.309 245.8c-.09 2.739-.205 5.465-.378 8.185a127.581 127.581 0 0 1-.845 8.832 2.75 2.75 0 0 1-.038.327c-.358 2.76-.77 5.51-1.235 8.249-.442 2.56-.768 5.312-1.92 7.68a7.614 7.614 0 0 1-1.792 2.413 5.274 5.274 0 0 1-2.439 1.28 2.692 2.692 0 0 1-.454.077h-.134a.16.16 0 0 1 .083.166c0 .916 0 1.85-.103 2.759a.736.736 0 0 0 0 .115c-.089.794-.236 1.574-.384 2.362h-1.312v-.045c.231-.864.423-1.735.64-2.605.218-.87.525-1.754.73-2.656a.14.14 0 0 1 .064-.083 4.087 4.087 0 0 1-3.949-2.477c-.435-1.171-.237-2.387-.057-3.59.236-1.562.467-3.124.71-4.692.442-2.873 1.024-5.715 1.53-8.569l.23-1.28c1.024-5.818 2.099-11.629 3.386-17.395.044-.237.096-.474.153-.717.058-.243.288-.115.275.038a59.5 59.5 0 0 1-.121 1.165 187.192 187.192 0 0 1-.794 6.611c-.371 2.56-.64 5.178-.985 7.757-.128.877-.25 1.754-.378 2.637-.595 4.243-1.21 8.486-1.92 12.717-.339 1.964-1.568 5.484 1.28 6.092.648.143 1.326.06 1.92-.236a6.046 6.046 0 0 0 2.624-3.322c.8-2.253 1.088-4.73 1.504-7.04.461-2.592.87-5.178 1.229-7.776.467-3.245.941-6.477 1.453-9.715.249-1.645.512-3.296.774-4.941.128-.768.25-1.53.371-2.291.026-.211.282-.211.282-.032z" fill="#667085"/>
        <path d="M63.718 266.101a38.423 38.423 0 0 0 9.42-1.28c1.421-.365 2.823-.82 4.218-1.28a11.076 11.076 0 0 0 3.795-1.92c2.144-1.85 3.143-4.762 4.07-7.341a69.403 69.403 0 0 0 2.458-8.877c0-.147.25-.096.256.045a34.659 34.659 0 0 1-1.28 10.118c-.768 2.791-1.805 5.907-4.057 7.866-2.375 2.054-5.6 2.784-8.64 3.155a39.664 39.664 0 0 1-10.24-.141.174.174 0 0 1-.123-.05.175.175 0 0 1 0-.245.174.174 0 0 1 .123-.05z" fill="#263238"/>
        <path d="M58.426 245.492c-.173 4.275-.346 8.557-.544 12.838-.427 9.967-.907 19.934-1.44 29.901H55.04a5007.06 5007.06 0 0 1 2.074-29.952c.32-4.269.64-8.525.972-12.8a.191.191 0 0 1 .072-.078.192.192 0 0 1 .102-.026c.036.001.07.013.1.034a.19.19 0 0 1 .066.083z" fill="#667085"/>
        <path d="M110.752 149.294c16.339 2.022 68.352 8.96 78.72 25.549 7.552 12.057-.755 22.7-11.789 20.48-9.107-1.818-54.733-22.522-66.137-30.375-10.836-7.456-16.826-17.645-.794-15.654z" fill="#EB9481"/>
        <path d="m139.948 184.564 22.982-32.384s-43.27-5.869-56.48-4c-14.873 2.099-10.547 9.241.788 17.92 11.334 8.678 32.71 18.464 32.71 18.464z" fill="#2D56A2"/>
        <path d="M153.952 152.659c-.973.999-8.32 10.976-9.837 13.178-1.517 2.202-7.942 11.149-9.344 13.555a.1.1 0 0 0 .016.138.1.1 0 0 0 .138-.016c1.824-2.093 8.32-11.098 9.92-13.306 1.6-2.208 8.646-12.243 9.261-13.44.057-.121-.09-.179-.154-.109z" fill="#263238"/>
        <path opacity=".1" d="m145.721 176.431-5.76 8.134s-21.382-9.779-32.71-18.458c-9.76-7.475-14.324-13.811-5.901-16.761l44.371 27.085z" fill="#000"/>
        <path d="m146.451 265.204-101.12 5.594s8.66-83.693 45.67-119.04c4.57-4.365 15.277-3.808 22.4-.608 2.56 1.139 11.924 13.293 14.912 24.998 2.989 11.706 18.407 88.672 18.138 89.056z" fill="#2D56A2"/>
        <path opacity=".1" d="m110.354 150.048-18.56 1.063a9.38 9.38 0 0 1 1.152-.723l15.412-.89c.672.16 1.344.346 1.996.55zm4.986 2.784-26.944 1.549c-.224.231-.442.461-.64.698l28.16-1.619a18.47 18.47 0 0 0-.576-.64v.012zm2.976 3.565-33.427 1.92c-.199.231-.384.461-.576.691l34.47-1.977-.467-.634zm2.49 3.584-39.008 2.247c-.18.224-.346.454-.513.684l39.93-2.291c-.134-.217-.256-.429-.409-.64zm2.188 3.61-43.98 2.528-.461.685 44.8-2.56-.359-.653zm1.92 3.622-48.41 2.778-.422.691 49.14-2.829-.308-.64zm1.613 3.642-52.34 3.008c-.133.224-.268.454-.396.685l52.986-3.047a13.603 13.603 0 0 1-.269-.646h.019zm1.28 3.654-55.763 3.2-.365.711 56.32-3.239c-.07-.237-.134-.454-.211-.672h.019zm.96 3.68-58.72 3.373-.34.678 59.214-3.398a7.204 7.204 0 0 1-.173-.653h.019zm.832 3.687-61.408 3.526-.352.698 61.875-3.559a8.577 8.577 0 0 0-.134-.665h.019zm.813 3.68-63.98 3.68c-.103.224-.2.454-.302.678l64.429-3.706c-.077-.224-.121-.441-.166-.652h.019zm.794 3.692-66.394 3.84c-.09.224-.186.455-.282.679l66.81-3.84-.134-.679zm.78 3.687-68.736 3.949c-.083.224-.172.454-.262.678l69.12-3.974c-.051-.218-.096-.448-.141-.653h.019zm.775 3.686-70.963 4.077-.25.678 71.334-4.102a21.722 21.722 0 0 1-.14-.653h.019zm.774 3.693-73.113 4.198-.263.672 73.466-4.217-.09-.653zm.768 3.686-75.187 4.314c-.07.23-.147.454-.224.678l75.507-4.332-.096-.66zm.755 3.687-77.177 4.435c-.07.23-.141.454-.205.678l77.504-4.48c-.045-.198-.09-.416-.141-.633h.019zm.762 3.686-79.104 4.551c-.07.224-.14.448-.205.64L135.935 212l-.115-.627zm.762 3.693-80.96 4.653c-.069.226-.133.45-.193.672l81.281-4.672-.128-.653zm.748 3.693-82.79 4.755c-.058.224-.122.448-.18.672l83.086-4.774-.116-.653zm.756 3.686-84.545 4.858c-.063.226-.121.45-.172.672l84.825-4.877c-.038-.218-.083-.435-.128-.653h.02zm.748 3.687-86.252 4.96c-.052.224-.11.448-.167.672l86.528-4.973c-.064-.218-.064-.442-.128-.659h.019zm.749 3.692-87.904 5.05c-.051.224-.109.448-.16.672l88.173-5.069c-.045-.217-.09-.435-.128-.653h.019zm.743 3.687-89.485 5.12c-.052.224-.103.448-.148.672l89.761-5.165a4.604 4.604 0 0 1-.148-.627h.02zm.742 3.693-91.06 5.216c-.05.224-.095.448-.147.64l91.316-5.248a8.069 8.069 0 0 1-.128-.608h.019zm.736 3.692-92.55 5.312c-.045.224-.09.448-.128.672l92.8-5.331a11.855 11.855 0 0 1-.141-.653h.019zm.736 3.687-94.016 5.408c-.038.224-.083.448-.122.64l94.266-5.421c-.064-.192-.102-.41-.147-.627h.019zm.736 3.686L47.82 253.76l-.115.64 95.654-5.472c0-.217-.064-.435-.102-.659h.019zm.723 3.699-96.813 5.562-.115.64 97.037-5.574c-.038-.192-.109-.41-.109-.628zm.723 3.687L46.585 261.3c-.032.224-.07.448-.103.64l98.349-5.652c-.045-.192-.083-.428-.128-.633h.019zm.711 3.693-99.399 5.715c-.032.23-.064.454-.096.64l99.604-5.728c-.045-.186-.084-.403-.128-.627h.019zm.697 3.692L45.56 268.8c0 .244-.057.468-.083.64l100.769-5.792a4.509 4.509 0 0 1-.135-.608h.019z" fill="#000"/>
        <path d="M84.48 157.588c-10.177 12.96-55.63 68.576-48.57 94.803 3.7 13.735 26.976 4.109 33.28-5.235 5.171-7.718 23.232-64.262 25.78-77.875 2.386-12.954-.532-24.423-10.49-11.693z" fill="#EB9481"/>
        <path d="m88.64 203.188-39.13-6.739s26.534-34.682 37.216-42.676c12.025-8.998 13.997-.883 12.083 13.261-1.914 14.144-10.17 36.154-10.17 36.154z" fill="#2D56A2"/>
        <path d="M56.21 190.445c1.39 0 13.613 1.92 16.263 2.407 2.65.486 13.498 2.304 16.192 3.02a.097.097 0 0 1 .068.164.097.097 0 0 1-.068.029c-2.771-.199-13.709-2.01-16.422-2.433-2.714-.422-14.759-2.559-16.052-3.007-.134-.045-.076-.18.02-.18z" fill="#263238"/>
        <path d="M85.389 202.631c1.1.096 2.189.237 3.283.358l-.224.135a361.906 361.906 0 0 1 2.182-7.207c.751-2.389 1.508-4.778 2.272-7.168l2.304-7.161c.768-2.388 1.55-4.768 2.234-7.188a67.646 67.646 0 0 1-1.562 7.386 157.829 157.829 0 0 1-2.08 7.245 259.425 259.425 0 0 1-2.355 7.155 155.653 155.653 0 0 1-2.617 7.04l-.064.173-.16-.039a72.75 72.75 0 0 1-3.213-.729z" fill="#263238"/>
        <path d="M95.193 183.264a21.287 21.287 0 0 1 1.428-2.982c.537-.954 1.088-1.882 1.734-2.803a9.778 9.778 0 0 1-1.178 3.116c-.532.979-1.2 1.878-1.984 2.669z" fill="#263238"/>
        <path d="M114.828 165.837c-5.331 1.6-15.11-6.106-19.2-12.582-.275-.442.134-5.325.358-11.277.122-3.616.167-7.642-.05-11.322-.052-.755 23.404 4.218 23.404 4.218s-1.805 7.846-1.382 14.259a7.76 7.76 0 0 0 .249 1.498c.02.082.035.165.045.249.666 2.835 1.722 13.402-3.424 14.957z" fill="#EB9481"/>
        <path d="M115.917 151.143c.793-.022 1.583-.11 2.361-.263 0-.102-.038-.179-.051-.249a8.332 8.332 0 0 1-.243-1.504c-.422-6.4 1.376-14.247 1.376-14.247s-19.034-4.038-22.771-4.294c.966 4.211 5.709 21.075 19.328 20.557z" fill="#263238"/>
        <path d="M91.046 102.951c-2.055 8.32 3.552 31.719 9.657 36.672 8.851 7.181 22.701 7.155 28.64-3.334 5.76-10.176-2.086-40.538-8.845-44.973-9.958-6.534-26.419-.653-29.452 11.635z" fill="#EB9481"/>
        <path d="M112.191 117.333c0-.058-.102.102-.083.166.461 1.555.723 3.411-.557 4.307-.038 0 0 .103 0 .083 1.728-.697 1.325-3.161.64-4.556z" fill="#263238"/>
        <path d="M110.362 116.059c-2.56.468-1.447 5.581.94 5.12 2.388-.46 1.216-5.478-.94-5.12zM121.965 114.683c0-.064.141.051.153.115.295 1.594.909 3.366 2.458 3.578.045 0 .058.083 0 .089-1.798.141-2.586-2.227-2.611-3.782z" fill="#263238"/>
        <path d="M123.014 112.717c2.503-.755 3.84 4.307 1.511 5.005-2.33.698-3.61-4.371-1.511-5.005zM108.044 112.923c.714.038 1.43.038 2.144 0 .826 0 1.485.076 2.195-.41a1.097 1.097 0 0 0 .256-1.293c-.505-.921-1.517-1.165-2.509-1.197a4 4 0 0 0-2.771.864 1.187 1.187 0 0 0-.315 1.239 1.176 1.176 0 0 0 1 .797zM125.402 110.745c-.672.248-1.355.462-2.048.64-.788.244-1.396.512-2.215.263a1.103 1.103 0 0 1-.64-1.178c.211-1.03 1.101-1.561 2.042-1.92a4.063 4.063 0 0 1 2.905 0 1.182 1.182 0 0 1 .502 1.771 1.172 1.172 0 0 1-.546.424zM114.246 131.7c.461.288.948.717 1.536.64a4.28 4.28 0 0 0 1.629-.788.044.044 0 0 1 .039-.005.066.066 0 0 1 .019.009c.005.004.01.009.013.015a.048.048 0 0 1 .007.02.069.069 0 0 1-.001.02 2.18 2.18 0 0 1-1.827 1.298 1.737 1.737 0 0 1-1.555-1.126c-.039-.083.07-.083.14-.083z" fill="#263238"/>
        <path d="M115.002 129.293c3.673-1.312 6.886-1.92 6.88-2.106 0-.057-.852-3.36-.852-3.36.493.128 2.989.64 2.816 0-1.478-5.203-3.123-10.989-5.689-15.846a.155.155 0 0 0-.261.003.157.157 0 0 0-.021.099c1.222 5.056 3.322 9.863 4.634 14.919a9.668 9.668 0 0 0-2.714-.212c-.166.09.89 3.066.954 3.623a30.891 30.891 0 0 0-6.035 2.361c-.231.128-.013.608.288.519zM116.377 99.258a7.906 7.906 0 0 1-6.547 4.013c-2.662.089-5.575-1.197-6.995-3.514a.067.067 0 0 0-.038-.022.064.064 0 0 0-.072.042.06.06 0 0 0 .001.044c1.517 2.483 4.122 4.262 7.117 4.09a8.124 8.124 0 0 0 6.707-4.557.099.099 0 0 0 .009-.075.105.105 0 0 0-.047-.06.1.1 0 0 0-.135.038zM104.627 81.78c-4.48.978-8.09 4.268-9.127 7.64a8.812 8.812 0 0 0 .27 5.818c0 .077.178 0 .16-.05a9.715 9.715 0 0 1 2.802-9.492 12.52 12.52 0 0 1 10.599-3.437 7.955 7.955 0 0 1 4.825 2.56c.122.147.435 0 .333-.173-1.766-2.624-5.824-3.788-9.862-2.867zM132.557 86.344a10.036 10.036 0 0 0-5.255-4.48c-3.085-1.165-6.144-.3-9.165.64a.064.064 0 0 0-.039.032.065.065 0 0 0-.005.051.065.065 0 0 0 .032.04c.016.008.034.01.051.005 2.56-.768 5.235-1.408 7.891-.64a9.92 9.92 0 0 1 5.421 3.84 9.636 9.636 0 0 1-1.613 12.525 9.774 9.774 0 0 1-7.43 2.265c-.103 0-.148.148-.045.16a9.852 9.852 0 0 0 9.533-4.067 9.858 9.858 0 0 0 .624-10.345v-.026z" fill="#263238"/>
        <path d="M90.509 107.233s-5.799-7.2-3.13-12.531c1.51-3.021 8.269-3.956 8.269-3.956s1.42-4.262 6.72-6.598c5.299-2.336 12.646-.358 12.646-.358s4.736-4.064 10.24-2.176c7.712 2.643 8.871 13.395 2.528 18.137-4.48 3.328-11.955.263-11.955.263-.64.211-6.432 5.427-12.518.518 0 0-3.348 4.358-7.45 2.56.026-.019-1.14 3.968-5.35 4.141z" fill="#263238"/>
        <path d="M96.64 122.024s-5.901-7.239-9.223-5.076c-3.322 2.164 1.517 12.928 5.696 14.138a4.133 4.133 0 0 0 3.248-.172 4.144 4.144 0 0 0 2.121-2.465l-1.843-6.425z" fill="#EB9481"/>
        <path d="M88.877 120a.057.057 0 0 0-.04.054.057.057 0 0 0 .039.055c2.938.941 4.634 3.475 5.895 6.137-.928-.992-2.125-1.484-3.462-.371-.07.058 0 .173.083.147a2.555 2.555 0 0 1 2.867.679c.58.665 1.085 1.39 1.51 2.163.154.25.602.077.487-.211v-.064C96 124.947 92.8 120.07 88.876 120z" fill="#263238"/>
        <path d="M46.137 260.59c-11.36-1.062-13.92-15.68-7.68-20.652 14.618-11.655 37.229-19.111 53.856-22.144 5.357-.973 10.515 33.548 5.46 36.428-5.3 3.015-32.353 8.18-51.636 6.368z" fill="#EB9481"/>
        <path d="M125.549 228.48v.128a.229.229 0 0 0 0 .064c-1.6 6.637-4.058 13.197-6.708 16.602-3.923 5.478-22.566 9.35-22.566 9.35l-13.44-34.272s8.614-3.277 9.062-9.843c0 0 .877-9.805 2.253-12.947 1.805-4.116 9.805-21.607 11.891-22.509 2.087-.903 4.538 2.061 3.124 8.685-1.415 6.624-6.4 19.052-6.503 19.878-.003.276.016.552.058.826.147.339 2.784 10.912 6.4 13.324.854.438 1.835.56 2.771.346 3.072-2.669 3.347-7.29 3.642-9.6.473-3.77 1.062-15.578 6.771-16.307 5.709-.73 3.027 12.8 3.59 21.273.186 3.821.96 9.517-.345 15.002z" fill="#EB9481"/>
        <path d="M95.193 214.509s-.077-16.493 1.875-19.315c1.952-2.822 11.085-21.555 13.171-22.458 2.087-.902 4.538 2.061 3.123 8.685-1.414 6.624-6.4 19.047-6.508 19.879-.109.832 2.329 15.148 2.15 16.537-.179 1.389-13.811-3.328-13.811-3.328z" fill="#EB9481"/>
        <path d="M95.436 205.453c.07-1.805.23-3.597.397-5.395.094-.896.21-1.792.346-2.688.077-.448.153-.896.256-1.344.05-.234.114-.465.192-.691.051-.122.109-.263.16-.365l.153-.301c1.665-3.2 3.393-6.342 5.121-9.491a318.81 318.81 0 0 1 5.331-9.389 11.194 11.194 0 0 1 1.734-2.169 5.189 5.189 0 0 1 1.146-.839c.442-.251.955-.35 1.459-.281a1.914 1.914 0 0 1 1.21.844c.255.393.441.826.55 1.28.215.884.308 1.793.275 2.701a11.619 11.619 0 0 0-.518-2.624 3.892 3.892 0 0 0-.602-1.139 1.453 1.453 0 0 0-.985-.595c-.775-.083-1.53.486-2.112 1.088a10.674 10.674 0 0 0-1.524 2.112 1018.707 1018.707 0 0 1-5.12 9.491 348.808 348.808 0 0 1-5.325 9.395l-.166.288c-.051.096-.077.167-.121.25-.07.179-.141.39-.199.595-.115.422-.211.858-.307 1.28-.18.877-.327 1.76-.48 2.643-.307 1.779-.582 3.565-.87 5.344z" fill="#263238"/>
        <path d="M97.74 217.229s0-18.08 1.92-20.902c1.92-2.823 11.085-21.556 13.171-22.458 2.087-.902 4.538 2.067 3.124 8.685-1.415 6.617-6.4 19.053-6.509 19.878-.109.826 2.329 15.149 2.15 16.538-.179 1.389-13.856-1.741-13.856-1.741z" fill="#EB9481"/>
        <path d="M97.018 208.5c.217-2.196.53-4.378.883-6.56.192-1.088.397-2.17.64-3.252.128-.544.269-1.081.448-1.625.085-.283.197-.557.333-.819l.396-.73c2.125-3.84 4.263-7.712 6.432-11.52l3.284-5.76.838-1.427c.279-.496.591-.973.934-1.427a6.887 6.887 0 0 1 1.236-1.242 2.866 2.866 0 0 1 1.753-.64 1.961 1.961 0 0 1 1.594 1.056c.283.514.478 1.072.576 1.651.194 1.107.265 2.232.211 3.354a19.234 19.234 0 0 1-1.376 6.425c.658-2.094.976-4.281.941-6.476a15.358 15.358 0 0 0-.333-3.2 4.715 4.715 0 0 0-.557-1.434 1.278 1.278 0 0 0-1.049-.672c-.476.036-.927.23-1.28.55a6.52 6.52 0 0 0-1.05 1.108c-.312.432-.594.886-.845 1.356l-.806 1.44-3.232 5.76c-2.176 3.84-4.346 7.68-6.592 11.456l-.429.704a5.11 5.11 0 0 0-.314.698 19.776 19.776 0 0 0-.492 1.542 59.826 59.826 0 0 0-.781 3.2c-.5 2.132-.922 4.295-1.363 6.484z" fill="#263238"/>
        <path d="M97.177 217.095s0-16.826 1.811-19.456c1.811-2.63 10.918-14.675 12.864-15.514 1.946-.838 4.218 1.92 2.906 8.084-1.312 6.163-6.567 12.345-6.663 13.12-.096.774 2.163 14.131 1.984 15.411-.179 1.28-12.902-1.645-12.902-1.645z" fill="#EB9481"/>
        <path d="M96.697 211.379c.128-1.787.286-3.571.474-5.35.185-1.786.377-3.565.64-5.344.077-.448.147-.89.25-1.338.081-.464.23-.915.441-1.337a22.54 22.54 0 0 1 1.485-2.285 117.31 117.31 0 0 1 3.264-4.288 187.177 187.177 0 0 1 6.937-8.23c.301-.34.64-.64.922-.999.166-.166.307-.32.518-.499.22-.193.48-.333.762-.41a1.57 1.57 0 0 1 .941.071c.263.113.5.279.697.486.343.368.622.789.826 1.248.379.868.621 1.79.717 2.733a9.684 9.684 0 0 1-.122 2.797 26.53 26.53 0 0 1-3.968 10.112c-.531.761-1.037 1.44-1.517 2.201a50.34 50.34 0 0 0-1.369 2.279c-.051.089-.115.198-.141.256v.825c0 .436.045.877.083 1.319.071.877.179 1.76.314 2.637.493 3.52 1.689 6.905 2.605 10.374.46 1.734.902 3.469 1.28 5.222a23.8 23.8 0 0 1 .71 5.325 26.33 26.33 0 0 0-.954-5.267 112.81 112.81 0 0 0-1.491-5.152l-1.561-5.146a40.76 40.76 0 0 1-1.28-5.248 45.502 45.502 0 0 1-.384-2.688c-.045-.448-.09-.902-.109-1.356v-.704a1.5 1.5 0 0 1 .07-.48c.051-.115.109-.226.173-.333.442-.8.902-1.568 1.382-2.336.48-.768 1.018-1.53 1.504-2.234a25.462 25.462 0 0 0 3.764-9.76c.159-.843.2-1.705.121-2.56a7.89 7.89 0 0 0-.64-2.445 3.528 3.528 0 0 0-.64-.992.804.804 0 0 0-.768-.32 2.096 2.096 0 0 0-.857.64c-.308.314-.608.64-.909.967-2.407 2.637-4.711 5.382-6.995 8.121-1.14 1.376-2.272 2.765-3.341 4.186a21.578 21.578 0 0 0-1.498 2.176c-.196.376-.337.78-.416 1.197-.115.422-.198.864-.281 1.28-.685 3.545-1.14 7.129-1.639 10.649zM84.844 219.381c-1.734.518-3.468 1.03-5.177 1.6-1.71.569-3.437 1.107-5.12 1.689-3.405 1.184-6.797 2.407-10.144 3.738a229.708 229.708 0 0 0-9.94 4.224l-2.457 1.139-2.413 1.21c-1.645.755-3.2 1.683-4.813 2.489a86.37 86.37 0 0 1 9.357-5.504 108.474 108.474 0 0 1 9.914-4.448c3.379-1.318 6.796-2.528 10.24-3.545 1.74-.506 3.481-.999 5.235-1.44 1.754-.442 3.533-.858 5.318-1.152z" fill="#263238"/>
        <path d="M185.76 194.267c11.059-2.784 6.944-17.715.41-22.272-15.36-10.688-37.856-13.018-54.643-14.97-5.408-.64-8.858 30.509-3.629 33.056 5.472 2.663 35.424 9.837 57.862 4.186z" fill="#EB9481"/>
        <path d="M135.788 192.237c6.195-2.65 13.536-18.086 13.536-18.086l-9.229-16.103s-19.321-2.72-32.288-1.056c-3.584.461-37.024 7.68-38.285 9.543-1.26 1.862 1.037 4.87 7.802 4.915 6.765.045 19.987-2.144 20.82-2.067.269.061.534.14.793.236.3.212 7.584 8.64 11.117 11.175 2.137 1.536 6.278 4.921 10.272 6.4 7.571 2.886 14.457 5.766 15.462 5.043z" fill="#EB9481"/>
        <path d="M110.374 164.499s-16.09-3.629-19.264-2.329c-3.175 1.299-23.437 6.176-24.768 8.019-1.332 1.843 1.036 4.877 7.808 4.921 6.77.045 19.98-2.15 20.812-2.073.832.077 14.292 5.536 15.687 5.664 1.395.128-.275-14.202-.275-14.202z" fill="#EB9481"/>
        <path d="m101.606 161.172-5.382.608c-.896.102-1.792.192-2.682.313-.868.083-1.726.252-2.56.506-3.443 1.158-6.9 2.17-10.355 3.2-3.456 1.03-6.95 2.003-10.406 2.957-.842.244-1.65.59-2.407 1.03a2.88 2.88 0 0 0-1.536 1.824 1.507 1.507 0 0 0 .358 1.101c.28.33.614.612.986.832.775.453 1.6.814 2.458 1.075a9.884 9.884 0 0 1-2.56-.851 4.085 4.085 0 0 1-1.133-.826 1.864 1.864 0 0 1-.55-1.369c.043-.507.255-.984.601-1.357.311-.364.674-.68 1.075-.941.78-.509 1.621-.919 2.503-1.222 3.456-1.133 6.899-2.138 10.361-3.2 3.463-1.063 6.944-2.003 10.4-2.976.199-.064.455-.128.698-.179.243-.052.46-.077.685-.096.46-.058.909-.096 1.363-.135a76.85 76.85 0 0 1 2.707-.179c1.76-.038 3.565-.115 5.376-.115z" fill="#263238"/>
        <path d="M112.479 167.573s-17.645-3.91-20.825-2.611c-3.181 1.299-23.437 6.176-24.768 8.025-1.332 1.85 1.036 4.871 7.808 4.916 6.77.044 19.98-2.145 20.812-2.068.832.077 14.292 5.536 15.687 5.664 1.395.128 1.286-13.926 1.286-13.926z" fill="#EB9481"/>
        <path d="m104.262 163.258-6.573.96c-1.095.16-2.19.326-3.277.512a45.28 45.28 0 0 0-1.613.313 10.93 10.93 0 0 0-1.555.455c-4.205 1.401-8.442 2.681-12.672 3.961l-6.355 1.92c-1.05.333-2.157.602-3.11 1.012a6.599 6.599 0 0 0-1.338.78 2.244 2.244 0 0 0-.852 1.101 1.2 1.2 0 0 0 .385 1.178c.374.36.807.654 1.28.87.988.453 2.022.799 3.084 1.031a20.68 20.68 0 0 0 6.56.486 19.373 19.373 0 0 1-6.656-.032 15.213 15.213 0 0 1-3.244-.941 5.2 5.2 0 0 1-1.485-.947 2.315 2.315 0 0 1-.55-.8 1.679 1.679 0 0 1-.071-1.018 3.006 3.006 0 0 1 1.062-1.548 6.59 6.59 0 0 1 1.498-.922c.52-.234 1.054-.433 1.6-.595l1.58-.512 6.343-1.984c4.233-1.28 8.474-2.547 12.723-3.802.54-.174 1.092-.311 1.651-.409.55-.096 1.101-.173 1.658-.244 1.1-.147 2.202-.268 3.309-.377 2.195-.16 4.403-.346 6.618-.448z" fill="#263238"/>
        <path d="M112.473 166.996s-16.115.192-19.072 1.395c-2.957 1.203-17.005 3.674-18.24 5.396-1.235 1.721.967 4.531 7.27 4.582 6.305.051 13.78.07 14.554.147.775.077 12.992 1.325 14.291 1.44 1.3.115 1.197-12.96 1.197-12.96z" fill="#EB9481"/>
        <path d="m108.16 165.717-11.245 1.478c-.934.122-1.875.237-2.797.371-.921.135-1.804.448-2.7.711a159.699 159.699 0 0 0-5.383 1.741 222.19 222.19 0 0 0-5.331 1.868c-.883.327-1.766.64-2.63 1.018-.861.329-1.7.713-2.51 1.152-.358.218-.582.474-.582.73.034.355.201.684.468.921a6.516 6.516 0 0 0 2.201 1.402c.825.354 1.703.57 2.599.64.921.057 1.875.083 2.81.115 3.775.111 7.551.194 11.327.25h2.842c.979 0 1.92.179 2.848.288l5.625.684c.5.035.992.145 1.459.327.441.184.869.398 1.28.64.839.473 1.632.992 2.426 1.517 1.574 1.036 3.142 2.086 4.755 3.059a44.648 44.648 0 0 0 10.285 4.633 42.227 42.227 0 0 1-10.483-4.294c-1.658-.915-3.258-1.92-4.851-2.95-.8-.5-1.594-1.005-2.413-1.447a9.994 9.994 0 0 0-1.28-.576 4.317 4.317 0 0 0-1.28-.262l-5.638-.551c-.935-.083-1.889-.185-2.797-.243-.91-.057-1.888 0-2.823 0-3.776-.03-7.556-.083-11.34-.16-.948 0-1.882-.045-2.849-.096a8.945 8.945 0 0 1-2.892-.697 7.369 7.369 0 0 1-2.515-1.652 2.245 2.245 0 0 1-.698-1.58c.013-.335.14-.656.358-.909a2.45 2.45 0 0 1 .64-.544c.853-.46 1.736-.862 2.643-1.203.884-.346 1.773-.679 2.663-.999 1.785-.64 3.578-1.28 5.382-1.817 1.805-.538 3.616-1.114 5.447-1.62.921-.243 1.817-.499 2.797-.64.979-.14 1.881-.204 2.828-.3 3.827-.372 7.591-.717 11.354-1.005zM176.058 166.458a65.742 65.742 0 0 0-9.389-3.002 142.122 142.122 0 0 0-9.6-2.144c-6.451-1.228-12.96-2.355-19.469-3.072-6.509-.716-13.114-1.152-19.68-1.363-1.638-.045-3.283-.089-4.922-.045a36.602 36.602 0 0 0-4.883.352c-3.245.544-6.483 1.159-9.734 1.69 3.2-.742 6.4-1.446 9.651-2.15a34.93 34.93 0 0 1 4.947-.5c1.651-.083 3.309-.089 4.96-.089 3.303 0 6.599.185 9.888.384 3.29.198 6.579.461 9.869.768 1.645.147 3.29.422 4.915.64 1.626.217 3.258.512 4.89.787 3.245.557 6.496 1.139 9.715 1.862 3.219.724 6.4 1.492 9.6 2.413a58.928 58.928 0 0 1 9.242 3.469zM91.961 119.169c1.434-.583 3.84-6.4 4.89-8.787 1.05-2.388-.538-13.268-.954-15.732a16.538 16.538 0 0 0-4.787 7.84c-.96 3.61-.48 10.106.851 16.679z" fill="#263238"/>
        <path d="M173.945 268.738c-2.842.102-6.022.262-8.378-1.581-2.176-1.703-4.121-4.243-3.84-7.162.084-.832.276-1.344 1.172-.992 1.356.544 2.4 2.042 3.34 3.091a29.185 29.185 0 0 0 3.949 3.751c1.018.774 2.106 1.446 3.143 2.195l.384.288.147.115h.083a.132.132 0 0 1 .115.058.075.075 0 0 1 0 .051c.006.02.007.041.005.061a.15.15 0 0 1-.063.102.167.167 0 0 1-.057.023z" fill="#46A2C6"/>
        <path d="M174.08 268.551c-2.503-.044-5.203.071-7.2-1.625a11.678 11.678 0 0 1-2.33-2.829c-.288-.467-1.152-1.869-.793-2.432.64-1.011 3.628 3.11 4.044 3.507a12.152 12.152 0 0 0 5.53 2.867l.384.288a13.565 13.565 0 0 1-4.115-1.587c-1.773-1.056-2.759-2.624-4.154-4.089-.294-.314-1.203-1.376-1.542-.717-.224.435.608 1.811.793 2.105a11.339 11.339 0 0 0 2.196 2.682c1.996 1.747 4.684 1.683 7.206 1.786a.087.087 0 0 1-.019.044z" fill="#fff"/>
        <path d="M175.52 270.477c0 .109-.045.218-.07.327a.07.07 0 0 1-.014.036.06.06 0 0 1-.031.021.112.112 0 0 1-.062.012.11.11 0 0 1-.057-.025.107.107 0 0 1-.035-.115.323.323 0 0 0 0-.044l.032-.096c-.505-1.882-.704-3.84-1.235-5.76-.531-1.92-1.139-3.565-1.504-5.402-.23-1.158-1.03-6.963 1.53-6.24 1.132.32 1.92 1.965 2.336 2.944.562 1.323.883 2.737.947 4.173.179 3.552-1.12 6.771-1.837 10.169z" fill="#46A2C6"/>
        <path d="M176.338 263.246a13.81 13.81 0 0 0-.409-3.942c-.115-.448-.672-2.56-1.395-2.528-.468.032-.551.953-.589 1.28-.16 1.28.256 2.611.505 3.872a52.68 52.68 0 0 1 .941 7.757c0 .166-.045.332-.064.492-.019.16-.038.276-.051.416v.25a.123.123 0 0 0 .147.058c0-.109.032-.212.045-.32v.262l.058-.275a.188.188 0 0 1 0-.058v-.435c.405-2.258.677-4.539.812-6.829zm-.864 5.863a47.251 47.251 0 0 0-.441-4.551 58.501 58.501 0 0 0-.64-3.622 12.421 12.421 0 0 1-.327-2.055c0-.531.052-2.489 1.063-1.28.729.884.902 2.759.992 3.84a19.438 19.438 0 0 1-.071 3.61c-.147 1.357-.377 2.707-.576 4.058z" fill="#fff"/>
        <path d="M177.049 278.292h-.102c-2.605-.134-6.074.109-8.237-1.613-1.6-1.28-3.2-3.788-2.669-5.92.576-2.406 3.84.48 4.685 1.178a78.133 78.133 0 0 1 6.4 6.208v.045c.039.07-.019.07-.077.102z" fill="#46A2C6"/>
        <path d="m177.139 278.216-.448-.282a69.362 69.362 0 0 1-4.979-3.462c-.41-.307-3.341-2.918-3.783-1.984-.262.563.704 1.709 1.012 2.099a8.145 8.145 0 0 0 1.977 1.767c1.735 1.081 3.84 1.312 5.805 1.836.094.015.186.038.275.071h.051c.064 0 .116 0 .09-.045zm-5.12-1.485a7.983 7.983 0 0 1-2.246-1.517c-.442-.416-1.978-1.971-1.568-2.611.217-.345.396-.16.812.039.186.096.372.204.551.32.435.288.838.64 1.241.947a60.513 60.513 0 0 0 5.908 4.166c-1.588-.454-3.239-.672-4.724-1.344h.026z" fill="#fff"/>
        <path d="M181.804 272.93a15.348 15.348 0 0 1-4.48 7.789l-.045.032a.128.128 0 0 1-.134-.051.11.11 0 0 1-.032-.077c0-.029.012-.056.032-.077.046-.039.089-.082.128-.128.435-3.539.909-7.04 1.28-10.611.083-.832.742-6.157 2.374-5.293 1.012.538 1.082 2.72 1.165 3.7a15.344 15.344 0 0 1-.288 4.716z" fill="#46A2C6"/>
        <path d="M180.863 268.181c-.089-.294-.243-.602-.576-.39-.64.396-.889 2.899-.992 3.59-.435 2.854-1.113 5.6-1.798 8.397l-.173.71-.16.211a.13.13 0 0 0 .059.047.129.129 0 0 0 .075.005v-.077c.071-.09.148-.186.212-.282a18.254 18.254 0 0 0 2.56-5.024c.386-1.138.652-2.313.793-3.507.128-1.094.327-2.605 0-3.68zm-3.341 12c-.032.051-.07.096-.096.141 0-.096.058-.186.084-.282a50.456 50.456 0 0 0 1.593-6.502c.192-1.114.314-2.24.538-3.347.102-.468.326-1.805.717-2.023.39-.217.377.307.422.608.045.301 0 .608 0 .813a17.915 17.915 0 0 1-3.258 10.592z" fill="#fff"/>
        <path d="M177.779 288.354h-.499v-1.376a228.705 228.705 0 0 0-.25-5.548c-.064-1.05-.134-2.1-.249-3.136v-.103c0-.032 0-.173-.032-.256-.032-.083 0-.185-.032-.275a22.54 22.54 0 0 0-1.792-6.797 32.786 32.786 0 0 0-1.069-2.118l-.115-.199a.146.146 0 0 0 0-.051l-.115-.211-.09-.154c-1.203-2.118-2.56-4.147-3.891-6.182-.371-.582-.749-1.171-1.114-1.76a.449.449 0 0 1-.064-.102c-.032-.039-.057-.084-.089-.128-1.639-2.56-3.252-5.204-4.96-7.744-.064-.096.089-.18.153-.084 1.152 1.684 2.343 3.341 3.527 5.012.16.217.313.448.473.64l.928 1.318c.64.883 1.229 1.766 1.824 2.662a74.103 74.103 0 0 1 4.794 7.757c.102.199.198.403.294.608.096.205.122.256.179.384.058.128.135.301.199.448a23.979 23.979 0 0 1 1.753 8.199l.039.595v.275a1.106 1.106 0 0 0 0 .141v.838c.077 1.85.128 3.699.166 5.543-.013.62.007 1.209.032 1.804z" fill="#46A2C6"/>
        <path d="M162.24 254.85c-1.428-1.92-3.252-5.869-1.152-7.924a2.241 2.241 0 0 1 2.976-.224c1.107.807 1.606 2.324 1.964 3.578.967 3.354 1.6 6.771 2.804 10.054 0 0 .102.282.134.352.032.071-.083.103-.109 0-.025-.102-.083-.211-.121-.32-2.272-1.612-4.807-3.225-6.496-5.516z" fill="#46A2C6"/>
        <path d="M168.85 260.34a.47.47 0 0 0-.032-.058 23.862 23.862 0 0 1-1.331-2.502 45.564 45.564 0 0 1-2.048-5.491c-.23-.717-1.28-4.237-2.515-2.835-.525.588-.454 1.638-.371 2.361a8.917 8.917 0 0 0 1.094 3.303 16.212 16.212 0 0 0 4.736 4.94l.25.192.051.084.038.057a.1.1 0 0 0 .034.009.079.079 0 0 0 .034-.006.07.07 0 0 0 .029-.019.097.097 0 0 0 .019-.029l.012-.006zm-.556-.39a19 19 0 0 1-4.007-4.026 9.875 9.875 0 0 1-1.28-2.669 8.004 8.004 0 0 1-.288-1.28 5.598 5.598 0 0 1-.057-.985c0-.724.326-1.517.755-1.588.429-.07.704.212 1.049.82.12.205.225.419.314.64.227.546.426 1.103.595 1.67.295.928.595 1.856.928 2.778.231.64.467 1.235.736 1.843.45 1.046.972 2.059 1.562 3.033l-.307-.236z" fill="#fff"/>
        <path d="M274.444 260.213c-.237 1.92-.601 3.776-.985 5.652-.218 1.062-.448 2.124-.64 3.2-.237 1.171-.589 2.361-.269 3.545a.713.713 0 0 1 0 .16.14.14 0 0 1-.243-.038.575.575 0 0 1 0-.083 4.775 4.775 0 0 1-.41-.986 23.895 23.895 0 0 1-.941-2.746 23.562 23.562 0 0 1-.921-5.856 19.847 19.847 0 0 1 .55-5.28c.339-1.382.819-3.436 1.85-4.48.928-.953 1.708.576 1.977 1.351.544 1.734.256 3.769.032 5.561z" fill="#46A2C6"/>
        <path d="M272.742 256.182c-.691 0-1.197 2.233-1.44 3.2a19.11 19.11 0 0 0-.595 4.659 24.933 24.933 0 0 0 1.434 8.281c.038.109.07.218.108.32v.071a.133.133 0 0 0 .038.067.132.132 0 0 0 .146.027.136.136 0 0 0 .06-.049 8.439 8.439 0 0 1-.103-.698c-.025-.237-.051-.416-.064-.64a32.842 32.842 0 0 1 .423-6.854c.384-2.599.908-8.384-.007-8.384zm-.499 15.731c.038.307.083.64.141.915l-.205-.64a27.51 27.51 0 0 1-1.28-7.302 19.846 19.846 0 0 1 .301-4.173c.137-.74.316-1.47.537-2.189.103-.301.602-2.17 1.031-2.074.301.064.371 1.748.377 1.786v1.011c0 .698-.057 1.395-.115 2.093-.134 1.504-.352 3.002-.531 4.48a26.22 26.22 0 0 0-.256 6.093zM283.385 265.462c-.602-.602-2.381.889-2.829 1.235a30.34 30.34 0 0 0-3.68 3.578 26.496 26.496 0 0 0-4.698 6.803l-.064.077v.166a.081.081 0 0 0-.016.048c0 .017.006.034.016.048l.09-.102c.224-.276.454-.538.691-.8l.122-.128a56.911 56.911 0 0 1 5.504-4.858 27.541 27.541 0 0 0 3.661-3.558c.249-.327 1.715-1.997 1.203-2.509zm-.557 1.331c-1.497 2.49-4.096 4.307-6.304 6.118a29.7 29.7 0 0 0-4.186 3.975 28.183 28.183 0 0 1 4.346-6.112 37.591 37.591 0 0 1 2.995-3.072 15.222 15.222 0 0 1 1.811-1.453 6.162 6.162 0 0 1 1.229-.64c.839-.269.365.762.109 1.19v-.006z" fill="#fff"/>
        <path d="M271.814 283.33a.158.158 0 0 1-.054.052.159.159 0 0 1-.074.018l.032.045a.033.033 0 0 1 .01.014.04.04 0 0 1 .004.018.033.033 0 0 1-.004.017.03.03 0 0 1-.01.015.071.071 0 0 1-.014.01.05.05 0 0 1-.035 0 .13.13 0 0 1-.015-.01c-2.348-2.394-4.614-5.299-5.76-8.467a13.156 13.156 0 0 1-.838-4.173c0-.973-.083-2.938.755-3.655 1.683-1.427 3.2 4.64 3.437 5.556.422 1.664.691 3.36 1.075 5.036.423 1.831.979 3.629 1.53 5.428a.128.128 0 0 1-.039.096z" fill="#46A2C6"/>
        <path d="M271.814 283.33c-.089-.153-.179-.307-.262-.467a28.198 28.198 0 0 1-3.027-8.147 26.092 26.092 0 0 0-1.12-4.243c-.135-.333-.557-1.626-1.108-.973-.288.339-.051 2.79.064 3.417.279 1.441.737 2.84 1.364 4.167a29.389 29.389 0 0 0 3.84 6.259l.134.166a.045.045 0 0 0 .01-.013.041.041 0 0 0 0-.031.045.045 0 0 0-.01-.013.12.12 0 0 0-.032-.045.154.154 0 0 0 .084-.018.156.156 0 0 0 .063-.059zm-3.411-5.209a21.044 21.044 0 0 1-1.613-4.045c-.153-.56-.27-1.128-.352-1.703a8.723 8.723 0 0 1-.115-1.35c0-1.107.096-1.395.282-1.434.185-.038.275.096.601.756.2.431.356.881.467 1.344.173.64.327 1.28.468 1.977.288 1.319.556 2.643.94 3.943a21.996 21.996 0 0 0 2.33 5.299 34.528 34.528 0 0 1-3.008-4.787z" fill="#fff"/>
        <path d="M279.353 277.517a8.26 8.26 0 0 1-1.542 3.2c-1.395 1.92-3.2 3.533-4.704 5.357a9.947 9.947 0 0 0-.64.832c0 .032-.198.435-.198.397 0-.038 0-.16.076-.416.25-1.28 1.05-5.12 2.048-7.098a17.158 17.158 0 0 1 2.228-3.488c.435-.486 1.446-1.542 2.214-1.312.768.231.64 1.914.518 2.528z" fill="#46A2C6"/>
        <path d="M278.111 276.737c-.812-.512-2.918 3.251-3.2 3.738a23.915 23.915 0 0 0-2.406 5.76 19.75 19.75 0 0 0-.179.678c-.058.231-.077.41-.077.416 0 .007.173-.365.198-.403l.109-.141c.179-.237.365-.467.551-.685.915-1.369 1.856-2.726 2.739-4.115a21.95 21.95 0 0 0 1.702-3.123c.109-.275.922-1.882.563-2.125zm-.23 1.056c-1.165 3.271-3.533 5.85-5.344 8.755a1.108 1.108 0 0 0-.083.141c0-.083.045-.173.07-.256a27.081 27.081 0 0 1 1.92-4.774 25.27 25.27 0 0 1 1.619-2.695c.303-.489.639-.957 1.005-1.401.167-.186.64-.672.813-.589.173.083.07.602 0 .819z" fill="#fff"/>
        <path d="M287.551 250.522c-2.425 5.575-8.793 8.167-11.552 13.543l-.243.499a.103.103 0 0 1-.032.042.1.1 0 0 1-.049.022.118.118 0 0 1-.053-.003.113.113 0 0 1-.045-.029.083.083 0 0 1-.015-.048c0-.017.005-.034.015-.048l.057-.122a29.05 29.05 0 0 1 3.405-9.728c1.395-2.56 3.303-4.972 5.946-6.323.64-.339 1.92-1.043 2.656-.493.736.551.211 2.003-.09 2.688z" fill="#46A2C6"/>
        <path d="M285.369 250.741c-.307-.224-.774.051-1.043.186a9.52 9.52 0 0 0-1.837 1.28 15.346 15.346 0 0 0-2.937 3.488 31.74 31.74 0 0 0-3.463 7.04 20.191 20.191 0 0 0-.48 1.702c0 .071-.032.141-.045.211a.118.118 0 0 0 .093.043.126.126 0 0 0 .051-.011.11.11 0 0 0 .042-.032c.07-.172.147-.326.224-.486a.338.338 0 0 0 0-.045 18.955 18.955 0 0 1 1.728-3.2 43.936 43.936 0 0 1 3.635-4.307c.519-.576 5.101-5.062 4.032-5.869zm-.39 1.28a20.81 20.81 0 0 1-2.874 3.488c-1.011 1.127-2.029 2.24-3.014 3.379a20.673 20.673 0 0 0-2.125 2.9c-.522.852-.968 1.75-1.331 2.681.26-.949.578-1.881.953-2.79v-.032a42.216 42.216 0 0 1 2.356-4.685 19.137 19.137 0 0 1 2.713-3.802 10.845 10.845 0 0 1 1.92-1.625c.794-.519 1.491-.851 1.69-.595.198.256-.064.729-.288 1.113v-.032z" fill="#fff"/>
        <path d="M279.078 257.057a186.04 186.04 0 0 0-2.112 4.762c-.327.749-.64 1.498-.967 2.246a.338.338 0 0 1 0 .045c-.109.269-.23.544-.345.813a49.87 49.87 0 0 0-2.848 7.533 23.336 23.336 0 0 0-.583 4.192V277.32a.999.999 0 0 0 0 .134c-.045 1.223 0 2.445 0 3.642.032 1.664.173 3.315.327 4.96a1.202 1.202 0 0 0 0 .147v.224a.736.736 0 0 1 0 .115v.211c.051.525.102 1.056.147 1.594h-.506a32.317 32.317 0 0 1-.64-4.909.58.58 0 0 1 0-.102v-1.075c0-.474-.032-.948-.045-1.415-.127-2.753.07-5.511.589-8.217.014-.074.031-.146.051-.218a.513.513 0 0 1 0-.096l.039-.16.064-.25c.038-.147.083-.3.128-.448l.038-.128a53.954 53.954 0 0 1 2.784-6.764c.186-.397.371-.794.563-1.191.103-.224.212-.441.314-.64l.499-.998v-.032c.781-1.562 1.587-3.111 2.355-4.685.058-.096.186-.038.148.038z" fill="#46A2C6"/>
        <path d="M273.856 152.629h-99.558v7.117h99.558v-7.117z" fill="#E4E7EC"/>
        <path d="M268.934 159.746h-89.721v4.461h89.721v-4.461z" fill="#98A2B3"/>
        <path opacity=".2" d="m268.934 161.487-89.721.979v-2.72h89.721v1.741z" fill="#98A2B3"/>
        <path d="M174.291 288.514h99.559v-7.117h-99.559v7.117zM179.213 281.396h89.722v-4.46h-89.722v4.46z" fill="#E4E7EC"/>
        <path opacity=".2" d="m179.213 279.657 89.721-.979v2.72h-89.721v-1.741z" fill="#000"/>
        <g opacity=".4">
            <path d="M257.556 248.604c3.59 4.992 5.196 28.34 5.196 28.34h-77.356s1.6-23.348 5.196-28.34c5.76-7.974 30.08-25.113 30.08-29.043v-1.459c-.185-4.019-24.32-21.056-30.08-28.992-3.59-4.998-5.196-24.909-5.196-24.909h77.356s-1.6 19.911-5.196 24.909c-5.76 7.968-30.08 25.107-30.08 29.037v1.465c.211 4.013 24.364 21.05 30.08 28.992z" fill="#EBEBEB"/>
            <path d="M262.925 277.103h-77.702v-.173c.064-.953 1.644-23.443 5.228-28.422 2.708-3.763 9.46-9.498 16-15.034 6.9-5.856 14.029-11.904 14.029-13.913v-1.459c-.096-2.042-6.861-7.783-14.022-13.856-6.535-5.543-13.293-11.277-16-15.047-3.578-4.973-5.165-24.166-5.229-24.96v-.173h77.696v.173c-.064.819-1.645 20.013-5.229 24.96-2.707 3.77-9.459 9.498-16 15.034-6.899 5.856-14.029 11.904-14.029 13.913v1.466c.096 2.042 6.861 7.776 14.023 13.85 6.534 5.548 13.293 11.276 16 15.046 3.584 4.979 5.165 27.469 5.229 28.422l.006.173zm-77.325-.32h76.979c-.153-2.137-1.785-23.411-5.12-28.089-2.739-3.712-9.465-9.472-15.987-14.989-7.526-6.4-14.029-11.898-14.131-14.08v-1.472c0-2.157 6.554-7.719 14.144-14.157 6.515-5.523 13.254-11.245 15.942-14.976 3.354-4.659 4.986-22.682 5.12-24.653H185.6c.167 1.971 1.805 19.994 5.152 24.653 2.688 3.738 9.434 9.459 15.955 14.989 7.527 6.4 14.029 11.904 14.132 14.08v1.472c0 2.157-6.554 7.718-14.144 14.157-6.548 5.504-13.287 11.264-15.975 14.976-3.366 4.678-4.998 25.952-5.12 28.089z" fill="#C7C7C7"/>
        </g>
        <path opacity=".8" d="M253.619 246.945c3.379 4.704 4.889 29.99 4.889 29.99h-68.377s1.504-25.286 4.889-29.99c5.402-7.501 28.282-23.629 28.282-27.328v-1.376c-.173-3.776-22.906-19.84-28.282-27.277-3.379-4.704-4.889-26.88-4.889-26.88h68.377s-1.504 22.17-4.889 26.88c-5.402 7.501-28.288 23.629-28.288 27.328v1.376c.179 3.776 22.912 19.808 28.288 27.277z" fill="#EBEBEB"/>
        <path d="M257.696 276.942h-67.245s27.424-33.35 33.619-33.35c6.196 0 33.626 33.35 33.626 33.35z" fill="#46A2C6"/>
        <path opacity=".1" d="M257.696 276.942h-67.245s27.424-33.35 33.619-33.35c6.196 0 33.626 33.35 33.626 33.35z" fill="#000"/>
        <g opacity=".1" fill="#000">
            <path d="M240.135 271.337a.473.473 0 1 1-.946 0 .473.473 0 0 1 .946 0zM206.247 265.339a.481.481 0 0 1-.48.473.472.472 0 0 1-.335-.808.473.473 0 0 1 .672 0 .48.48 0 0 1 .143.335zM241.241 269.403a.367.367 0 0 1-.057.201.36.36 0 0 1-.552.061.356.356 0 0 1 .051-.553.357.357 0 0 1 .558.291zM236.724 256.565a.36.36 0 0 1-.553.302.362.362 0 0 1-.158-.368.361.361 0 0 1 .28-.285.361.361 0 0 1 .431.351zM198.739 272.764a.359.359 0 1 1-.717.014.359.359 0 0 1 .717-.014zM219.341 254.12a.372.372 0 0 1-.103.249.372.372 0 0 1-.249.103.35.35 0 0 1-.325-.218.341.341 0 0 1-.027-.134.34.34 0 0 1 .216-.327.332.332 0 0 1 .136-.025.353.353 0 0 1 .352.352zM218.636 251.644a.243.243 0 0 1-.075.172.252.252 0 0 1-.174.071.244.244 0 1 1 0-.487.247.247 0 0 1 .249.244zM223.75 268.808a.25.25 0 1 1-.249-.243.24.24 0 0 1 .249.243zM208.544 270.441a.25.25 0 1 1-.25-.244.26.26 0 0 1 .177.069c.023.023.041.05.054.08.013.03.019.062.019.095zM239.431 260.265a.243.243 0 0 1-.291.238.243.243 0 1 1 .291-.238zM245.862 272.764a.243.243 0 1 0 .001-.487.243.243 0 0 0-.001.487z"/>
        </g>
        <path d="M224.639 240.904c0 1.35 1.472 3.993 1.472 3.993h-3.59s1.472-2.643 1.472-3.993v-16.096c0-8.551-.698-9.735-1.37-10.759-1.747-1.056-4.217-3.296-6.86-5.971h17.107c-2.65 2.682-5.12 4.928-6.867 5.978-.64 1.017-1.357 2.233-1.357 10.745l-.007 16.103z" fill="#6BC4EF"/>
        <path opacity=".1" d="M224.639 240.904c0 1.35 1.472 3.993 1.472 3.993h-3.59s1.472-2.643 1.472-3.993v-16.096c0-8.551-.698-9.735-1.37-10.759-1.747-1.056-4.217-3.296-6.86-5.971h17.107c-2.65 2.682-5.12 4.928-6.867 5.978-.64 1.017-1.357 2.233-1.357 10.745l-.007 16.103z" fill="#000"/>
        <g opacity=".1" fill="#000">
            <path d="M222.08 210.16a.36.36 0 0 1 .218-.337.365.365 0 0 1 .394.077.355.355 0 0 1 .076.393.357.357 0 0 1-.336.219.353.353 0 0 1-.352-.352zM220.435 211.387a.25.25 0 1 1 .493.08.25.25 0 0 1-.493-.08zM229.555 209.564c0-.065.025-.128.071-.174a.249.249 0 0 1 .172-.076.261.261 0 0 1 .175.075.261.261 0 0 1 .075.175.249.249 0 0 1-.076.172.246.246 0 0 1-.346 0 .241.241 0 0 1-.071-.172z"/>
        </g>
        <path d="M193.427 273.384a89.843 89.843 0 0 1 .166-13.267c.179-2.208.429-4.403.826-6.643.121-.582.211-1.12.384-1.728l.128-.454.057-.224c0-.084.077-.192.115-.288.137-.351.304-.69.5-1.012a22.778 22.778 0 0 1 2.156-2.867 84.404 84.404 0 0 1 9.6-9.241 89.748 89.748 0 0 1 10.759-7.764c-2.759 3.495-5.715 6.746-8.685 9.959-2.97 3.213-6.022 6.336-8.794 9.523a21.141 21.141 0 0 0-1.824 2.349 4.504 4.504 0 0 0-.3.544l-.058.166-.102.333c-.154.442-.263.979-.41 1.466-.499 2.054-.941 4.192-1.402 6.316-.902 4.269-1.843 8.564-3.116 12.832zM218.144 208.859a117.658 117.658 0 0 1-10.272-8.135 197.804 197.804 0 0 1-9.524-8.889l-.576-.576-.288-.288-.339-.352a7.664 7.664 0 0 1-1.158-1.818 22.299 22.299 0 0 1-1.197-3.334 52.72 52.72 0 0 1-1.338-6.535 69.923 69.923 0 0 1-.704-13.139c1.396 4.179 2.509 8.378 3.68 12.506.596 2.06 1.165 4.121 1.856 6.08.306.94.678 1.857 1.114 2.745.151.329.344.637.576.915l1.094 1.088a210.578 210.578 0 0 1 8.916 9.485 116.95 116.95 0 0 1 8.16 10.247z" fill="#fff"/>
        <path d="m27.04 288.513 33.242-.16 33.235-.051 66.483-.109 66.483.109 33.235.051 33.242.16-33.242.154-33.235.058-66.483.108-66.483-.108-33.235-.058-33.242-.154z" fill="#263238"/>
    </g>
    <defs>
        <clipPath id="20pzdjx3ka">
            <path fill="#fff" transform="translate(0 .5)" d="M0 0h320v320H0z"/>
        </clipPath>
    </defs>
</svg>
