<svg width="703" height="291" viewBox="0 0 703 291" fill="none" xmlns="http://www.w3.org/2000/svg">
    <path opacity=".6" d="M572.155 22.444c6.411 0 114.307.709 121.088.493.487-.013.748-.73.265-.97-4.275-2.113-9.124-1.69-13.565-3.183-2.614-.88-4.219-2.587-6.033-4.543-1.566-1.693-3.383-2.99-5.614-3.66a11.882 11.882 0 0 0-6.113-.192c-2.19.522-4.09 1.773-6.179 2.562-5.183 1.954-10.22.097-13.92-3.733-3.053-3.156-6.054-6.135-10.203-7.835-3.474-1.425-7.331-1.72-10.808-.15-3.958 1.79-6.673 5.392-10.391 7.557-4.406 2.572-9.677 1.963-14.543 2.74-4.88.777-8.604 4.869-12.873 7.226-1.458.806-2.952 1.48-4.653 1.439-.954-.024-1.89-.281-2.834-.4-1.469-.18-2.864-.139-3.853 1.085-.241.298-.191 1.564.229 1.564zM23.773 16.256c4.681 0 83.455.517 88.406.36.356-.01.546-.532.193-.708-3.12-1.543-6.661-1.233-9.904-2.324-1.908-.642-3.08-1.888-4.404-3.316-1.144-1.236-2.47-2.183-4.1-2.673a8.68 8.68 0 0 0-4.462-.14c-1.598.38-2.986 1.294-4.51 1.87-3.785 1.427-7.463.072-10.164-2.726-2.229-2.304-4.42-4.479-7.449-5.72-2.536-1.04-5.352-1.256-7.89-.11-2.89 1.308-4.873 3.937-7.587 5.518-3.217 1.878-7.065 1.434-10.618 2-3.563.568-6.282 3.555-9.398 5.276-1.065.588-2.156 1.08-3.398 1.05-.696-.017-1.38-.205-2.069-.292-1.072-.131-2.091-.101-2.813.792-.176.22-.14 1.143.167 1.143zM136.777 84.698c4.681 0 83.455.517 88.405.36.356-.01.547-.532.194-.707-3.121-1.544-6.661-1.234-9.904-2.325-1.908-.642-3.08-1.888-4.404-3.317-1.143-1.236-2.47-2.183-4.099-2.672a8.678 8.678 0 0 0-4.462-.14c-1.599.38-2.986 1.294-4.511 1.87-3.784 1.427-7.462.071-10.164-2.726-2.228-2.305-4.42-4.48-7.448-5.72-2.537-1.04-5.352-1.257-7.891-.11-2.89 1.308-4.872 3.937-7.586 5.517-3.218 1.878-7.065 1.434-10.618 2-3.563.569-6.282 3.556-9.398 5.276-1.065.589-2.155 1.081-3.398 1.05-.697-.017-1.38-.205-2.069-.291-1.072-.132-2.092-.102-2.814.791-.177.22-.14 1.144.167 1.144zM283.401 30.276c.091.262 124.157 0 122.591 0-.713 0 1.083-1.066.385-1.41-4.039-2.001-8.457-2.057-12.855-2.462-2.566-.232-5.203-.606-7.511-1.819-2.339-1.223-3.796-3.346-5.456-5.307-5.128-6.08-13.286-9.248-21.186-8.015-8.821 1.38-15.776 8.092-24.612 9.324-5.309.743-10.33-1.309-15.517-2.03-4.272-.592-7.829.237-11.651 2.127-2.798 1.384-5.385 2.552-8.548 2.77-2.429.171-4.869-.107-7.303-.132-3.898-.035-7.744 1.65-10.745 4.288-.393.349-1.643 2.666 2.408 2.666z" fill="#E4E7EC"/>
    <path d="m604.534 99.884-4.118 163.414h12.102L608.4 99.884h-3.866z" fill="#E4E7EC"/>
    <path opacity=".5" d="m604.534 99.884-4.118 163.414h12.102L608.4 99.884h-3.866z" fill="#98A2B3"/>
    <path d="m604.437 102.948 4.073.429-.109-3.495h-3.868l-.096 3.066zM601.76 188.179h9.414l-.15-4.823h-9.114l-.15 4.823zM601.98 181.07h8.973l-.075-2.412h-8.823l-.075 2.412z" fill="#E4E7EC"/>
    <path opacity=".5" d="M606.474 263.298V99.884h-1.94l-4.118 163.414h6.058z" fill="#98A2B3"/>
    <path d="m617.306 98.275-1.037 3.84h-13.518v-7.68h13.518l.498 1.842.539 1.998z" fill="#E4E7EC"/>
    <path opacity=".3" d="m617.306 98.275-1.037 3.84h-13.518v-7.68h13.518l.498 1.842.539 1.998z" fill="#98A2B3"/>
    <path opacity=".5" d="M617.306 98.275h-14.555v-1.998h14.016l.539 1.998z" fill="#98A2B3"/>
    <path d="M598.308 97.618 555.4 56.586l1.243-.673 44.003 39.268-2.338 2.437z" fill="#E4E7EC"/>
    <path opacity=".5" d="M598.308 97.618 555.4 56.586l1.243-.673 44.003 39.268-2.338 2.437z" fill="#98A2B3"/>
    <path d="m593.465 92.985-38.064-36.401-.091 1.38 34.354 36.64 3.801-1.619z" fill="#E4E7EC"/>
    <path d="m566.903 70.329 2.717-2.833-1.327-1.183-2.608 2.72 1.218 1.296zM603.839 95.552l55.192-14.661.022 1.44L604.9 98.904l-1.061-3.351z" fill="#E4E7EC"/>
    <path opacity=".5" d="m603.839 95.552 55.192-14.661.022 1.44L604.9 98.904l-1.061-3.351z" fill="#98A2B3"/>
    <path d="m610.069 93.896 48.961-13.007-1.158-.831-47.487 9.67-.316 4.168z" fill="#E4E7EC"/>
    <path d="m641.848 83.322 1.232 3.895 1.633-.5-1.183-3.74-1.682.345zM603.128 101.459l-12.283 55.693-1.265-.767 10.15-55.84 3.398.914z" fill="#E4E7EC"/>
    <path opacity=".5" d="m603.128 101.459-12.283 55.693-1.265-.767 10.15-55.84 3.398.914z" fill="#98A2B3"/>
    <path d="m601.741 107.746-10.896 49.407 1.249-.546 13.132-46.31-3.485-2.551z" fill="#E4E7EC"/>
    <path d="m596.524 140.977-3.95-1.062-.305 1.684 3.793 1.02.462-1.642zM602.278 102.115a3.844 3.844 0 0 0 3.846-3.84c0-2.121-1.722-3.84-3.846-3.84a3.842 3.842 0 0 0-3.845 3.84c0 2.12 1.721 3.84 3.845 3.84z" fill="#E4E7EC"/>
    <path d="M605.179 98.275a3.247 3.247 0 0 1-3.249 3.244c-1.794 0-5.549-2.32-5.549-3.245 0-.843 3.755-3.244 5.549-3.244a3.247 3.247 0 0 1 3.249 3.245z" fill="#E4E7EC"/>
    <path opacity=".5" d="M605.179 98.275a3.247 3.247 0 0 1-3.249 3.244c-1.794 0-5.549-2.32-5.549-3.245 0-.843 3.755-3.244 5.549-3.244a3.247 3.247 0 0 1 3.249 3.245z" fill="#98A2B3"/>
    <path d="M608.816 104.044a9.472 9.472 0 0 0 1.904-4.706c.163-1.694-.098-3.449-.868-4.97a9.046 9.046 0 0 0-3.329-3.792c-1.439-.928-3.14-1.422-4.862-1.484.861.01 1.73.077 2.567.313.827.247 1.645.57 2.373 1.047a9.212 9.212 0 0 1 3.451 3.821c.766 1.57 1.005 3.364.815 5.081a8.844 8.844 0 0 1-2.051 4.69zM592.467 98.274c.06 1.745.573 3.464 1.523 4.915a9.12 9.12 0 0 0 3.889 3.325 9.195 9.195 0 0 0 5.061.78 9.547 9.547 0 0 0 4.721-2.06 8.918 8.918 0 0 1-4.701 2.207 9.358 9.358 0 0 1-5.174-.725 9.299 9.299 0 0 1-3.921-3.447c-.488-.734-.819-1.56-1.076-2.396-.237-.848-.314-1.727-.322-2.599zM599.934 89.254c-1.331.352-2.597.91-3.682 1.736a9.442 9.442 0 0 0-1.508 1.37c-.471.496-.812 1.091-1.225 1.645.34-.593.637-1.23 1.095-1.758.437-.54.95-1.017 1.505-1.436 1.121-.822 2.443-1.386 3.815-1.557z" fill="#E4E7EC"/>
    <path d="M590.188 102.876a12.8 12.8 0 0 0 4.145 5.238c1.809 1.332 3.987 2.167 6.226 2.341 2.233.208 4.53-.183 6.549-1.18a12.88 12.88 0 0 0 5.015-4.418 12.18 12.18 0 0 1-4.949 4.55c-2.032 1.032-4.36 1.458-6.634 1.268-2.278-.202-4.479-1.075-6.295-2.442a12.113 12.113 0 0 1-4.057-5.357zM593.799 88.75c-1.341 1.224-2.46 2.674-3.218 4.308-.782 1.621-1.188 3.407-1.282 5.218-.092-1.817.307-3.656 1.08-5.314.791-1.648 1.957-3.127 3.42-4.212zM613.577 101.58c.466-1.837.513-3.768.156-5.616a12.247 12.247 0 0 0-2.321-5.086 12.314 12.314 0 0 0-4.291-3.592c-1.685-.85-3.563-1.297-5.459-1.356.948.005 1.902.068 2.833.276.924.225 1.841.512 2.692.947a12.462 12.462 0 0 1 4.401 3.59 12.449 12.449 0 0 1 2.291 5.194 11.96 11.96 0 0 1-.302 5.643z" fill="#E4E7EC"/>
    <path d="M608.582 90.405c-2.555-2.222-6.194-3.054-9.445-2.22-3.266.802-6.034 3.3-7.185 6.438-1.206 3.114-.78 6.82 1.152 9.566 1.884 2.775 5.177 4.54 8.559 4.559-3.385.072-6.761-1.66-8.681-4.475-1.981-2.77-2.449-6.538-1.238-9.729 1.199-3.198 4.039-5.713 7.357-6.502a10.632 10.632 0 0 1 5.045.001 10.492 10.492 0 0 1 4.436 2.362zM605.354 108.079c1.288-.569 2.503-1.299 3.5-2.286a10.357 10.357 0 0 0 2.343-3.43c1.149-2.55 1.141-5.547.128-8.165a9.808 9.808 0 0 1 .898 4.107 10.48 10.48 0 0 1-.822 4.146 10.58 10.58 0 0 1-4.13 4.736c-.601.376-1.273.61-1.917.892zM478.812 84.218l-4.513 179.079h13.261l-4.513-179.08h-4.235z" fill="#E4E7EC"/>
    <path opacity=".5" d="m478.812 84.218-4.513 179.079h13.261l-4.513-179.08h-4.235z" fill="#98A2B3"/>
    <path d="m478.705 87.575 4.464.471-.12-3.831h-4.239l-.105 3.36zM475.771 180.977h10.317l-.164-5.286h-9.988l-.165 5.286zM476.013 173.187h9.833l-.082-2.643h-9.668l-.083 2.643z" fill="#E4E7EC"/>
    <path opacity=".5" d="M480.938 263.297V84.217h-2.127l-4.512 179.08h6.639z" fill="#98A2B3"/>
    <path d="m492.808 82.455-1.135 4.208h-14.816v-8.416h14.816l.544 2.02.591 2.188z" fill="#E4E7EC"/>
    <path opacity=".3" d="m492.808 82.455-1.135 4.208h-14.816v-8.416h14.816l.544 2.02.591 2.188z" fill="#98A2B3"/>
    <path opacity=".5" d="M492.808 82.454h-15.951v-2.188h15.36l.591 2.188z" fill="#98A2B3"/>
    <path d="M474.422 78.987 489.315 15.7l1.328.796-12.615 63.339-3.606-.847z" fill="#E4E7EC"/>
    <path opacity=".5" d="M474.422 78.987 489.315 15.7l1.328.796-12.615 63.339-3.606-.847z" fill="#98A2B3"/>
    <path d="m476.103 71.843 13.211-56.144-1.354.682-15.503 52.78 3.646 2.682z" fill="#E4E7EC"/>
    <path d="m482.73 34.193 4.19.983.38-1.91-4.023-.944-.547 1.871zM479.455 83.048l44.591 43.854-1.349.823-45.818-41.811 2.576-2.866z" fill="#E4E7EC"/>
    <path opacity=".5" d="m479.455 83.048 44.591 43.854-1.349.823-45.818-41.811 2.576-2.866z" fill="#98A2B3"/>
    <path d="m484.488 87.998 39.558 38.903.141-1.555-35.583-39.371-4.116 2.023z" fill="#E4E7EC"/>
    <path d="m512.178 112.062-2.994 3.33 1.382 1.261 2.875-3.198-1.263-1.393zM473.476 85.668l-59.484 19.435.022-1.62 58.434-21.527 1.028 3.712z" fill="#E4E7EC"/>
    <path opacity=".5" d="m473.476 85.668-59.484 19.435.022-1.62 58.434-21.527 1.028 3.712z" fill="#98A2B3"/>
    <path d="m466.761 87.861-52.769 17.241 1.214.874 51.085-13.41.47-4.705z" fill="#E4E7EC"/>
    <path d="m432.445 101.449-1.196-4.314-1.763.65 1.149 4.142 1.81-.478zM472.125 82.454a4.21 4.21 0 0 0 4.214 4.208 4.21 4.21 0 0 0 4.214-4.208 4.21 4.21 0 0 0-4.214-4.208 4.21 4.21 0 0 0-4.214 4.208z" fill="#E4E7EC"/>
    <path d="M479.518 82.454a3.558 3.558 0 0 1-3.561 3.556c-1.966 0-6.081-2.543-6.081-3.556 0-.924 4.115-3.555 6.081-3.555a3.558 3.558 0 0 1 3.561 3.555z" fill="#E4E7EC"/>
    <path opacity=".5" d="M479.518 82.454a3.558 3.558 0 0 1-3.561 3.556c-1.966 0-6.081-2.543-6.081-3.556 0-.924 4.115-3.555 6.081-3.555a3.558 3.558 0 0 1 3.561 3.555z" fill="#98A2B3"/>
    <path d="M483.505 88.778a10.36 10.36 0 0 0 2.094-5.157c.179-1.858-.105-3.783-.95-5.452-.782-1.693-2.077-3.15-3.653-4.157-1.578-1.018-3.444-1.556-5.331-1.62.943.013 1.895.088 2.811.348.907.271 1.802.625 2.599 1.147 1.613 1 2.955 2.464 3.775 4.186.84 1.718 1.102 3.683.895 5.564a9.719 9.719 0 0 1-2.24 5.14zM465.587 82.454c.061 1.912.622 3.798 1.664 5.39a10.007 10.007 0 0 0 4.263 3.65 10.09 10.09 0 0 0 5.551.852 10.43 10.43 0 0 0 5.173-2.264 9.798 9.798 0 0 1-5.153 2.41 10.253 10.253 0 0 1-5.665-.797 10.183 10.183 0 0 1-4.295-3.771c-.535-.805-.898-1.708-1.18-2.625-.262-.927-.347-1.89-.358-2.845zM473.77 72.57c-1.461.377-2.852.99-4.041 1.895-.606.435-1.154.947-1.653 1.504-.515.546-.886 1.2-1.337 1.81.378-.65.705-1.346 1.207-1.922a9.452 9.452 0 0 1 1.65-1.57c1.226-.904 2.673-1.52 4.174-1.717z" fill="#E4E7EC"/>
    <path d="M463.089 87.497a14.003 14.003 0 0 0 4.538 5.747c1.985 1.46 4.371 2.377 6.827 2.569 2.449.228 4.968-.202 7.181-1.298a14.085 14.085 0 0 0 5.493-4.847 13.384 13.384 0 0 1-5.427 4.98c-2.226 1.13-4.776 1.594-7.266 1.386-2.495-.22-4.905-1.177-6.895-2.673a13.296 13.296 0 0 1-4.451-5.864zM467.047 72.016c-1.474 1.334-2.704 2.925-3.536 4.715-.857 1.78-1.302 3.739-1.395 5.724-.093-1.99.345-4.005 1.193-5.82.866-1.803 2.141-3.423 3.738-4.62zM488.721 86.078c.514-2.012.569-4.13.179-6.156a13.427 13.427 0 0 0-2.543-5.58 13.488 13.488 0 0 0-4.707-3.935c-1.848-.932-3.907-1.419-5.985-1.48 1.039.007 2.083.079 3.104.307 1.011.248 2.015.563 2.947 1.04a13.657 13.657 0 0 1 4.818 3.934 13.608 13.608 0 0 1 2.51 5.686 13.11 13.11 0 0 1-.323 6.184z" fill="#E4E7EC"/>
    <path d="M483.247 73.831c-2.797-2.438-6.786-3.353-10.353-2.439-3.582.877-6.619 3.615-7.882 7.057-1.322 3.416-.854 7.48 1.267 10.491 2.066 3.043 5.679 4.976 9.386 4.993-3.71.074-7.405-1.825-9.507-4.908-2.168-3.035-2.679-7.161-1.354-10.655 1.312-3.501 4.421-6.257 8.054-7.121a11.653 11.653 0 0 1 5.526-.001 11.51 11.51 0 0 1 4.863 2.583zM479.711 93.2c1.413-.62 2.746-1.42 3.839-2.501a11.35 11.35 0 0 0 2.572-3.76c1.258-2.797 1.251-6.085.131-8.952a10.81 10.81 0 0 1 .977 4.501 11.464 11.464 0 0 1-.904 4.538 11.561 11.561 0 0 1-4.519 5.19c-.657.415-1.392.673-2.096.984zM341.141 99.883l-4.119 163.414h12.102l-4.118-163.414h-3.865z" fill="#E4E7EC"/>
    <path opacity=".5" d="m341.141 99.883-4.119 163.414h12.102l-4.118-163.414h-3.865z" fill="#98A2B3"/>
    <path d="m341.025 103.543 4.255 5.043-.273-8.705h-3.867l-.115 3.662zM338.367 188.178h9.414l-.151-4.823h-9.113l-.15 4.823zM338.587 181.069h8.973l-.075-2.412h-8.823l-.075 2.412z" fill="#E4E7EC"/>
    <path opacity=".5" d="m341.141 99.883-4.119 163.414h6.13l-.079-163.414h-1.932z" fill="#98A2B3"/>
    <path d="m353.913 98.275-1.037 3.84h-13.518v-7.68h13.518l.498 1.842.539 1.998z" fill="#E4E7EC"/>
    <path opacity=".3" d="m353.913 98.275-1.037 3.84h-13.518v-7.68h13.518l.498 1.842.539 1.998z" fill="#98A2B3"/>
    <path opacity=".5" d="M353.913 98.274h-14.555v-1.998h14.016l.539 1.998z" fill="#98A2B3"/>
    <path d="m342.325 100.961 15.131 57.369-1.411-.074-16.989-56.436 3.269-.859z" fill="#E4E7EC"/>
    <path opacity=".5" d="m342.325 100.961 15.131 57.369-1.411-.074-16.989-56.436 3.269-.859z" fill="#98A2B3"/>
    <path d="m344.033 107.437 13.424 50.892.799-1.129-10.135-49.161-4.088-.602z" fill="#E4E7EC"/>
    <path d="m354.835 140.611-3.799.999.512 1.701 3.648-.959-.361-1.741zM336.527 99.84l-54.735-16.278.734-1.24 54.849 14.106-.848 3.412z" fill="#E4E7EC"/>
    <path opacity=".5" d="m336.527 99.84-54.735-16.278.734-1.24 54.849 14.106-.848 3.412z" fill="#98A2B3"/>
    <path d="m330.348 98.002-48.556-14.44.553 1.313 45.553 16.517 2.45-3.39z" fill="#E4E7EC"/>
    <path d="m297.718 90.447.985-3.964-1.653-.425-.946 3.806 1.614.583zM340.223 95.17l39.603-41.089.677 1.314-37.86 42.327-2.42-2.551z" fill="#E4E7EC"/>
    <path opacity=".5" d="m340.223 95.17 39.603-41.089.677 1.314-37.86 42.327-2.42-2.551z" fill="#98A2B3"/>
    <path d="m344.693 90.532 35.133-36.451-1.352-.186-35.419 32.645 1.638 3.992z" fill="#E4E7EC"/>
    <path d="m366.522 64.914 2.814 2.965 1.141-1.276-2.701-2.847-1.254 1.158zM338.885 102.115a3.844 3.844 0 0 0 3.846-3.84c0-2.121-1.722-3.84-3.846-3.84a3.842 3.842 0 0 0-3.845 3.84c0 2.12 1.721 3.84 3.845 3.84z" fill="#E4E7EC"/>
    <path d="M341.785 98.273a3.247 3.247 0 0 1-3.249 3.245c-1.794 0-5.549-2.32-5.549-3.245 0-.843 3.755-3.244 5.549-3.244a3.246 3.246 0 0 1 3.249 3.245z" fill="#E4E7EC"/>
    <path opacity=".5" d="M341.785 98.273a3.247 3.247 0 0 1-3.249 3.245c-1.794 0-5.549-2.32-5.549-3.245 0-.843 3.755-3.244 5.549-3.244a3.246 3.246 0 0 1 3.249 3.245z" fill="#98A2B3"/>
    <path d="M338.447 89.097a9.518 9.518 0 0 0-4.914 1.301c-1.455.886-2.704 2.147-3.461 3.675a9.017 9.017 0 0 0-1.042 4.933c.118 1.707.742 3.361 1.725 4.775-.507-.694-.975-1.429-1.288-2.239-.298-.81-.529-1.657-.585-2.524a9.197 9.197 0 0 1 .994-5.049c.798-1.553 2.093-2.82 3.583-3.698a8.886 8.886 0 0 1 4.988-1.174zM343.629 105.622c1.363-1.094 2.432-2.535 3.025-4.165a9.093 9.093 0 0 0 .332-5.1 9.168 9.168 0 0 0-2.41-4.512 9.55 9.55 0 0 0-4.482-2.538 8.917 8.917 0 0 1 4.587 2.433 9.325 9.325 0 0 1 2.522 4.569 9.279 9.279 0 0 1-.411 5.2c-.296.831-.759 1.59-1.275 2.297-.536.7-1.195 1.287-1.888 1.816zM331.922 105.066c1.08.854 2.287 1.529 3.599 1.901.65.204 1.323.323 2.002.384.681.078 1.362-.007 2.054-.008-.679.083-1.369.228-2.065.179a8.632 8.632 0 0 1-2.054-.341c-1.332-.402-2.577-1.122-3.536-2.115z" fill="#E4E7EC"/>
    <path d="M348.683 104.684a12.787 12.787 0 0 0 1.712-6.454c-.018-2.244-.654-4.485-1.858-6.379-1.171-1.908-2.863-3.51-4.873-4.525a12.909 12.909 0 0 0-6.547-1.358c2.254-.22 4.577.204 6.614 1.226 2.046 1.005 3.784 2.61 4.996 4.54 1.204 1.942 1.823 4.225 1.816 6.496a12.108 12.108 0 0 1-1.86 6.454zM335.195 110.27c1.784.337 3.618.362 5.382-.012 1.768-.347 3.443-1.094 4.95-2.106-1.4 1.164-3.114 1.948-4.906 2.324-1.795.356-3.679.311-5.426-.206zM333.617 86.772a12.988 12.988 0 0 0-4.594 3.243 12.244 12.244 0 0 0-2.685 4.906 12.254 12.254 0 0 0-.305 5.582c.329 1.856 1.097 3.624 2.187 5.175-.565-.761-1.086-1.561-1.479-2.43-.373-.872-.693-1.778-.854-2.719a12.434 12.434 0 0 1 .237-5.669 12.44 12.44 0 0 1 2.789-4.944 11.98 11.98 0 0 1 4.704-3.144z" fill="#E4E7EC"/>
    <path d="M327.657 97.465c-.249 3.374 1.267 6.78 3.886 8.878 2.6 2.13 6.262 2.844 9.467 1.881 3.218-.904 5.933-3.467 6.975-6.657 1.094-3.17.534-6.859-1.48-9.574 2.087 2.663 2.725 6.398 1.62 9.621-1.033 3.244-3.771 5.878-7.054 6.824-3.282.959-7.001.199-9.623-1.98a10.61 10.61 0 0 1-3.025-4.032 10.493 10.493 0 0 1-.766-4.961zM343.757 89.444c-1.228-.687-2.541-1.22-3.931-1.425a10.411 10.411 0 0 0-4.154.185c-2.733.61-5.13 2.414-6.62 4.793a9.845 9.845 0 0 1 2.753-3.18 10.51 10.51 0 0 1 3.815-1.829 10.579 10.579 0 0 1 6.272.46c.662.255 1.253.652 1.865.996zM490.053 263.297s-114.762-6.374-177.134-22.075c-51.78-13.034-99.051-38.423-122.272-38.423-50.639 0-142.37 60.498-142.37 60.498h334.167" fill="#E4E7EC"/>
    <path d="M659.82 263.297s-102.778-35.786-133.012-35.786c-22.422 0-195.701 35.786-195.701 35.786H659.82z" fill="#E4E7EC"/>
    <path d="M195.528 149.184s-15.396-6.081-27.586 15.153c-12.501 21.775 3.215 36.096 15.664 27.545 0 0 9.793 20.478 29.33 15.578 19.536-4.899 22.694-20.513 22.694-20.513s17.344 1.201 17.819-11.728c.474-12.928-12.241-24.378-12.241-24.378s-.767-32.196-21.775-31.929c-21.007.267-23.905 30.272-23.905 30.272z" fill="#667085"/>
    <path d="m209.943 263.265 4.291-95.808 4.502 95.799-8.793.009z" fill="#263238"/>
    <path d="m212.967 203.46-13.513-26.859 15.729 22.665-2.216 4.194z" fill="#263238"/>
    <path d="M651.927 180.575s-33.058 73.309 20.906 73.368c53.964.059 19.07-75.818 19.07-75.818s12.498-5.475-1.948-46.404c-14.446-40.928-20.92-40.936-26.937-40.943-7.604-.008-14.703 17.699-9.542 44.894 0 0-19.025 33.908-1.549 44.903z" fill="#475467"/>
    <path d="m677.565 302.588-5.079-110.493-5.323 110.482 10.402.011z" fill="#101828"/>
    <path d="m674.549 238.421-19.585-22.896 15.354 25.916 4.231-3.02z" fill="#101828"/>
    <path d="M271.577 160.472s27.733 61.499-17.538 61.549c-45.271.05-15.998-63.606-15.998-63.606s-10.485-4.592 1.634-38.929c12.118-34.336 17.55-34.342 22.598-34.347 6.38-.007 12.336 14.848 8.006 37.663 0 0 15.959 28.445 1.298 37.67z" fill="#475467"/>
    <path d="m250.068 262.831 4.262-92.694 4.466 92.684-8.728.01z" fill="#263238"/>
    <path d="m252.599 208.999 16.43-19.208-12.88 21.742-3.55-2.534z" fill="#263238"/>
    <path d="M8.698 194.54s-28.816 64.276 18.453 64.225c47.268-.052 16.557-66.447 16.557-66.447s10.937-4.82-1.795-40.643c-12.732-35.822-18.403-35.817-23.673-35.811-6.66.008-12.846 15.531-8.272 39.342 0 0-16.6 29.737-1.27 39.334z" fill="#475467"/>
    <path d="m31.39 301.366-4.661-96.773-4.45 96.783 9.111-.01z" fill="#101828"/>
    <path d="m25.622 231.327 16.632-22.398-14.816 25.085-1.816-2.687z" fill="#101828"/>
    <path d="M551.532 148.793s-15.395-6.081-27.585 15.153c-12.501 21.776 3.215 36.096 15.663 27.545 0 0 9.794 20.479 29.329 15.579 19.536-4.9 22.696-20.514 22.696-20.514s17.344 1.201 17.818-11.727c.475-12.929-12.24-24.378-12.24-24.378s-.768-32.196-21.775-31.93c-21.006.267-23.906 30.272-23.906 30.272z" fill="#667085"/>
    <path d="m565.948 262.875 4.292-95.809 4.502 95.799-8.794.01z" fill="#101828"/>
    <path d="m568.918 202.962-13.46-26.753 16.115 22.623-2.655 4.13z" fill="#101828"/>
    <path d="M208.412 273.378h105.302s-11.535-49.125-52.651-49.125c-41.117.001-50.845 38.154-52.651 49.125z" fill="#2291BC"/>
    <path opacity=".2" d="M208.412 273.378h105.302s-11.535-49.125-52.651-49.125c-41.117.001-50.845 38.154-52.651 49.125z" fill="#101828"/>
    <path d="M514.027 278.68H619.33s-11.535-49.125-52.651-49.125c-41.117.001-50.844 38.153-52.652 49.125z" fill="#1E799E"/>
    <path opacity=".2" d="M514.027 278.68H619.33s-11.535-49.125-52.651-49.125c-41.117.001-50.844 38.153-52.652 49.125z" fill="#101828"/>
    <path d="M184.329 183.773c-2.257 3.58-6.222 43.031-6.452 44.412-.23 1.38-3.515 7.421-3.572 8.572-.058 1.15-.864 18.926-.403 20.077.461 1.15 3.054 5.35 3.63 6.04.576.691 15.497 13.52 17.168 13.693 1.672.172 17.111.287 17.399 0 .288-.288 2.075-47.75 48.913-47.75 46.838 0 46.32 50.395 47.184 50.568.864.173 210.515 4.948 210.515 4.948 0-7.709.605-53.617 46.551-53.617 29.93 0 45.053 24.635 45.571 42.801.216 7.564-1.052 15.878-.634 15.878 1.383 0 6.107.345 6.914 0 .806-.346 10.6-6.789 11.407-7.019.806-.229 6.453-.344 7.836-.69 1.382-.345 11.061-8.802 11.234-9.147.173-.344.461-3.682.518-3.97.058-.287 9.852-12.253 10.313-13.576.461-1.323.634-12.254.634-13.347 0-1.092-17.802-29.915-21.95-33.021-4.148-3.106-33.703-13.461-42.345-15.015-8.642-1.553-56.172-8.63-57.9-9.837-1.728-1.209-82.849-47.669-96.961-51.085-11.408-2.762-143.454 1.035-150.368 1.38-6.913.345-26.041 3.797-27.884 3.797s-23.045-.115-24.312.461c-1.268.575 0 5.638 1.613 6.558 1.611.919-50.701 32.675-54.619 38.889z" fill="#46A2C6"/>
    <path d="M187.352 180.78c.504.457 8.759.662 9.623.318.864-.346 52.869-34.893 52.907-35.898.019-.506-9.755-.374-10.936-.316-1.182.057-52.544 35.033-51.594 35.896zM245.276 180.233c2.254 6.647 275.393 19.072 276.891 15.851 1.109-2.384-23.333-21.976-34.74-28.362-11.407-6.386-44.073-24.852-60.147-26.751-16.073-1.899-48.68-1.73-77.084-1.208-28.173.518-61.357 1.208-73.11 6.214-10.311 4.39-33.603 28.971-31.81 34.256z" fill="#1B1D3D"/>
    <path d="M252.887 176.354c.69 2.495 61.012 8.975 131.701 12.254 70.691 3.279 105.603 3.797 106.467 3.451.865-.345-2.419-19.157-3.629-20.71-1.211-1.553-51.852-27.441-59.801-28.132-7.951-.69-50.901-.776-72.591-.431-21.692.346-66.888 2.935-74.579 6.041-6.764 2.731-28.259 25.024-27.568 27.527z" fill="#98A2B3"/>
    <path d="m346.461 142.999-40.488 40.43a1424.553 1424.553 0 0 1-19.907-1.879l37.547-37.492a836.56 836.56 0 0 1 22.848-1.059zM490.918 188.067l-4.085 4.079c-4.106-.01-11.216-.135-21.372-.405l21.06-21.029c.509.312.821.53.904.633.863 1.111 2.787 11.023 3.493 16.722zM376.668 142.614l-43.055 42.993c-3.451-.239-6.84-.488-10.145-.747l42.255-42.194c3.472-.03 7.161-.052 10.945-.052zM469.09 161.454l-29.501 29.447c-3.337-.124-6.84-.249-10.499-.394l32.734-32.676a609.547 609.547 0 0 1 7.266 3.623zM316.368 144.504l-36.423 36.381h-.011c-.946-.104-1.871-.207-2.775-.311l35.893-35.842c1.092-.072 2.204-.156 3.316-.228zM475.368 164.662l-26.59 26.562c-.977-.031-1.975-.063-2.994-.104l27.546-27.506c.698.352 1.373.705 2.038 1.048zM437.157 146.413l-42.702 42.64-2.973-.125 43.472-43.408c.696.27 1.434.571 2.203.893zM287.46 147.274l-30.477 30.434a33.246 33.246 0 0 1-2.505-.591l29.23-29.178a70.752 70.752 0 0 1 3.752-.665z" fill="#fff"/>
    <path d="M290.731 146.818c.28-.029.409.371.167 1.035-1.423 3.912-12.473 26.085-15.238 31.263-.445.832-1.358 1.039-1.564 1.097l19.478 2.08s-1.17-.437-.959-1.761c.195-1.224 7.423-27.292 9.694-33.693.294-.826 1.222-1.358 1.305-1.366.386-.033-3.321.056-6.84.422-3.1.32-6.043.923-6.043.923zM316.41 144.5s.355.199.369.904c.126 6.135.811 36.839.22 38.527-.075.215-.168.351-.281.401l3.683.293c-.061-.045-.3-.447-.338-.921-.411-5.189-.786-33.337-.72-38.544.006-.429.317-.827.348-.873l-3.281.213zM376.96 143.877c.435 1.365 1.147 41.453 1.147 42.747 0 1.294-1.469 1.6-1.469 1.6l22.823 1.057s-1.478-.414-1.736-1.104c-.26-.691-7.432-43.924-7.389-44.484.043-.561 1.167-1.095 1.167-1.095l-15.902.009s1.081.396 1.359 1.27z" fill="#1B1D3D"/>
    <path d="M188.362 189.41c-2.801.361-9.103 6.904-9.563 8.284-.461 1.381-2.189 10.701-1.267 12.081.922 1.382 4.263 4.833 7.143 4.948 2.881.115 16.938-6.558 18.205-7.708 1.268-1.151 2.19-8.158.692-10.407-1.499-2.251-11.638-7.658-15.21-7.198z" fill="#fff"/>
    <path d="M202.879 207.018c-1.265 1.148-15.328 7.82-18.205 7.706-2.194-.089-4.664-2.122-6.115-3.694 2.107 1.343 4.08 1.926 5.628 1.776 1.55-.141 14.718-5.797 16.408-7.343 1.69-1.546 1.762-7.37 1.541-8.422-.213-1.052-8.727-6.522-8.727-6.522 4.204 1.617 9.151 4.568 10.16 6.088 1.496 2.254.576 9.253-.69 10.411z" fill="#EBEBEB"/>
    <path d="M176.725 241.474c-.779.777-1.038 6.616-.231 7.133.807.518 5.532.461 6.453 0 .922-.46 3.284-4.832 3.111-6.328-.173-1.495-8.412-1.726-9.333-.805zM597.35 209.142c2.483 4.017 20.74 11.132 27.567 12.254 4.295.705 19.186 1.639 20.05.863.864-.777-6.309-10.701-10.025-13.117-3.716-2.416-22.295-8.63-27.913-8.37-5.618.259-12.185 4.314-9.679 8.37z" fill="#fff"/>
    <path d="M644.969 222.261c-.867.777-15.753-.159-20.054-.867-6.824-1.122-25.081-8.236-27.569-12.257-2.504-4.047 4.063-8.104 9.682-8.369.381-.018.823-.009 1.31.026-5.23 1.927-6.301 6.01-3.115 8.343 3.203 2.351 13.399 7.786 17.479 8.926 3.929 1.104 18.594 3.385 19.859 2.386.487-.381.602-1.219.558-2.104 1.346 2.016 2.178 3.625 1.85 3.916z" fill="#EBEBEB"/>
    <path d="M208.411 236.237c-.938-2.079-1.796-4.188-2.642-6.302-.848-2.113-1.629-4.25-2.447-6.374-.759-2.145-1.549-4.28-2.278-6.436-.729-2.157-1.446-4.317-2.081-6.509.939 2.08 1.797 4.188 2.644 6.302.845 2.113 1.63 4.249 2.446 6.374.757 2.146 1.55 4.279 2.277 6.437.728 2.157 1.445 4.318 2.081 6.508zM176 236.239c4.538-.082 9.074-.079 13.609-.063l13.605.145 13.601.325c4.533.142 9.067.295 13.598.536-4.537.082-9.073.079-13.608.063l-13.605-.147-13.602-.327c-4.532-.139-9.065-.293-13.598-.532zM390.157 192.171l1.559 11.035.674 5.533c.102.925.203 1.848.273 2.783.073.941.015 1.861.029 2.792l-.2 22.293-.18 11.147-.091 5.573-.046 2.787-.213 2.778-.861 11.113-.943 11.105.562-11.127.643-11.118.159-2.78.026-2.784.055-5.567.111-11.134.382-22.268c.005-.924.079-1.864.026-2.777a81.46 81.46 0 0 0-.219-2.766l-.562-5.539-1.184-11.079z" fill="#101828"/>
    <path d="m512.718 197.233 1.877 11.097.94 5.549.234 1.387c.082.461.167.923.168 1.4.026.941.022 1.878.018 2.817-.063 7.503-.247 15.002-.481 22.501a264.646 264.646 0 0 1-.235 5.625c.007 1.901-.589 3.756-1.081 5.546a154.386 154.386 0 0 1-3.499 10.71c-1.314 3.517-2.696 7.023-4.498 10.343l-.695 1.234c-.242.406-.517.795-.773 1.193-.245.406-.553.774-.86 1.142l-.456.555c-.36.241-.58.187-.824.247-1.898.2-3.768.226-5.65.29-15.031.307-30.054.169-45.078.07a4735.38 4735.38 0 0 1-45.07-.6c-15.021-.318-30.043-.69-45.059-1.243-7.509-.309-15.015-.551-22.519-1.229-.949-.115-1.854-.164-2.85-.449-.527-.201-.84-.447-1.286-.645-.412-.212-.837-.404-1.261-.599-1.701-.767-3.459-1.449-5.154-2.295-1.696-.837-3.33-1.853-4.736-3.15-1.313-1.436-2.327-3.004-3.415-4.54-4.231-6.208-8.273-12.531-12.317-18.854a2183.439 2183.439 0 0 1-12.004-19.047c-3.954-6.379-7.896-12.763-11.768-19.193l-1.434-2.423c-.12-.199-.231-.423-.344-.634l-.169-.321c-.036-.111-.035-.233-.052-.349l-.134-1.401c-.161-1.87-.306-3.74-.372-5.616-.01-.47-.026-.939.004-1.411.049-.474.178-.928.302-1.38a48 48 0 0 1 .878-2.674 146.173 146.173 0 0 1 2-5.26 143.114 143.114 0 0 0-1.954 5.276 47.566 47.566 0 0 0-.855 2.677c-.12.452-.244.907-.288 1.367-.025.464-.005.934.008 1.401.082 1.872.243 3.741.42 5.606l.145 1.397c.018.115.018.236.054.342l.166.299c.114.198.211.396.336.597l1.452 2.408c3.924 6.395 7.922 12.746 11.929 19.09 8.015 12.684 15.997 25.403 24.424 37.808 1.079 1.521 2.129 3.109 3.351 4.442 1.362 1.247 2.949 2.231 4.62 3.049 1.668.828 3.418 1.501 5.142 2.271.43.196.861.39 1.284.606.414.181.874.496 1.228.615.813.231 1.798.306 2.711.408 7.462.653 14.981.875 22.483 1.16 15.011.511 30.03.835 45.051 1.115 15.018.315 30.039.561 45.061.732 15.02.142 30.046.323 45.059.06 1.87-.056 3.761-.08 5.6-.269a6.18 6.18 0 0 0 .526-.094l.438-.532c.295-.352.592-.702.833-1.101.253-.39.522-.767.761-1.165l.69-1.216c1.789-3.274 3.18-6.766 4.499-10.267a153.833 153.833 0 0 0 3.52-10.668c.5-1.815 1.083-3.575 1.082-5.454l.257-5.616c.297-7.493.544-14.991.671-22.489.012-.937.023-1.876.005-2.809.004-.464-.076-.927-.155-1.389l-.223-1.388-.892-5.553-1.786-11.109zM609.396 216.308c-1.895 1.733-4.11 3.045-6.231 4.461-2.147 1.384-4.34 2.694-6.518 4.024-2.211 1.277-4.41 2.575-6.644 3.809-2.234 1.235-4.478 2.455-6.769 3.593 2.128-1.418 4.295-2.766 6.466-4.109l6.549-3.962 6.605-3.864 3.305-1.926c1.098-.645 2.222-1.255 3.237-2.026z" fill="#101828"/>
    <path d="m293.155 238.245 29.266.769 29.263.888 58.525 1.784 58.516 2.044 29.257 1.026 29.254 1.147-29.266-.767-29.262-.889-58.525-1.784-58.516-2.045-29.258-1.026-29.254-1.147zM291.43 196.37l-1.144.059-.285.012c-.059-.015-.072.054-.11.143-.053.17-.08.358-.102.542a14.575 14.575 0 0 0-.048 2.26c.018.375.041.751.099 1.111.029.176.069.363.127.484.012.024.031.042.018.029l.085.002c.057.003.111.02.219.025.739.067 1.508.085 2.266.112 3.042.095 6.089.194 9.136.245l4.568.132 2.28.035.565-.003c.094 0 .192-.001.261-.007l.115-.006c.048.003.081-.007.041-.005-.035.059.086-.136.12-.28.043-.166.083-.337.108-.519.109-.721.122-1.48.1-2.226a9.51 9.51 0 0 0-.102-1.105c-.026-.159-.093-.391-.119-.423-.027-.044-.259-.094-.427-.125-1.479-.258-3.017-.345-4.532-.494 1.529-.026 3.046-.02 4.592.117.196.04.382.009.646.2.217.267.204.433.271.638.083.389.126.775.164 1.161.058.774.083 1.545.002 2.335a4.676 4.676 0 0 1-.097.602c-.084.207-.053.428-.418.695-.114.071-.174.073-.224.075l-.17.016c-.122.012-.215.012-.311.015l-.578.013h-2.294l-4.578-.063c-3.05-.116-6.099-.204-9.148-.427-.765-.064-1.52-.115-2.296-.222a1.708 1.708 0 0 1-.344-.073c-.064-.023-.121-.029-.188-.07-.088-.076-.116-.142-.147-.202-.093-.229-.115-.423-.141-.622a9.353 9.353 0 0 1-.045-1.167c.023-.77.083-1.536.224-2.296.039-.189.079-.379.154-.568a.715.715 0 0 1 .078-.142c.017-.052.151-.102.182-.083l.286.011 1.141.059zM403.434 199.136l-1.144.059-.285.011c-.059-.014-.072.054-.11.144-.053.17-.08.358-.103.542a14.685 14.685 0 0 0-.047 2.259c.017.375.041.752.099 1.112.028.176.068.363.126.483.013.024.031.043.017.03l.086.003c.057.004.11.021.218.025.74.068 1.508.086 2.265.112 3.043.096 6.09.194 9.136.245l4.568.132 2.281.036.564-.004c.095 0 .192-.001.262-.007l.115-.005c.047.002.081-.008.041-.006-.035.059.085-.136.119-.279a4.55 4.55 0 0 0 .108-.52c.109-.721.122-1.481.101-2.226a9.793 9.793 0 0 0-.103-1.106c-.026-.159-.092-.391-.118-.422-.027-.045-.26-.095-.427-.126-1.48-.258-3.018-.344-4.533-.494 1.53-.026 3.048-.02 4.592.117.197.04.382.009.647.199.217.267.203.434.27.639.084.389.127.774.164 1.161.058.773.083 1.544.003 2.334a5.067 5.067 0 0 1-.097.603c-.084.207-.054.427-.419.695a.382.382 0 0 1-.224.074l-.171.016c-.121.013-.215.013-.31.015l-.579.012h-2.294l-4.577-.062c-3.05-.116-6.1-.204-9.149-.428-.764-.063-1.52-.115-2.295-.221a1.803 1.803 0 0 1-.345-.073c-.064-.024-.12-.03-.187-.071-.087-.075-.116-.141-.146-.201-.094-.23-.115-.423-.141-.623a9.143 9.143 0 0 1-.046-1.165c.024-.771.083-1.536.224-2.296.039-.19.08-.379.155-.568a.698.698 0 0 1 .077-.144c.017-.051.152-.101.183-.082l.285.011 1.144.06zM290.94 306.44c17.009-16.984 17.009-44.521 0-61.505-17.009-16.985-44.586-16.985-61.595 0-17.009 16.984-17.009 44.521 0 61.505 17.009 16.985 44.586 16.985 61.595 0z" fill="#101828"/>
    <path d="M282.629 298.142c12.42-12.401 12.42-32.508 0-44.909-12.419-12.401-32.555-12.401-44.974 0-12.419 12.401-12.419 32.508 0 44.909 12.419 12.401 32.555 12.401 44.974 0z" fill="#DBDBDB"/>
    <path d="M260.147 304.968c16.194 0 29.322-13.11 29.322-29.281s-13.128-29.28-29.322-29.28c-16.195 0-29.323 13.109-29.323 29.28s13.128 29.281 29.323 29.281z" fill="#667085"/>
    <path d="M264.75 268.346h-9.21c3.108-4.484-7.724-20.126-7.724-20.126l4.845-1.619c3.222 5.522 4.834 7.141 7.484 7.141 2.651 0 4.262-1.619 7.495-7.141l4.834 1.619s-10.832 15.642-7.724 20.126zM254.77 268.905l-2.846 8.747c-3.311-4.337-21.556 1.116-21.556 1.116l-.045-5.102c6.255-1.353 8.295-2.383 9.114-4.9.82-2.518-.225-4.548-4.486-9.324l3.036-4.09s11.551 15.118 16.783 13.553zM252.218 278.556l7.452 5.405c-5.154 1.804-5.599 20.816-5.599 20.816l-4.872-1.534c.644-6.358.293-8.614-1.852-10.17-2.145-1.555-4.401-1.191-10.267 1.379l-2.957-4.147s17.97-6.297 18.095-11.749zM260.621 283.961l7.451-5.405c.125 5.452 18.096 11.75 18.096 11.75l-2.967 4.153c-5.857-2.576-8.113-2.941-10.258-1.385-2.145 1.556-2.495 3.812-1.86 10.176l-4.864 1.528s-.444-19.013-5.598-20.817zM268.367 277.651l-2.846-8.747c5.231 1.566 16.783-13.554 16.783-13.554l3.039 4.1c-4.264 4.766-5.308 6.796-4.489 9.314.819 2.517 2.86 3.547 9.118 4.91l-.049 5.092s-18.246-5.452-21.556-1.115z" fill="#E4E7EC"/>
    <path d="M260.147 283.984c4.701 0 8.512-3.806 8.512-8.5 0-4.695-3.811-8.501-8.512-8.501-4.702 0-8.513 3.806-8.513 8.501 0 4.694 3.811 8.5 8.513 8.5z" fill="#E4E7EC"/>
    <path d="M582.073 315.69c22.106-9.471 32.338-35.043 22.853-57.117-9.485-22.074-35.094-32.291-57.2-22.82-22.106 9.471-32.338 35.043-22.853 57.117 9.484 22.074 35.094 32.291 57.2 22.82z" fill="#101828"/>
    <path d="M595.89 282.854c3.974-17.084-6.673-34.151-23.782-38.119-17.109-3.969-34.2 6.663-38.175 23.747-3.975 17.084 6.673 34.15 23.782 38.119 17.108 3.969 34.2-6.663 38.175-23.747z" fill="#DBDBDB"/>
    <path d="M564.894 304.969c16.194 0 29.323-13.11 29.323-29.281s-13.129-29.28-29.323-29.28c-16.194 0-29.323 13.109-29.323 29.28s13.129 29.281 29.323 29.281z" fill="#667085"/>
    <path d="M569.497 268.347h-9.21c3.108-4.484-7.724-20.126-7.724-20.126l4.845-1.619c3.222 5.522 4.834 7.141 7.484 7.141 2.651 0 4.262-1.619 7.495-7.141l4.834 1.619s-10.832 15.642-7.724 20.126zM559.516 268.905l-2.846 8.747c-3.31-4.337-21.555 1.116-21.555 1.116l-.046-5.102c6.256-1.353 8.295-2.383 9.115-4.9.82-2.518-.226-4.548-4.486-9.324l3.036-4.09s11.552 15.118 16.782 13.553zM556.965 278.557l7.451 5.405c-5.154 1.804-5.599 20.816-5.599 20.816l-4.872-1.534c.644-6.358.293-8.614-1.852-10.17-2.144-1.555-4.401-1.191-10.266 1.379l-2.958-4.147s17.971-6.297 18.096-11.749zM565.368 283.962l7.451-5.405c.125 5.452 18.096 11.749 18.096 11.749l-2.966 4.154c-5.857-2.576-8.113-2.941-10.258-1.385-2.145 1.556-2.495 3.812-1.86 10.176l-4.863 1.528s-.446-19.013-5.6-20.817zM573.113 277.652l-2.845-8.747c5.231 1.566 16.782-13.554 16.782-13.554l3.039 4.1c-4.263 4.766-5.308 6.796-4.488 9.314.819 2.517 2.859 3.547 9.118 4.91l-.049 5.092s-18.246-5.452-21.557-1.115z" fill="#E4E7EC"/>
    <path d="M564.893 283.985c4.702 0 8.513-3.806 8.513-8.5 0-4.695-3.811-8.501-8.513-8.501-4.701 0-8.512 3.806-8.512 8.501 0 4.694 3.811 8.5 8.512 8.5z" fill="#E4E7EC"/>
    <path d="M481.056 175.834c-1.587 1.584-1.441 15.762-.288 16.913 1.152 1.15 16.937 2.186 18.205-6.616 1.268-8.801-15.44-12.771-17.917-10.297z" fill="#46A2C6"/>
    <path d="M538.662 184.305h-12.838c-33.419-22.017-79.281-43.793-79.281-43.793l7.609-1.837c27.765 13.421 81.299 44.114 82.702 45.101.176.124.8.301 1.808.529z" fill="#1B1D3D"/>
    <path d="M208.412 247.285c2.614-4.451 6.028-8.403 9.764-11.974a61.74 61.74 0 0 1 12.546-9.121c9.101-5.031 19.569-7.454 29.954-7.359l3.894.183 1.946.093c.645.072 1.287.177 1.931.264l3.861.549c1.272.264 2.531.601 3.797.898 5.005 1.345 9.944 3.223 14.283 6.117 4.375 2.812 8.277 6.324 11.563 10.326 3.311 3.997 5.849 8.537 8.168 13.13-2.529-4.486-5.147-8.954-8.56-12.803-3.333-3.898-7.244-7.291-11.597-9.976-8.725-5.435-19.088-7.648-29.296-7.745-5.121-.106-10.244.496-15.23 1.635a60.756 60.756 0 0 0-14.339 5.388c-4.539 2.377-8.764 5.358-12.58 8.793-3.823 3.421-7.296 7.28-10.105 11.602zM513.562 247.285c2.614-4.451 6.028-8.403 9.764-11.974a61.74 61.74 0 0 1 12.546-9.121c9.101-5.031 19.57-7.454 29.954-7.359l3.893.183 1.946.093c.646.072 1.288.177 1.932.264l3.862.549c1.272.264 2.531.601 3.796.898 5.006 1.345 9.944 3.223 14.285 6.117 4.374 2.812 8.277 6.324 11.562 10.326 3.312 3.997 5.85 8.537 8.17 13.13-2.53-4.486-5.147-8.954-8.56-12.803-3.334-3.898-7.244-7.291-11.597-9.976-8.724-5.435-19.088-7.648-29.296-7.745-5.12-.106-10.243.496-15.229 1.635a60.74 60.74 0 0 0-14.339 5.388c-4.54 2.377-8.765 5.358-12.581 8.793-3.826 3.421-7.298 7.28-10.108 11.602zM214.715 175.11c6.785-5.313 13.67-10.495 20.604-15.612 6.947-5.102 13.936-10.139 21.144-14.905.914-.58 1.83-1.156 2.773-1.703a24.41 24.41 0 0 1 1.449-.789 8.837 8.837 0 0 1 1.587-.594c2.089-.613 4.176-1.14 6.27-1.663 4.192-1.027 8.391-2.022 12.631-2.844 4.246-.915 8.595-1.159 12.899-1.321 4.316-.095 8.63-.085 12.938.116-4.31.034-8.62.125-12.916.391-4.294.266-8.587.595-12.759 1.595-4.198.941-8.393 1.908-12.562 2.978-2.081.536-4.17 1.081-6.212 1.696a7.939 7.939 0 0 0-1.432.546c-.462.237-.923.492-1.381.767a80.307 80.307 0 0 0-2.722 1.698c-7.214 4.666-14.201 9.719-21.24 14.678l-21.071 14.966z" fill="#fff"/>
    <path opacity=".1" d="M552.567 232.063c-33.367 7.618-33.856 45.349-33.856 52.273 0 0-209.654-4.775-210.516-4.951-.697-.146-.489-33.185-25.229-45.775 11.113 5.491 25.353 18.777 30.748 38.187.582 2.065 31.112 5.315 83.305 6.976 52.203 1.65 97.556.612 106.163-.592 8.606-1.215 18.709-46.254 49.385-46.118zM658.419 254.991c-.458 1.329-10.26 13.287-10.312 13.578-.063.29-.344 3.622-.52 3.975-.177.343-9.855 8.802-11.237 9.145-1.383.343-7.027.457-7.828.685-.811.229-10.603 6.675-11.414 7.017-.801.352-5.53 0-6.912 0-.416 0 .852-8.315.634-15.872-.375-13.182-8.441-29.78-24.283-37.886 8.596 1.826 22.931 13.546 28.721 25.628 5.79 12.082 4.304 12.975 5.656 14.428 1.341 1.453 5.842-1.485 7.91-2.004 2.079-.509 8.815-.685 11.414-1.204 2.588-.519 3.014-5.18 4.792-6.218 1.768-1.027 10.811-8.22 13.379-11.272z" fill="#101828"/>
    <path opacity=".3" d="M246.831 199.218v.196c0 2.377-.981 4.764-2.666 6.465-1.695 1.754-4.103 2.823-6.582 2.859-2.47.053-4.976-.909-6.778-2.663a9.657 9.657 0 0 1-2.863-6.759 9.624 9.624 0 0 1 2.863-6.768c1.802-1.755 4.308-2.717 6.778-2.663a9.441 9.441 0 0 1 6.582 2.859 9.318 9.318 0 0 1 2.666 6.474zM221.468 208.355c-1.659-.045-3.273-1.069-4.415-2.752-1.15-1.656-1.801-3.972-1.783-6.287-.018-2.325.633-4.64 1.792-6.296 1.133-1.683 2.747-2.708 4.406-2.743 1.659-.054 3.344.864 4.548 2.547.883 1.222 1.49 2.824 1.762 4.537-.249-1.727-.831-3.357-1.699-4.617-1.187-1.755-2.872-2.823-4.611-2.859-1.73-.054-3.487.908-4.745 2.663-1.248 1.754-1.997 4.239-1.997 6.768.009 2.52.749 5.005 2.006 6.759 1.258 1.754 3.006 2.716 4.736 2.663 1.739-.036 3.424-1.105 4.611-2.859 1.043-1.514 1.703-3.553 1.828-5.655-.161 2.102-.83 4.106-1.891 5.575-1.204 1.692-2.889 2.609-4.548 2.556zm6.31-10.994c.05.347.108.693.13 1.046-.028-.352-.075-.7-.13-1.046z" fill="#101828"/>
    <path opacity=".3" d="M227.943 199.317c0 .302-.009.605-.036.908-.16 2.102-.829 4.105-1.891 5.575-1.203 1.692-2.889 2.609-4.548 2.556-1.659-.045-3.273-1.069-4.414-2.752-1.151-1.657-1.802-3.972-1.784-6.287-.018-2.325.633-4.64 1.792-6.297 1.133-1.683 2.747-2.707 4.406-2.742 1.659-.054 3.345.863 4.548 2.547 1.062 1.469 1.731 3.482 1.891 5.583.027.303.036.606.036.909z" fill="#101828"/>
    <path d="M243.135 199.208v.122a5.815 5.815 0 0 1-1.663 4.033 5.893 5.893 0 0 1-4.106 1.783 5.944 5.944 0 0 1-4.228-1.661 6.02 6.02 0 0 1-1.786-4.217 6 6 0 0 1 1.786-4.222 5.944 5.944 0 0 1 4.228-1.661 5.89 5.89 0 0 1 4.106 1.783 5.821 5.821 0 0 1 1.663 4.04z" fill="#101828"/>
    <path d="M150.357 312.677V179.201l-22.836-79.366h-18.98v212.842h41.816z" fill="#163C7A"/>
    <path opacity=".1" d="M150.357 312.677V179.201l-22.836-79.366h-18.98v212.842h41.816z" fill="#000"/>
    <path d="M91.637 312.676V179.2L68.8 99.834H49.82v212.842h41.817z" fill="#163C7A"/>
    <path opacity=".1" d="M91.637 312.676V179.2L68.8 99.834H49.82v212.842h41.817z" fill="#163C7A"/>
    <path opacity=".1" d="M83.778 179.2v133.475h-33.96V99.835H60.94L83.778 179.2z" fill="#1B1D3D"/>
    <path d="M150.357 179.2h-58.72v133.476h58.72V179.2z" fill="#2D56A2"/>
    <path d="m91.637 179.2-3.409-11.846h44.187l17.943 11.846H91.637z" fill="#517BBF"/>
    <path opacity=".3" d="m91.637 179.2-3.409-11.846h44.187l17.943 11.846H91.637z" fill="#fff"/>
    <path d="m119.292 123.23 8.229-23.395h-58.72l6.73 23.395h43.761z" fill="#517BBF"/>
    <path opacity=".1" d="m119.292 123.23 8.229-23.395h-58.72l6.73 23.395h43.761z" fill="#fff"/>
    <path d="m132.415 167.354-13.123-44.125h-43.76l12.696 44.125h44.187z" fill="#163C7A"/>
    <path opacity=".2" d="m132.415 167.354-13.123-44.125h-43.76l12.696 44.125h44.187z" fill="#000"/>
    <path d="m123.234 154.621-7.883-26.505H82.147l7.626 26.505h33.461zM101.711 159.322l-.598-2.01H90.586l.579 2.01h10.546zM124.856 159.322l-.599-2.01H113.73l.579 2.01h10.547zM119.899 130.127l-.598-2.011h-2.393l.579 2.011h2.412zM121.012 134.101l-.599-2.011h-2.392l.578 2.011h2.413zM123.236 142.047l-.598-2.011h-2.392l.578 2.011h2.412zM127.61 190.453l-11.344 14.808h6.984l-3.943 13.03 10.898-16.14h-6.969l4.374-11.698z" fill="#fff"/>
    <path d="M68.8 179.2h-6.525v13.201H68.8V179.2z" fill="#263238"/>
    <path d="M65.83 185.921h-3.705c-3.193 0-5.781 1.608-5.781 4.143v53.377c0 1.429 2.588 3.037 5.78 3.037H216.23c3.193 0 5.781-1.608 5.781-3.59v-38.235c0-1.982 2.588-5.374 5.781-5.374h9.595" stroke="#1B1D3D" stroke-width="5" stroke-miterlimit="10"/>
    <path d="M61.73 188.018v-4.368h3.596v4.368H61.73z" fill="#fff" stroke="#1B1D3D"/>
    <path d="M63.769 189.018v-6.367h3.189v6.367h-3.189zM232.008 200.737v-2.739h3.597v2.739h-3.597z" fill="#fff" stroke="#1B1D3D"/>
    <path d="M241.33 199.368a4.015 4.015 0 0 1-4.019 4.012 4.016 4.016 0 0 1-4.019-4.012 4.017 4.017 0 0 1 4.019-4.013 4.016 4.016 0 0 1 4.019 4.013z" fill="#fff" stroke="#1B1D3D"/>
    <path d="m371.838 242.542-22.727 18.34c-4.362 3.482-8.124 6.613-9.919 8.414-.01.008-.021.016-.028.029-.678.679-1.069 1.163-1.09 1.397-.003.019-.01.032-.007.048.159 1.998 27.01 37.615 28.365 38.542 1.354.937 4.108-2.857 4.171-5.069.054-2.223-4.115-20.446-4.115-20.446l22.528-18.535-17.178-22.72z" fill="#F7A9A0"/>
    <path d="M370.607 304.241c-.062 2.219-2.821 6.009-4.178 5.075-1.348-.934-28.2-36.55-28.365-38.543 0-.015.008-.031.008-.047.024-.241.413-.724 1.092-1.4a.069.069 0 0 1 .031-.032c1.037-1.042 2.744-2.537 4.848-4.28 5.409 10.204 21.35 31.701 23.665 33.997 1.863 1.837 1.138-3.806.553-7.246 1.13 5.207 2.37 11.254 2.346 12.476z" fill="#2D56A2"/>
    <path d="M384.121 220.702c-1.609 7.935-34.577 39.596-34.577 39.596l22.985 26.493s46.807-46.656 44.364-64.187c-2.125-15.25-24.988-76.574-24.988-76.574h-26.378s20.176 66.869 18.594 74.672z" fill="#1B1D3D"/>
    <path d="M375.143 280.492c-3.053-3.796-2.124-2.75-5.22-6.511-1.516-1.841-11.485-13.929-13.2-15.398-.038-.032-.101.021-.075.064 1.149 1.943 11.327 13.856 12.878 15.667 3.168 3.702 2.299 2.605 5.509 6.27.059.068.165-.02.108-.092zM388.655 218.089c-.378-1.981-.807-3.954-1.227-5.926a500.604 500.604 0 0 0-2.721-12.051 567.336 567.336 0 0 0-6.197-23.702c-2.249-7.883-4.625-15.751-7.362-23.48-.338-.955-.688-1.906-1.036-2.857-.027-.072-.139-.04-.115.034 2.37 7.743 4.814 15.463 7.036 23.249a664.523 664.523 0 0 1 6.193 23.381c.97 3.931 1.872 7.879 2.754 11.83a582.31 582.31 0 0 1 1.27 5.832c.419 1.973.981 3.99 1.105 6.009.121 1.984-.527 3.742-1.55 5.413-.989 1.615-2.153 3.135-3.277 4.658-2.253 3.052-23.722 26.942-24.414 27.591-.054.051.029.128.083.079 2.882-2.582 21.098-22.272 23.411-25.319a176.716 176.716 0 0 0 3.355-4.58c1.025-1.443 2.054-2.918 2.62-4.611.607-1.82.424-3.699.072-5.55z" fill="#263238"/>
    <path d="m386.485 146.032-2.622 69.792c-2.555-17.498-18.334-69.792-18.334-69.792h20.956z" fill="#475467"/>
    <path d="M376.031 275.24s5.694 27.686 5.693 27.707c.076 5.576.243 10.463.565 12.982 0 .014-.001.027.006.041.12.951.263 1.557.435 1.717.014.014.02.028.033.035 1.678 1.101 46.319 1.793 47.883 1.294 1.571-.493.263-4.993-1.448-6.4-1.724-1.407-18.69-9.305-18.69-9.305l-5.971-27.668-28.506-.403z" fill="#F7A9A0"/>
    <path d="M389.361 146.031c-.03.553-2.684 23.117-3.419 23.724-.834.684-5.47 3.782-6.875 4.637 0 0 12.645 39.332 15.998 52.446 4.862 19.012 16.508 76.05 16.508 76.05l-31.029-.005s-9.434-54.3-13.559-72.399c-3.536-15.517-17.082-62.069-17.082-62.069-2.97-12.401 1.097-22.384 1.097-22.384s38.365-.021 38.361 0z" fill="#1B1D3D"/>
    <path d="M387.318 168.615c-3.024 1.593-5.866 3.629-8.56 5.721-.106.082-.002.25.115.177 2.901-1.815 5.873-3.582 8.67-5.554.22-.155.007-.466-.225-.344zM384.948 147.212c-.025-.106-.217-.101-.199.015.599 3.68.867 6.959 1.091 10.451.104 1.622.19 10.656-2.686 10.443-.482-.036-.79-.456-.972-1.145-.219-.827-.062-1.908-.053-2.767a70.905 70.905 0 0 0-.151-5.684c-.246-3.534-.774-7.024-1.739-10.435-.031-.112-.195-.078-.177.038.754 4.828 1.377 9.666 1.397 14.559.01 2.352-.611 5.992 1.851 5.972 2.508-.019 3.193-6.061 3.245-7.692.149-4.553-.561-9.334-1.607-13.755z" fill="#667085"/>
    <path d="M383.265 168.346a14.989 14.989 0 0 0-.34 1.928c-.058.502-.158 1.052-.025 1.546.025.096.157.086.198.011.262-.463.312-1.048.418-1.565.123-.599.259-1.196.365-1.799.07-.399-.519-.511-.616-.121zM377.131 280.501a86.393 86.393 0 0 0-.281-2.148c-.194-1.373-.425-2.741-.636-4.112a365.129 365.129 0 0 0-1.386-8.243c-.973-5.471-2.098-10.925-3.283-16.353-.67-3.069-1.449-6.102-2.271-9.135-.057-.211-.356-.109-.318.096.499 2.775.98 5.552 1.549 8.315.566 2.753 1.132 5.508 1.68 8.265 1.084 5.451 2.093 10.916 3.173 16.368.305 1.539.582 3.082.882 4.622.15.768.306 1.535.471 2.3.165.762.403 1.513.529 2.283.012.072.121.039.11-.033-.121-.734-.134-1.486-.219-2.225zM398.331 238.622c-1.034-5.141-2.427-10.217-3.827-15.267-2.819-10.167-6.139-20.187-9.451-30.202-.954-2.886-5.679-17.879-5.969-18.619-.03-.074-.141-.042-.122.037.67 2.65 3.966 14.305 4.772 16.886 1.585 5.072 3.198 10.137 4.736 15.223 3.042 10.053 6.063 20.103 8.531 30.316.692 2.86 1.381 5.718 2.012 8.591.631 2.87 1.17 5.758 1.772 8.633.017.078.148.057.14-.023-.518-5.239-1.558-10.418-2.594-15.575zM379.043 265.514c-1.708-9.808-3.754-19.563-6.021-29.256a562.844 562.844 0 0 0-7.608-29.027c-2.794-9.605-5.891-19.125-9.217-28.56-1.576-4.472-3.18-8.952-4.214-13.587-1.023-4.582-1.542-9.538-.474-14.158a23.684 23.684 0 0 1 1.061-3.442c.032-.077-.081-.142-.116-.064-3.731 8.682-1.31 18.18 1.532 26.74 1.556 4.689 3.217 9.343 4.752 14.041a565.053 565.053 0 0 1 4.531 14.527c2.863 9.635 5.522 19.328 7.903 29.094a576.383 576.383 0 0 1 6.369 29.465c1.873 9.91 3.448 19.861 5.044 29.817.208 1.295.372 2.597.542 3.898.01.072.124.071.115-.003-1.196-9.865-2.493-19.692-4.199-29.485z" fill="#667085"/>
    <path d="M379.67 108.421c2.317 5.587 20.576 32.557 30.091 32.511 9.804-.048 26.322-17.892 28.738-20.071 3.171-2.859-11.941-17.956-14.484-14.6-4.366 5.762-12.425 13.508-14.289 13.472-2.658-.051-16.436-11.011-25.233-16.894-5.31-3.55-7.388-.6-4.823 5.582z" fill="#FDADA0"/>
    <path d="M447.252 110.953c-1.773 3.862-8.492 10.346-10.716 11.287-2.224.942-13.643-10.099-13.368-12.559.274-2.46 7.251-15.003 11.131-16.95 3.879-1.948 14.789 14.22 12.953 18.222z" fill="#FDADA0"/>
    <path d="M423.98 107.335s.342-5.516-1-10.198c-1.128-3.936-3.248-9.653-1.151-10.338 4.305-1.406 9.587 12.855 9.587 12.855s1.319 6.665-2.822 8.436c-2.598 1.109-4.614-.755-4.614-.755z" fill="#FDADA0"/>
    <path d="M428.934 96.923c.257 2.236 2.75.654 2.75.654s-3.038 3.141-1.88 5.345c1.122 2.12 4.065.103 4.278-.04-.159.168-2.875 3.127-1.484 5.223 1.448 2.175 4.055-.357 4.223-.521-.101.204-1.385 2.943.035 4.294 2.441 2.321 5.919-4.59 8.544-5.337 0 0 1.775 4.297 1.853 4.411 0 0 3.444-6.508 2.237-9.986-.636-1.834-2.474-1.604-2.474-1.604s1.343-1.976.299-3.66c-.538-.862-2.399-.77-2.399-.77s1.009-1.627-.013-3.067c-.812-1.151-2.553-.88-2.553-.88s.243-2.011-.969-2.919c-2.441-1.834-12.992 4.067-12.447 8.857z" fill="#FDADA0"/>
    <path d="M442.068 90.986c.037-.017.021-.072-.019-.06-3.945 1.095-7.942 3.504-10.509 6.721-.085.105.051.288.166.19 3.279-2.81 6.415-5.043 10.362-6.851zM444.956 94.882c.043-.02.011-.09-.037-.076-4.058 1.15-8.486 3.988-11.007 8.043-.087.139-.024.351.087.198 1.881-2.569 7.395-6.555 10.957-8.165zM436.742 107.928c2.568-3.796 6.096-6.386 10.103-8.528.052-.028.007-.099-.043-.087-2.246.514-4.657 2.145-6.427 3.572-1.693 1.367-2.947 2.94-3.766 4.953-.032.078.079.171.133.09z" fill="#101828"/>
    <path d="M431.607 97.572c-.101.128.195.135.099.265-.407.546-2.577 4.045-1.613 5.152.775.887 2.505.462 3.105.039l1.51-1.064-1.048 1.524c-.457.665-.846 1.432-1.06 2.205-.216.771-.225 1.597.177 2.202.408.64 1.093.942 1.807.717.715-.193 1.416-.715 1.965-1.273l1.534-1.561-.934 1.967a7.115 7.115 0 0 0-.564 1.721c-.103.586-.112 1.197.11 1.684.216.479.697.845 1.2.845.528.008 1.096-.292 1.604-.626 1.03-.696 1.925-1.623 2.856-2.498.464-.441.929-.886 1.416-1.308.489-.409 1-.846 1.627-1.02-.601.237-1.048.715-1.506 1.15-.448.454-.875.929-1.304 1.405-.857.952-1.731 1.901-2.784 2.703-.535.379-1.129.771-1.9.812-.796.035-1.507-.502-1.817-1.178-.32-.688-.296-1.421-.194-2.085a7.748 7.748 0 0 1 .6-1.927l.6.407c-.643.665-1.357 1.238-2.307 1.527-.468.14-1.028.141-1.514-.074-.489-.212-.854-.573-1.121-.991-.55-.873-.48-1.931-.226-2.788.264-.88.677-1.664 1.204-2.408l.462.461c-.781.512-2.663 1.198-4.038-.027-1.552-1.863 1.457-5.358 2.054-5.958z" fill="#101828"/>
    <path d="M431.684 97.576c-.462.167-.928.287-1.35.3-.423.017-.775-.155-.96-.45-.194-.294-.222-.745-.206-1.192.029-.453.084-.927.16-1.415a3.593 3.593 0 0 0-.647 1.341c-.115.489-.158 1.065.161 1.603.178.255.418.452.702.559.287.097.585.102.85.04.531-.114.96-.418 1.29-.785z" fill="#101828"/>
    <path d="m388.627 124.706 6.492-15.244s-6.671-4.995-10.753-7.239c-5.402-2.97-7.772-1.663-5.187 5.43 1.73 4.746 9.448 17.053 9.448 17.053z" fill="#2D56A2"/>
    <path d="M378.745 104.404a.594.594 0 0 1-.382.545 10.295 10.295 0 0 1-.187-1.137.593.593 0 0 1 .569.592zm5.134-.59a.586.586 0 1 0-.001 1.173.586.586 0 0 0 .001-1.173zm0 8.848a.587.587 0 1 0 0 1.174.587.587 0 0 0 0-1.174zm5.719 0a.587.587 0 1 0 .002 1.174.587.587 0 0 0-.002-1.174zm-8.578-4.43a.587.587 0 1 0 0 1.174.587.587 0 0 0 0-1.174zm5.719 0a.587.587 0 1 0 0 1.174.587.587 0 0 0 0-1.174zm5.72 0a.587.587 0 1 0 0 1.174.587.587 0 0 0 0-1.174zm-2.864 13.28a.583.583 0 0 0-.584.584c0 .288.21.529.483.568l.444-1.042a.591.591 0 0 0-.343-.11zm-2.856-4.432a.586.586 0 1 0-.001 1.173.586.586 0 0 0 .001-1.173z" fill="#fff"/>
    <path d="m393.515 113.226-4.887 11.48s-7.716-12.305-9.447-17.053c-1.193-3.261-1.334-5.292-.616-6.257 1.956 1.673 10.04 8.001 14.95 11.83z" fill="#2D56A2"/>
    <path d="M387.527 121.725c.76-2.197 1.551-4.377 2.441-6.526.443-1.072.902-2.137 1.377-3.195.476-1.056 1.061-2.067 1.52-3.128.025-.058.118-.014.089.044-.513 1.033-.892 2.149-1.348 3.211a298.341 298.341 0 0 0-1.358 3.204c-.892 2.137-1.789 4.276-2.632 6.432-.023.061-.11.016-.089-.042z" fill="#101828"/>
    <path d="m392.307 132.34 1.344 15.196s-33.935-.283-43.103-1.366c0 0 7.26-33.013 17.659-43.268 5.201-5.128 10.99-4.452 14.513-.528.892.993 11.367 13.936 12.277 19.626.791 5.021-2.69 10.34-2.69 10.34z" fill="#2D56A2"/>
    <path d="M389.726 133.279a14.79 14.79 0 0 0-3.318-.099c-.521.044-1.048.09-1.562.194-.58.116-1.147.28-1.725.4-.096.02-.052.166.045.146.569-.118 1.156-.16 1.735-.206.528-.042 1.053-.114 1.581-.153a140.12 140.12 0 0 1 3.236-.206c.04-.003.052-.069.008-.076zM390.185 130.942c-2.487.103-4.876.463-7.268 1.158-2.452.713-4.909 1.676-7.456 1.976-.097.012-.095.163.003.153a81.544 81.544 0 0 0 3.654-.458c1.215-.189 2.406-.487 3.605-.752 2.507-.553 4.931-1.49 7.466-1.886.118-.02.123-.197-.004-.191z" fill="#101828"/>
    <path d="M367.311 104.403a.59.59 0 0 1-.881.507c.242-.312.492-.608.733-.895.093.1.148.24.148.388zm5.129-.59a.586.586 0 1 0 0 1.172.586.586 0 0 0 0-1.172zm5.72 0a.586.586 0 1 0-.001 1.173.586.586 0 0 0 .001-1.173zm5.737-.001h-.015a.59.59 0 0 0-.592.591.59.59 0 0 0 .592.584c.288 0 .53-.21.569-.483a40.748 40.748 0 0 0-.554-.692zm-8.596-4.428a.587.587 0 1 0 0 1.173.587.587 0 0 0 0-1.173zm-13.767 13.62c-.133.264-.257.537-.39.809a.578.578 0 0 0 .445-.568.5.5 0 0 0-.055-.241zm5.187-.343a.587.587 0 1 0 0 1.174.587.587 0 0 0 0-1.174zm5.719 0a.587.587 0 1 0 .002 1.174.587.587 0 0 0-.002-1.174zm5.72 0a.587.587 0 1 0 0 1.174.587.587 0 0 0 0-1.174zm5.719 0a.587.587 0 1 0 0 1.174.587.587 0 0 0 0-1.174zm5.719 0a.587.587 0 1 0 .002 1.174.587.587 0 0 0-.002-1.174zm-25.491-4.374c-.202.327-.398.654-.592.997a.584.584 0 1 0 .592-.997zm5.474-.056a.587.587 0 1 0 0 1.174.587.587 0 0 0 0-1.174zm5.72 0a.587.587 0 1 0 0 1.174.587.587 0 0 0 0-1.174zm5.719 0a.587.587 0 1 0 0 1.174.587.587 0 0 0 0-1.174zm5.719 0a.587.587 0 1 0 0 1.174.587.587 0 0 0 0-1.174zm-25.737 13.277a.587.587 0 1 0 0 1.174.587.587 0 0 0 0-1.174zm5.719 0a.587.587 0 1 0 0 1.174.587.587 0 0 0 0-1.174zm5.719 0a.587.587 0 1 0 .002 1.174.587.587 0 0 0-.002-1.174zm5.72 0a.587.587 0 1 0 0 1.174.587.587 0 0 0 0-1.174zm5.719 0a.587.587 0 1 0 0 1.174.587.587 0 0 0 0-1.174zm5.719 0a.587.587 0 1 0 .002 1.174.587.587 0 0 0-.002-1.174zm5.399.494a2.955 2.955 0 0 0-.071-.343.579.579 0 0 0 .14.958 7.976 7.976 0 0 0-.069-.615zm-31.135-4.923a.586.586 0 1 0-.001 1.173.586.586 0 0 0 .001-1.173zm5.719 0a.586.586 0 1 0-.001 1.173.586.586 0 0 0 .001-1.173zm5.72 0a.586.586 0 1 0-.001 1.173.586.586 0 0 0 .001-1.173zm5.719 0a.586.586 0 1 0-.001 1.173.586.586 0 0 0 .001-1.173zm5.719 0a.586.586 0 1 0-.001 1.173.586.586 0 0 0 .001-1.173zm5.72 0a.586.586 0 1 0-.001 1.173.586.586 0 0 0 .001-1.173zm-37.177 13.277a.587.587 0 1 0 .002 1.174.587.587 0 0 0-.002-1.174zm5.72 0a.587.587 0 1 0 0 1.174.587.587 0 0 0 0-1.174zm5.719 0a.587.587 0 1 0 0 1.174.587.587 0 0 0 0-1.174zm5.719 0a.587.587 0 1 0 .002 1.174.587.587 0 0 0-.002-1.174zm5.72 0a.587.587 0 1 0 0 1.174.587.587 0 0 0 0-1.174zm5.719 0a.587.587 0 1 0 0 1.174.587.587 0 0 0 0-1.174zm5.719 0a.587.587 0 1 0 .002 1.174.587.587 0 0 0-.002-1.174zm-31.456-4.43a.586.586 0 1 0-.002 1.172.586.586 0 0 0 .002-1.172zm5.72 0a.586.586 0 1 0-.002 1.172.586.586 0 0 0 .002-1.172zm5.719 0a.586.586 0 1 0-.002 1.172.586.586 0 0 0 .002-1.172zm5.72 0a.586.586 0 1 0-.002 1.172.586.586 0 0 0 .002-1.172zm5.719 0a.586.586 0 1 0-.002 1.172.586.586 0 0 0 .002-1.172zm5.719 0a.586.586 0 1 0-.002 1.172.586.586 0 0 0 .002-1.172zm5.72 0a.586.586 0 1 0-.002 1.172.586.586 0 0 0 .002-1.172zm-37.177 13.277a.586.586 0 1 0 0 1.172.586.586 0 0 0 0-1.172zm5.72 0a.586.586 0 1 0-.001 1.173.586.586 0 0 0 .001-1.173zm5.719 0a.586.586 0 1 0-.001 1.173.586.586 0 0 0 .001-1.173zm5.719 0a.586.586 0 1 0 0 1.172.586.586 0 0 0 0-1.172zm5.72 0a.586.586 0 1 0-.001 1.173.586.586 0 0 0 .001-1.173zm5.719 0a.586.586 0 1 0-.001 1.173.586.586 0 0 0 .001-1.173zm5.719 0a.586.586 0 1 0 0 1.172.586.586 0 0 0 0-1.172zm-31.456-4.43a.586.586 0 1 0-.001 1.173.586.586 0 0 0 .001-1.173zm5.72 0a.586.586 0 1 0-.001 1.173.586.586 0 0 0 .001-1.173zm5.719 0a.586.586 0 1 0-.001 1.173.586.586 0 0 0 .001-1.173zm5.72 0a.586.586 0 1 0-.001 1.173.586.586 0 0 0 .001-1.173zm5.719 0a.586.586 0 1 0-.001 1.173.586.586 0 0 0 .001-1.173zm5.719 0a.586.586 0 1 0-.001 1.173.586.586 0 0 0 .001-1.173zm5.787.009c-.023-.008-.046-.008-.07-.008a.583.583 0 1 0 0 1.168.418.418 0 0 0 .164-.031l-.094-1.129zm-40.104 8.839a.587.587 0 1 0 0 1.174.587.587 0 0 0 0-1.174zm5.72 0a.586.586 0 1 0-.001 1.173.586.586 0 0 0 .001-1.173zm5.72 0a.586.586 0 1 0-.001 1.173.586.586 0 0 0 .001-1.173zm5.719 0a.586.586 0 1 0-.001 1.173.586.586 0 0 0 .001-1.173zm5.72 0a.586.586 0 1 0-.001 1.173.586.586 0 0 0 .001-1.173zm5.719 0a.586.586 0 1 0-.001 1.173.586.586 0 0 0 .001-1.173zm5.719 0a.586.586 0 1 0-.001 1.173.586.586 0 0 0 .001-1.173zm5.72 0a.586.586 0 1 0-.001 1.173.586.586 0 0 0 .001-1.173z" fill="#fff"/>
    <path d="M366.976 102.937c-9.899 7.354-30.883 25.851-27.921 32.171 4.869 10.39 20.498 22.731 25.56 25.941 2.185 1.386 15.566-13.579 13.718-15.636-2.217-2.468-19.108-13.586-18.555-15.186.313-.906 7.59-12.263 12.272-21.619 5.43-10.854-1.68-8.191-5.074-5.671z" fill="#FDADA0"/>
    <path d="M369.984 141.754s7.872-.082 13.023.106c2.873.105 7.784.724 9.859 1.765 3.104 1.558 15.092 10.052 13.093 12.999-1.811 2.667-11.182-5.937-11.182-5.937s10.225 7.847 7.454 10.658c-2.771 2.812-12.065-8.315-12.065-8.315s10.325 8.297 7.008 10.745c-2.507 1.85-11.493-7.753-11.493-7.753s8.825 7.192 6.33 9.206c-2.758 2.225-11.61-6.121-11.61-6.121-7.207 4.052-13.313 3.83-16.436 1.516-.724-.533 6.019-18.869 6.019-18.869z" fill="#FDADA0"/>
    <path d="M391.887 148.134c7.974 5.206 10.286 10.198 10.198 10.078-2.088-2.839-6.157-6.429-7.31-7.414-1.149-.983-1.778-1.638-2.928-2.622-.029-.024.009-.061.04-.042zM387.778 151.838c3.935 2.219 7.627 5.99 8.694 7.487.087.122.015.127-.095.027-1.432-1.293-7.144-6.262-8.63-7.48-.024-.019.006-.048.031-.034zM384.025 154.788c3.369 2.249 4.651 3.596 6.559 5.995.092.115-.02.124-.129.02-2.143-2.034-3.81-3.645-6.49-5.931-.042-.036.008-.119.06-.084z" fill="#263238"/>
    <path d="m352.271 113.763 16.037 4.239s3.999-7.306 5.64-11.661c2.172-5.762.538-7.918-6.123-4.351-4.457 2.387-15.554 11.773-15.554 11.773z" fill="#2D56A2"/>
    <path d="M367.308 104.399a.586.586 0 1 1-1.173 0 .586.586 0 0 1 1.173 0zm5.132-.586a.586.586 0 1 0-.001 1.173.586.586 0 0 0 .001-1.173zm-17.158 8.848a.587.587 0 1 0 0 1.174.587.587 0 0 0 0-1.174zm5.719 0a.587.587 0 1 0 .002 1.174.587.587 0 0 0-.002-1.174zm5.72 0a.587.587 0 1 0 0 1.174.587.587 0 0 0 0-1.174zm-8.063-4.109c-.304.241-.6.475-.889.708a.53.53 0 0 0 .374.14.583.583 0 0 0 .584-.584.503.503 0 0 0-.069-.264zm5.204-.321a.587.587 0 1 0 0 1.174.587.587 0 0 0 0-1.174zm5.719 0a.587.587 0 1 0 0 1.174.587.587 0 0 0 0-1.174z" fill="#fff"/>
    <path d="M366.351 117.491c.18.014 1.842.395 1.953.457.449-.871.886-1.749 1.344-2.615.229-.433.466-.863.709-1.288.268-.469.547-1.016.784-1.43.037-.065.123-.025.092.044-.253.57-.461.985-.684 1.478-.199.439-.41.875-.627 1.305-.463.909-.916 1.899-1.423 2.784-.039.069-2.004-.601-2.167-.678-.027-.015-.01-.06.019-.057z" fill="#101828"/>
    <path d="M355.069 112.249c2.286.438 4.56.908 6.817 1.48 1.125.285 2.246.587 3.363.906 1.114.319 2.2.753 3.317 1.055.062.017.031.114-.03.095-1.099-.36-2.258-.575-3.376-.874-1.122-.3-2.244-.596-3.369-.884-2.246-.577-4.493-1.158-6.752-1.684-.062-.014-.031-.106.03-.094z" fill="#101828"/>
    <path d="M372.969 101.682c.253.704 4.253 5.001 7.546 4.464 1.072-.177.368-6.063.368-6.063l.047-.446.66-6.25-7.697-3.765-1.106-.49s-.068 1.722-.13 3.868c-.004.1-.007.198-.009.305-.006.121-.014.236-.015.35-.014.32-.026.647-.031.972-.006.249-.012.49-.008.75-.002.262 0 .516-.002.778.028 2.58.274 5.228.377 5.527z" fill="#F7A9A0"/>
    <path d="M372.658 93c2.308 4.647 6.415 6.177 8.274 6.638l.66-6.25-7.698-3.765-1.106-.49s-.067 1.722-.13 3.868z" fill="#CD9089"/>
    <path d="M385.928 93.011c.144.261.241.546.275.845.153 1.351-.678 2.547-1.595 3.439-.987.95-2.26 1.74-2.895 2.991-.249.489-.387 1.053-.246 1.59.159.607.657.99 1.192 1.261.562.287 1.292.505 1.594 1.115.252.504.117 1.118-.14 1.595-.666 1.235-2.221 1.642-3.265 2.478a7.105 7.105 0 0 0-2.359 3.479c-.391 1.277-.373 2.663.003 3.94a6.81 6.81 0 0 0 .806 1.775c.397.609.92 1.121 1.344 1.712.392.55.726 1.245.571 1.936-.118.534-1.528 1.977-3.973 2.341-.176.026-.116.339.071.377a8.44 8.44 0 0 0 1.082.165c3.025.28 6.065-.921 8.052-3.224a9.877 9.877 0 0 0 2.139-4.285c.196-.874.324-1.778.666-2.613.307-.743.81-1.353 1.418-1.873 1.16-.985 2.54-1.68 3.526-2.865.877-1.06 1.448-2.35 1.715-3.694.551-2.817-.227-5.721-1.994-7.964-1.743-2.21-8.064-4.667-7.987-4.52z" fill="#101828"/>
    <path d="M385.972 93.093c.221.544.392 1.122.349 1.716-.038.535-.241 1.045-.53 1.493-.65 1.008-1.648 1.66-2.612 2.333-.906.634-1.833 1.352-2.224 2.425-.166.454-.241.967-.134 1.443.121.54.479.944.935 1.242.829.544 2.049.965 2.185 2.106.132 1.102-.929 1.927-1.691 2.531-1.861 1.472-4.491 3.105-4.403 5.813.044 1.369.661 2.767 1.342 3.933.491.842 1.119 1.903.746 2.903-.015.037-.068.008-.055-.028.38-1.063-.436-2.018-.974-2.858-.63-.985-1.146-2.107-1.357-3.263-.218-1.19.073-2.338.733-3.344.671-1.021 1.609-1.806 2.576-2.536.496-.374 1.001-.738 1.485-1.127.437-.35.882-.74 1.129-1.253.264-.547.143-1.114-.274-1.545-.409-.422-.949-.656-1.441-.961-.44-.272-.842-.604-1.069-1.079a2.425 2.425 0 0 1-.212-1.223c.069-.958.577-1.814 1.265-2.464.977-.92 2.231-1.49 3.191-2.428.491-.48.924-1.06 1.098-1.731.182-.708-.011-1.37-.2-2.051-.023-.094.107-.134.142-.047zM395.15 97.767c1.821 2.226 2.082 5.37 1.044 7.993-.581 1.47-1.546 2.742-2.729 3.782-1.105.97-2.367 1.81-3.246 3.008-.973 1.325-1.045 2.947-1.351 4.504a8.84 8.84 0 0 1-1.509 3.486c-1.442 2.001-3.698 3.405-6.138 3.784a9.565 9.565 0 0 1-.938.101c-.039.002-.043-.059-.003-.062 2.479-.161 4.791-1.504 6.341-3.415a8.858 8.858 0 0 0 1.668-3.194c.402-1.443.372-2.987.967-4.378.557-1.305 1.664-2.252 2.744-3.122 1.18-.95 2.339-1.894 3.148-3.197 1.504-2.418 1.769-5.55.383-8.084-1.547-2.828-4.617-4.187-7.56-5.086-.393-.12-.788-.238-1.183-.354-.044-.013-.031-.083.015-.072 3.04.765 6.289 1.79 8.347 4.306z" fill="#101828"/>
    <path d="M385.843 92.042c.485-.042 1.131.272 1.236.58.105.31-.761 2.696-1.347 2.93-.586.235-1.174-.77-1.174-.77l1.285-2.74z" fill="#FFC727"/>
    <path d="M389.691 84.284c.72 11.006-5.8 12.678-8.176 12.83-2.157.138-9.521.336-11.376-10.537-1.854-10.871 3.042-14.685 7.959-15.262 4.919-.576 10.875 1.964 11.593 12.97z" fill="#F7A9A0"/>
    <path d="M386.59 81.514c-.26-.027-.494-.096-.748-.15-.286-.06-.521-.078-.734-.297-.114-.118-.108-.357-.004-.48.241-.283.61-.295.958-.236.377.064.652.21.903.496.244.278-.034.703-.375.668zM379.055 83.09c.259-.033.493-.106.745-.165.285-.066.519-.09.728-.312.111-.12.1-.36-.006-.48-.247-.278-.616-.283-.962-.217a1.438 1.438 0 0 0-.894.514c-.238.283.048.703.389.66zM380.554 84.968c-.007-.029-.058.037-.055.068.049.75-.022 1.616-.693 1.888-.021.008-.017.046.008.041.825-.143.907-1.294.74-1.997z" fill="#101828"/>
    <path d="M379.857 84.207c-1.212-.052-1.225 2.372-.102 2.42 1.104.047 1.118-2.377.102-2.42z" fill="#101828"/>
    <path d="M379.38 84.333c-.213.135-.422.376-.678.4-.296.028-.518-.228-.71-.473-.02-.025-.041-.004-.042.028-.01.464.167.942.665 1.014.454.066.783-.344.902-.81.023-.086-.052-.215-.137-.16zM385.161 84.772c.006-.029.058.036.057.066-.034.75.053 1.616.73 1.875.021.008.019.046-.007.042-.828-.128-.933-1.278-.78-1.983z" fill="#101828"/>
    <path d="M385.842 83.996c1.211-.076 1.273 2.347.152 2.418-1.105.068-1.167-2.355-.152-2.418z" fill="#101828"/>
    <path d="M386.352 84.142c.195.124.39.352.62.362.265.01.455-.256.618-.512.017-.027.037-.007.039.026.025.463-.117.95-.56 1.049-.404.092-.714-.298-.836-.757-.022-.086.04-.217.119-.168zM380.966 90.983c.17.185.338.435.609.472.26.036.572-.066.817-.147.024-.009.047.018.03.04-.21.278-.63.437-.974.359-.337-.077-.49-.379-.556-.694-.009-.044.049-.057.074-.03zM384.363 88.12s.162 1.12.165 1.649c0 .05-.128.074-.308.085-.009.003-.013.007-.021.001-.934.151-1.878-.166-2.451-.924-.038-.052.029-.106.078-.074.701.508 1.474.635 2.304.644.036-.147-.342-1.91-.258-1.917.29-.026.862.167 1.205.266-.269-2.344-.913-4.626-1.147-6.964-.007-.084.113-.11.138-.035.845 2.344 1.214 5.034 1.555 7.448.045.3-1.047-.091-1.26-.18z" fill="#101828"/>
    <path d="M384.072 89.76s-.496.703-1.193.97a1.362 1.362 0 0 1-.827.07c-.604-.143-.632-.691-.533-1.165.081-.39.252-.727.252-.727s.894.799 2.301.852z" fill="#101828"/>
    <path d="M382.878 90.73a1.362 1.362 0 0 1-.827.07c-.604-.143-.632-.691-.533-1.165.645.05 1.292.472 1.36 1.094z" fill="#FF9CBD"/>
    <path d="M370.636 87.491c2.412-1.152 2.504-3.681 2.504-3.681 2.996-1.3 4.607-3.645 4.774-3.883-.072.225-.592 1.855-.884 2.676 6.935-1.335 9.052-6.651 9.052-6.651 2.264 2.23 2.722 3.662 3.052 4.377 0 0 .027-4.254-2.18-7.088-2.699-3.472-11.754-4.362-15.917.21-4.481 4.93-.401 14.04-.401 14.04z" fill="#101828"/>
    <path d="M382.3 81.426c-1.102.628-2.329 1.055-3.553 1.326-.01.002-.012-.013-.002-.016 1.952-.564 3.703-1.597 5.078-3.105a10.33 10.33 0 0 0 1.487-2.1c.424-.795.836-1.742.907-2.648.005-.068.112-.06.107.01-.075.957-.155 1.84-.536 2.734a7.616 7.616 0 0 1-1.529 2.304 8.77 8.77 0 0 1-1.959 1.495z" fill="#101828"/>
    <path d="M371.946 87.309s-2.337-3.493-3.919-2.668c-1.582.824.123 5.852 1.945 6.574 1.821.721 2.523-.95 2.523-.95l-.549-2.956z" fill="#F7A9A0"/>
    <path d="M368.552 86.07c-.029-.004-.036.038-.011.049 1.277.548 1.929 1.754 2.377 3-.373-.483-.888-.754-1.536-.314-.034.023-.003.077.033.07.529-.102.907-.002 1.255.427.246.304.41.685.583 1.034.058.117.267.059.226-.074l-.01-.03c.068-1.64-1.158-3.96-2.917-4.162z" fill="#101828"/>
    <path d="M372.492 90.264s-.281.672-.954.975c-.102.055-.214.09-.341.12-.237.049-.51.052-.826-.017a4.208 4.208 0 0 1-.377-.119c-.008-.006-.016-.004-.024-.01-1.817-.723-3.529-5.749-1.94-6.57 1.58-.826 3.917 2.669 3.917 2.669l.545 2.952z" fill="#F7A9A0"/>
    <path d="M368.552 86.07c-.029-.004-.036.038-.011.049 1.277.548 1.929 1.754 2.377 3-.373-.483-.888-.754-1.536-.314-.034.023-.003.077.033.07.529-.102.907-.002 1.255.427.246.304.41.685.583 1.034.058.117.267.059.226-.074l-.01-.03c.068-1.64-1.158-3.96-2.917-4.162z" fill="#101828"/>
    <path d="M371.8 92.215c.089.502.112.964.062 1.313-.08.599-.347.765-.555.801a.568.568 0 0 1-.474-.124c-.653-.513-.81-2.528-.838-2.982.135.05.26.087.376.118.059.752.255 2.235.686 2.58.061.048.122.06.187.048.179-.032.289-.376.278-.9a5.524 5.524 0 0 0-.325-1.712c-.137-.398-.296-.665-.394-.677a.18.18 0 0 1-.211-.148.19.19 0 0 1 .148-.211c.338-.06.61.388.8.917.123.328.209.69.26.977z" fill="#EB4F29"/>
</svg>
