<svg width="87" height="120" viewBox="0 0 87 120" fill="none" xmlns="http://www.w3.org/2000/svg">
    <g clip-path="url(#q84bqw30sa)">
        <path d="M61.845 38.93a11.39 11.39 0 0 0-8.105-3.382h-2.93V0L23.967 32.245l-.072.093a11.29 11.29 0 0 0 9.06 18.03v-5.306a5.989 5.989 0 0 1-5.984-5.984 5.82 5.82 0 0 1 1.39-3.818l17.14-20.592v20.88h-3.377a6.111 6.111 0 0 0-6.111 6.112V50.35h8.672a6.112 6.112 0 0 0 6.112-6.112v-3.384h2.962a6.042 6.042 0 0 1 6.074 5.951c.01.93-.2 1.848-.614 2.68a6.01 6.01 0 0 1-.768 1.165L41.325 71.248v-17.77h-5.317v32.437L62.86 53.673l.076-.096A11.196 11.196 0 0 0 61.86 38.93h-.014zM45.5 44.25a.812.812 0 0 1-.809.812h-3.367v-3.396a.812.812 0 0 1 .812-.812h3.376L45.5 44.25z" fill="url(#91casuf29b)"/>
        <path d="m12.805 100.223-5.113 16.023H5.105L0 100.223h3.388l3.014 10.599 3.027-10.599h3.376zM12.613 111.278v-2.22c0-1.717.433-2.998 1.327-3.845.893-.846 2.084-1.236 3.617-1.236 1.534 0 2.7.413 3.571 1.236.87.824 1.327 2.128 1.327 3.845v2.22c0 1.746-.436 3.021-1.327 3.868-.89.847-2.06 1.237-3.57 1.237-1.511 0-2.748-.411-3.618-1.237-.87-.827-1.327-2.127-1.327-3.868zm4.947-4.554c-1.283 0-1.9.777-1.9 2.38v2.151c0 1.604.617 2.381 1.9 2.381 1.234 0 1.854-.777 1.854-2.381v-2.151c-.003-1.603-.623-2.38-1.857-2.38h.003zM24.492 112.515v-12.292h3.068v12.112c-.037.337.043.676.227.96a.972.972 0 0 0 .78.277h1.073v2.677H28.23c-1.164 0-2.08-.32-2.747-.96-.67-.669-.99-1.583-.99-2.774zM36.142 113.611h1.007v2.634h-1.455c-1.124 0-2.017-.32-2.657-.96a3.44 3.44 0 0 1-.984-2.588v-6.364h-1.647v-2.221h1.647v-2.31l3.044-1.054v3.364h2.29v2.221h-2.29v6.181c-.009.754.335 1.097 1.045 1.097z" fill="#1B1D3D"/>
        <path d="M50.652 106.747v2.838h-5.998v3.824h7.028v2.837H41.427v-16.023h10.255v2.84h-7.028v3.684h5.998zM53.286 111.348v-2.357c0-1.694.364-2.93 1.12-3.754a3.698 3.698 0 0 1 2.91-1.26 3.304 3.304 0 0 1 2.655 1.144v-4.898h3.044v16.023h-2.998v-.916a3.506 3.506 0 0 1-2.677 1.053 3.724 3.724 0 0 1-2.91-1.26c-.757-.844-1.144-2.081-1.144-3.775zm6.694-.093v-2.15a2.856 2.856 0 0 0-.48-1.784 1.633 1.633 0 0 0-1.35-.582c-1.191 0-1.785.777-1.785 2.38v2.151c0 1.603.582 2.38 1.714 2.38a1.692 1.692 0 0 0 1.397-.582c.332-.442.492-1.024.492-1.813h.012zM65.21 116.313h2.93a1.268 1.268 0 0 0 .582.894c.367.235.8.347 1.234.32 1.237 0 1.833-.687 1.833-2.081v-1.164a3.483 3.483 0 0 1-2.68 1.051 3.73 3.73 0 0 1-2.91-1.257c-.754-.847-1.144-2.084-1.144-3.784v-1.304c0-1.693.367-2.93 1.123-3.754a3.693 3.693 0 0 1 2.91-1.26 3.312 3.312 0 0 1 2.657 1.144v-1.007h3.048v11.149c0 1.441-.437 2.619-1.327 3.454-.89.836-2.06 1.284-3.618 1.284-1.42 0-2.517-.32-3.317-.94a3.516 3.516 0 0 1-1.322-2.745zm6.524-6.111v-1.097a2.856 2.856 0 0 0-.48-1.784 1.632 1.632 0 0 0-1.35-.582c-1.19 0-1.787.777-1.787 2.38v1.1c0 1.601.582 2.378 1.717 2.378a1.693 1.693 0 0 0 1.397-.582c.343-.439.503-1.033.503-1.81v-.003zM79.86 111.14v.207c0 .873.183 1.455.55 1.807a2.243 2.243 0 0 0 1.623.55c.446.026.889-.095 1.26-.343a1.123 1.123 0 0 0 .48-.917l.047-.16h2.91v.23a3.492 3.492 0 0 1-1.304 2.814c-.847.687-2.014 1.054-3.492 1.054-1.557 0-2.794-.457-3.707-1.351-.914-.893-1.397-2.287-1.397-4.152v-1.441c0-1.807.433-3.181 1.327-4.098.893-.916 2.127-1.373 3.684-1.373 1.51 0 2.747.457 3.64 1.397.894.94 1.351 2.287 1.351 4.074v1.694l-6.973.008zm.503-3.984c-.32.367-.504.964-.504 1.811h3.891v-.184c0-1.455-.617-2.15-1.924-2.15a1.962 1.962 0 0 0-1.463.523z" fill="#6BC4EF"/>
        <path d="M50.807 18.994H45.5v16.553h5.306V18.994z" fill="url(#vzpnple04c)"/>
        <path d="M36.02 50.367v-3.443l4.255-1.862h4.432a.812.812 0 0 0 .81-.812v-3.385h5.307v3.385a6.112 6.112 0 0 1-6.111 6.111l-8.693.006z" fill="url(#5gjf6wu2jd)"/>
    </g>
    <defs>
        <linearGradient id="91casuf29b" x1="54.38" y1="74.967" x2="37.277" y2="25.069" gradientUnits="userSpaceOnUse">
            <stop stop-color="#2D56A2"/>
            <stop offset=".51" stop-color="#6BC4EF"/>
            <stop offset=".57" stop-color="#A5D9EB"/>
        </linearGradient>
        <linearGradient id="vzpnple04c" x1="48.156" y1="36.685" x2="48.156" y2="21.244" gradientUnits="userSpaceOnUse">
            <stop stop-color="#2D56A2"/>
            <stop offset=".51" stop-color="#6BC4EF"/>
            <stop offset="1" stop-color="#A5D9EB"/>
        </linearGradient>
        <linearGradient id="5gjf6wu2jd" x1="51.354" y1="41.503" x2="39.585" y2="49.887" gradientUnits="userSpaceOnUse">
            <stop stop-color="#2D56A2"/>
            <stop offset=".51" stop-color="#6BC4EF"/>
            <stop offset=".78" stop-color="#A5D9EB"/>
        </linearGradient>
        <clipPath id="q84bqw30sa">
            <path fill="#fff" d="M0 0h86.818v120H0z"/>
        </clipPath>
    </defs>
</svg>
