<svg width="34" height="60" viewBox="0 0 34 60" fill="none" xmlns="http://www.w3.org/2000/svg">
    <g clip-path="url(#3dxf3ufbxa)">
        <path d="M30.733 27.187a8.538 8.538 0 0 0-2.766-1.748 8.977 8.977 0 0 0-3.271-.613h-2.183V0L2.52 22.519l-.057.065a7.6 7.6 0 0 0-1.63 4.021A7.465 7.465 0 0 0 1.7 30.83 8.102 8.102 0 0 0 4.8 34.001a8.832 8.832 0 0 0 4.415 1.173V31.47a4.62 4.62 0 0 1-3.151-1.225c-.836-.783-1.306-1.845-1.308-2.953a3.902 3.902 0 0 1 1.034-2.667l12.77-14.38v14.582h-2.516a4.71 4.71 0 0 0-3.22 1.25c-.853.8-1.333 1.886-1.333 3.018v6.068h6.46c1.208 0 2.366-.45 3.22-1.25.854-.8 1.333-1.886 1.333-3.018v-2.363h2.207a4.662 4.662 0 0 1 3.174 1.205c.848.779 1.333 1.839 1.35 2.95a3.888 3.888 0 0 1-1.02 2.678L15.44 49.752V37.347H11.49V60l19.99-22.517.056-.067c1.204-1.51 1.786-3.375 1.639-5.255-.148-1.88-1.014-3.646-2.44-4.974zm-12.172 3.715a.537.537 0 0 1-.177.401.642.642 0 0 1-.428.166h-2.515v-2.371a.55.55 0 0 1 .177-.4.626.626 0 0 1 .426-.167h2.517v2.371z" fill="url(#hjc7bpujib)"/>
        <path d="M22.513 13.266H18.56v11.56h3.952v-11.56z" fill="url(#ycv49tw0ec)"/>
        <path d="M11.496 35.175V32.77l3.167-1.301h3.293c.16 0 .314-.06.428-.166a.55.55 0 0 0 .177-.401v-2.364h3.952v2.364c0 1.132-.48 2.217-1.333 3.018a4.711 4.711 0 0 1-3.22 1.25l-6.464.004z" fill="url(#tcneek13cd)"/>
    </g>
    <defs>
        <linearGradient id="hjc7bpujib" x1="25.173" y1="52.354" x2="13.831" y2="17.058" gradientUnits="userSpaceOnUse">
            <stop stop-color="#2D56A2"/>
            <stop offset=".51" stop-color="#6BC4EF"/>
            <stop offset=".57" stop-color="#A5D9EB"/>
        </linearGradient>
        <linearGradient id="ycv49tw0ec" x1="20.536" y1="25.62" x2="20.536" y2="14.837" gradientUnits="userSpaceOnUse">
            <stop stop-color="#2D56A2"/>
            <stop offset=".51" stop-color="#6BC4EF"/>
            <stop offset="1" stop-color="#A5D9EB"/>
        </linearGradient>
        <linearGradient id="tcneek13cd" x1="22.918" y1="28.984" x2="14.54" y2="35.351" gradientUnits="userSpaceOnUse">
            <stop stop-color="#2D56A2"/>
            <stop offset=".51" stop-color="#6BC4EF"/>
            <stop offset=".78" stop-color="#A5D9EB"/>
        </linearGradient>
        <clipPath id="3dxf3ufbxa">
            <path fill="#fff" transform="translate(.804)" d="M0 0h32.392v60H0z"/>
        </clipPath>
    </defs>
</svg>
