<svg width="322" height="321" viewBox="0 0 322 321" fill="none" xmlns="http://www.w3.org/2000/svg">
    <path d="M168.917 77.73h-32.97V35.571h24.482l8.488 8.032V77.73z" fill="#E4E7EC"/>
    <path d="m160.429 35.572 8.488 8.032h-8.488v-8.032zM139.166 43.732h18.332v-1.081h-18.332v1.081zM139.166 46.465h18.332v-1.082h-18.332v1.082zM139.166 49.197h18.332v-1.081h-18.332v1.081zM139.166 51.93h26.859v-1.08h-26.859v1.08zM139.166 54.663h26.859v-1.081h-26.859v1.081zM139.166 57.39h26.859v-1.082h-26.859v1.082zM139.166 60.122h26.859v-1.081h-26.859v1.081zM139.166 62.855h26.859v-1.081h-26.859v1.081zM139.166 65.588h26.859v-1.082h-26.859v1.082zM139.166 68.32h26.859V67.24h-26.859v1.081zM139.166 71.054h26.859v-1.082h-26.859v1.082zM139.166 73.786h26.859v-1.082h-26.859v1.082z" fill="#DBDBDB"/>
    <path d="M171.146 81.568a5.751 5.751 0 0 0 3.112-7.533c-1.229-2.936-4.615-4.324-7.563-3.1-2.948 1.224-4.341 4.597-3.112 7.533s4.615 4.324 7.563 3.1z" fill="#98A2B3"/>
    <path d="M171.782 74.791h-5.731v5.184h5.731v-5.184z" fill="#fff"/>
    <path d="M171.21 76.391h-.572v-2.29a1.7 1.7 0 0 0-1.031-1.674 1.722 1.722 0 0 0-1.931.398 1.704 1.704 0 0 0-.462 1.275v2.31h-.585V74.1c0-.606.242-1.187.672-1.615a2.297 2.297 0 0 1 3.916 1.615l-.007 2.291z" fill="#fff"/>
    <path d="m169.161 77.447.238 1.133h-1.015l.238-1.133a.505.505 0 0 1 .269-.934.508.508 0 0 1 .508.505.513.513 0 0 1-.238.429z" fill="#98A2B3"/>
    <path d="m211.827 94.887.084 32.8a3.325 3.325 0 0 1-3.322 3.334l-52.228.135a3.341 3.341 0 0 1-3.085-2.045 3.315 3.315 0 0 1-.256-1.27l-.083-32.8a3.077 3.077 0 0 1 1.904-2.86 3.11 3.11 0 0 1 1.186-.238l52.69-.134a3.112 3.112 0 0 1 2.196.896 3.07 3.07 0 0 1 .914 2.182z" fill="#E4E7EC"/>
    <path d="M203.409 123.092a3.06 3.06 0 0 1-3.656 3.002 3.062 3.062 0 0 1-2.414-2.393 3.047 3.047 0 0 1 1.297-3.137 3.068 3.068 0 0 1 2.875-.288 3.056 3.056 0 0 1 1.898 2.816z" fill="#DBDBDB"/>
    <path d="M207.188 123.08a3.055 3.055 0 0 1-1.885 2.823 3.073 3.073 0 0 1-3.341-.652 3.043 3.043 0 0 1 .448-4.697 3.078 3.078 0 0 1 3.873.367 3.049 3.049 0 0 1 .905 2.159zM166.241 97.546l-5.655.014a2.693 2.693 0 0 0-2.691 2.695l.006 2.234a2.693 2.693 0 0 0 2.705 2.681l5.655-.015a2.694 2.694 0 0 0 2.692-2.695l-.006-2.233a2.694 2.694 0 0 0-2.706-2.681z" fill="#2D56A2"/>
    <path d="M205.035 101.62h-4.999a2.09 2.09 0 0 1-1.492-3.561 2.085 2.085 0 0 1 1.479-.612h4.999a2.096 2.096 0 0 1 1.485.605 2.088 2.088 0 0 1 .616 1.475 2.066 2.066 0 0 1-.609 1.477 2.09 2.09 0 0 1-1.479.616z" fill="#fff"/>
    <path d="m185.912 120.387-27.964.073.004 1.37 27.964-.073-.004-1.37zM177.76 123.454l-19.797.052.003 1.369 19.798-.051-.004-1.37zM196.01 97.468l-13.949.036.003 1.37 13.95-.037-.004-1.37z" fill="#DBDBDB"/>
    <path d="M159.188 113.102h-.193v2.08h.193v-2.08z" fill="#98A2B3"/>
    <path d="M160.133 114.049h-2.088v.192h2.088v-.192z" fill="#98A2B3"/>
    <path d="m159.762 113.335-1.481 1.476.137.135 1.481-1.475-.137-.136z" fill="#98A2B3"/>
    <path d="m158.424 113.342-.136.136 1.481 1.475.137-.136-1.482-1.475zM161.701 113.102h-.193v2.08h.193v-2.08z" fill="#98A2B3"/>
    <path d="M162.652 114.049h-2.089v.192h2.089v-.192z" fill="#98A2B3"/>
    <path d="m162.278 113.339-1.476 1.471.136.135 1.477-1.47-.137-.136z" fill="#98A2B3"/>
    <path d="m160.933 113.334-.136.136 1.476 1.471.137-.136-1.477-1.471zM164.219 113.102h-.193v2.08h.193v-2.08z" fill="#98A2B3"/>
    <path d="M165.165 114.049h-2.089v.192h2.089v-.192z" fill="#98A2B3"/>
    <path d="m163.448 114.945-.135-.134 1.478-1.472.142.134-1.485 1.472z" fill="#98A2B3"/>
    <path d="m164.791 114.945-1.478-1.472.135-.134 1.485 1.472-.142.134zM166.732 113.102h-.193v2.08h.193v-2.08z" fill="#98A2B3"/>
    <path d="M167.683 114.049h-2.088v.192h2.088v-.192z" fill="#98A2B3"/>
    <path d="m165.967 114.945-.135-.134 1.478-1.472.135.134-1.478 1.472z" fill="#98A2B3"/>
    <path d="m167.31 114.945-1.478-1.472.135-.134 1.478 1.472-.135.134zM172.226 113.102h-.193v2.08h.193v-2.08z" fill="#98A2B3"/>
    <path d="M173.17 114.049h-2.088v.192h2.088v-.192z" fill="#98A2B3"/>
    <path d="m171.462 114.945-.142-.134 1.478-1.472.142.134-1.478 1.472z" fill="#98A2B3"/>
    <path d="m172.798 114.945-1.478-1.472.142-.134 1.478 1.472-.142.134zM174.739 113.102h-.193v2.08h.193v-2.08z" fill="#98A2B3"/>
    <path d="M175.689 114.049h-2.088v.192h2.088v-.192z" fill="#98A2B3"/>
    <path d="m173.974 114.945-.135-.134 1.478-1.472.135.134-1.478 1.472z" fill="#98A2B3"/>
    <path d="m175.317 114.945-1.478-1.472.135-.134 1.478 1.472-.135.134zM177.257 113.102h-.193v2.08h.193v-2.08z" fill="#98A2B3"/>
    <path d="M178.202 114.049h-2.089v.192h2.089v-.192z" fill="#98A2B3"/>
    <path d="m176.493 114.945-.141-.134 1.477-1.472.142.134-1.478 1.472z" fill="#98A2B3"/>
    <path d="m177.829 114.945-1.477-1.472.141-.134 1.478 1.472-.142.134zM179.776 113.102h-.193v2.08h.193v-2.08z" fill="#98A2B3"/>
    <path d="M180.72 114.049h-2.088v.192h2.088v-.192z" fill="#98A2B3"/>
    <path d="m179.005 114.945-.135-.134 1.478-1.472.135.134-1.478 1.472z" fill="#98A2B3"/>
    <path d="m180.348 114.945-1.478-1.472.135-.134 1.478 1.472-.135.134zM185.263 113.102h-.193v2.08h.193v-2.08z" fill="#98A2B3"/>
    <path d="M186.214 114.049h-2.088v.192h2.088v-.192z" fill="#98A2B3"/>
    <path d="m184.499 114.945-.135-.134 1.478-1.472.135.134-1.478 1.472z" fill="#98A2B3"/>
    <path d="m185.842 114.945-1.478-1.472.135-.134 1.478 1.472-.135.134zM187.783 113.102h-.193v2.08h.193v-2.08z" fill="#98A2B3"/>
    <path d="M188.727 114.049h-2.088v.192h2.088v-.192z" fill="#98A2B3"/>
    <path d="m187.011 114.945-.135-.134 1.478-1.472.141.134-1.484 1.472z" fill="#98A2B3"/>
    <path d="m188.354 114.945-1.478-1.472.135-.134 1.484 1.472-.141.134zM190.294 113.102h-.192v2.08h.192v-2.08z" fill="#98A2B3"/>
    <path d="M191.246 114.049h-2.089v.192h2.089v-.192z" fill="#98A2B3"/>
    <path d="m189.53 114.945-.134-.134 1.477-1.472.135.134-1.478 1.472z" fill="#98A2B3"/>
    <path d="m190.873 114.945-1.477-1.472.134-.134 1.478 1.472-.135.134zM192.814 113.102h-.193v2.08h.193v-2.08z" fill="#98A2B3"/>
    <path d="M193.758 114.049h-2.088v.192h2.088v-.192z" fill="#98A2B3"/>
    <path d="m192.042 114.945-.135-.134 1.478-1.472.141.134-1.484 1.472z" fill="#98A2B3"/>
    <path d="m193.385 114.945-1.478-1.472.135-.134 1.484 1.472-.141.134zM198.301 113.102h-.193v2.08h.193v-2.08z" fill="#98A2B3"/>
    <path d="M199.252 114.049h-2.088v.192h2.088v-.192z" fill="#98A2B3"/>
    <path d="m197.536 114.945-.135-.134 1.478-1.472.135.134-1.478 1.472z" fill="#98A2B3"/>
    <path d="m198.879 114.945-1.478-1.472.135-.134 1.478 1.472-.135.134zM200.82 113.102h-.193v2.08h.193v-2.08z" fill="#98A2B3"/>
    <path d="M201.764 114.049h-2.088v.192h2.088v-.192z" fill="#98A2B3"/>
    <path d="m200.055 114.945-.141-.134 1.484-1.472.135.134-1.478 1.472z" fill="#98A2B3"/>
    <path d="m201.398 114.945-1.484-1.472.141-.134 1.478 1.472-.135.134zM203.338 113.102h-.192v2.08h.192v-2.08z" fill="#98A2B3"/>
    <path d="M204.284 114.049h-2.089v.192h2.089v-.192z" fill="#98A2B3"/>
    <path d="m202.568 114.945-.135-.134 1.477-1.472.135.134-1.477 1.472z" fill="#98A2B3"/>
    <path d="m203.91 114.945-1.477-1.472.135-.134 1.477 1.472-.135.134zM205.851 113.102h-.193v2.08h.193v-2.08z" fill="#98A2B3"/>
    <path d="M206.795 114.049h-2.088v.192h2.088v-.192z" fill="#98A2B3"/>
    <path d="m205.087 114.945-.142-.134 1.478-1.472.142.134-1.478 1.472z" fill="#98A2B3"/>
    <path d="m206.423 114.945-1.478-1.472.142-.134 1.478 1.472-.142.134zM217.605 131.909c.513-3.14-1.627-6.1-4.779-6.61-3.153-.511-6.124 1.62-6.637 4.76-.513 3.14 1.627 6.099 4.78 6.61 3.152.511 6.123-1.62 6.636-4.76z" fill="#98A2B3"/>
    <path d="M214.777 129.537h-5.732v5.184h5.732v-5.184z" fill="#fff"/>
    <path d="M214.204 131.137h-.578v-2.317a1.708 1.708 0 0 0-1.713-1.604 1.708 1.708 0 0 0-1.712 1.604v2.317h-.585v-2.317c0-.606.242-1.187.672-1.616a2.3 2.3 0 0 1 3.244 0c.43.429.672 1.01.672 1.616v2.317z" fill="#fff"/>
    <path d="m212.154 132.193.238 1.133h-1.015l.238-1.133a.512.512 0 0 1-.238-.429.507.507 0 1 1 .777.429z" fill="#98A2B3"/>
    <path d="m75.432 75.734 39.007 6.501 4.736-28.184-39.007-6.501-4.736 28.184z" fill="#E4E7EC"/>
    <path d="m77.32 74.387 35.769 5.962 4.192-24.953-35.769-5.961-4.192 24.952z" fill="#fff"/>
    <path d="M84.536 57.224a2.979 2.979 0 0 0 1.371 3.025 3.01 3.01 0 0 0 3.332-.103 2.99 2.99 0 0 0 1.18-3.105 2.986 2.986 0 0 0-.866-1.504 3.005 3.005 0 0 0-5.017 1.687zM94.11 71.661l19.893 3.322-7.691-15.091-12.203 11.77z" fill="#DBDBDB"/>
    <path d="m86.315 70.369 16.418 2.74-6.74-10.113-9.678 7.373z" fill="#E4E7EC"/>
    <path d="m114.004 74.968-35.769-5.962-.903 5.378 35.769 5.962.903-5.378z" fill="#E4E7EC"/>
    <path d="M64.23 84.64h39.55V56.066H64.23V84.64z" fill="#E4E7EC"/>
    <path d="M65.87 82.996h36.266v-25.3H65.87v25.3z" fill="#fff"/>
    <path d="M70.103 64.89a2.987 2.987 0 0 0 .504 1.666 3.019 3.019 0 0 0 4.628.46 2.992 2.992 0 0 0 .655-3.264 2.998 2.998 0 0 0-1.108-1.345 3.016 3.016 0 0 0-3.795.37 2.989 2.989 0 0 0-.883 2.113zM81.972 77.556h20.17l-10.089-13.62-10.081 13.62z" fill="#DBDBDB"/>
    <path d="M74.061 77.563h16.656l-8.328-8.87-8.328 8.87z" fill="#E4E7EC"/>
    <path d="M102.135 77.55H65.869v5.453h36.266V77.55zM125.499 191.61h-56.7v78.151h56.7V191.61z" fill="#E4E7EC"/>
    <path d="M128.249 188.711H66.056v2.899h62.193v-2.899z" fill="#DBDBDB"/>
    <path d="M147.802 188.711h-19.56v2.899h19.56v-2.899z" fill="#E4E7EC"/>
    <path d="M144.712 191.61h-19.213v78.151h19.213V191.61z" fill="#DBDBDB"/>
    <path d="M119.401 227.79H74.897v-25.05h44.504v25.05zm-44.337-.16h44.17v-24.743H75.058l.006 24.743z" fill="#98A2B3"/>
    <path d="M99.604 210.056h-8.662v4.96h8.662v-4.96z" fill="#98A2B3"/>
    <path d="M102.244 214.721h-8.822v-4.371h8.822v4.371zm-8.662-.16h8.502v-4.051h-8.502v4.051zM119.401 259.252H74.897v-25.063h44.504v25.063zm-44.337-.16h44.17v-24.743H75.058l.006 24.743z" fill="#98A2B3"/>
    <path d="M99.604 241.518h-8.662v4.96h8.662v-4.96z" fill="#98A2B3"/>
    <path d="M102.244 246.183h-8.822v-4.371h8.822v4.371zm-8.662-.16h8.502v-4.051h-8.502v4.051z" fill="#98A2B3"/>
    <path d="m33.477 269.787 31.884-.16 31.878-.051 63.761-.109 63.761.102 31.878.058 31.883.16-31.883.153-31.878.058-63.761.109-63.761-.109-31.878-.058-31.884-.153z" fill="#101828"/>
    <path d="M66.737 297.869c15.714 0 28.452-2.435 28.452-5.44 0-3.004-12.738-5.44-28.452-5.44-15.714 0-28.453 2.436-28.453 5.44 0 3.005 12.739 5.44 28.453 5.44z" fill="#E4E7EC"/>
    <path d="M172.547 302.861c61.4 0 111.176-4.862 111.176-10.861 0-5.998-49.776-10.86-111.176-10.86-61.401 0-111.176 4.862-111.176 10.86 0 5.999 49.775 10.861 111.176 10.861z" fill="#E4E7EC"/>
    <path d="m203.171 197.268-1.87 11.187-12.69 68.243h-2.044l9.228-68.243 1.362-11.187h6.014z" fill="#98A2B3"/>
    <path d="M197.157 197.268h6.015l-1.87 11.187h-5.507l1.362-11.187z" fill="#A6A6A6"/>
    <path d="M243.017 276.698h-2.044l-12.69-68.243-1.87-11.187h6.014l1.363 11.187 9.227 68.243z" fill="#98A2B3"/>
    <path d="m232.427 197.268 1.363 11.187h-5.507l-1.87-11.187h6.014z" fill="#A6A6A6"/>
    <path d="M281.076 276.698h-2.05l-12.684-68.243-1.876-11.187h6.014l1.369 11.187 9.227 68.243z" fill="#98A2B3"/>
    <path d="M271.849 208.455h-5.507l-1.876-11.187h6.014l1.369 11.187z" fill="#A6A6A6"/>
    <path d="M277.83 202.522h-92.972v-9.753h34.801l18.127-101.133h49.349l-9.305 110.886z" fill="#98A2B3"/>
    <path d="M277.432 192.769h-92.574v9.753h92.921l-.347-9.753z" fill="#DBDBDB"/>
    <path d="M277.831 202.522h-5.07l9.548-110.886h4.826l-9.304 110.886z" fill="#DBDBDB"/>
    <path d="M278.981 77.48c-1.433-1.569-7.3-5.953-12.37-8.32-2.454-1.172-9.869-3.777-10.923-1.966-1.054 1.811 1.06 2.765 1.06 2.765s-3.303-.64-4.183 1.28c-.88 1.92 2.429 3.296 2.429 3.296s-3.432-.403-4.177 1.568c-.745 1.971 2.821 2.803 2.821 2.803s-3.123-.512-3.046 1.37c.09 2.266 5.95 2.56 8.604 4 .604.32 11.746 7.43 11.746 7.43l8.039-14.227z" fill="#EB9481"/>
    <path d="M253.683 78.926c4.312.23 6.162 1.082 9.639 3.533.07.045.154-.045.09-.103-3.175-2.707-5.34-4.102-9.716-3.641-.225.025-.218.198-.013.211zM254.814 74.44c4.459.64 6.47 1.529 10.281 3.84.058 0 .115-.058.064-.097-3.56-2.56-5.744-3.91-10.281-3.955-.186-.013-.25.18-.064.211zM257.114 69.998c4.273.921 6.522 1.811 9.941 4.518.083.064.186-.045.109-.115-3.213-3.104-6.015-4.237-10.005-4.531-.276-.02-.315.07-.045.128z" fill="#101828"/>
    <path d="M272.806 94.113s-5.372-.685-7.666-1.504c-2.294-.819-9.683-6.989-8.443-8.665 1.613-2.157 6.599.57 8.867 2.22 0 0 3.727-4.992 7.711-3.808 3.984 1.184-.469 11.757-.469 11.757z" fill="#EB9481"/>
    <path d="M257.333 83.495c2.898-.908 5.732 1.453 8.051 2.893a.252.252 0 0 0 .386-.147c1.703-1.99 4.684-4.3 7.441-4.032a.064.064 0 0 0 .064-.064.064.064 0 0 0-.064-.064c-2.918-.685-6.034 1.35-7.763 3.648-2.351-1.517-5.301-3.757-8.147-2.26.006.007.019.033.032.026z" fill="#101828"/>
    <path d="M227.396 72.065c1.928-.851 9.414-3.117 15.024-3.264 2.718-.07 10.557.55 10.775 2.63.219 2.08-2.094 2.1-2.094 2.1s3.27.755 3.296 2.86c.026 2.106-3.566 2.03-3.566 2.03s3.302 1.017 3.18 3.123c-.122 2.105-3.727 1.42-3.727 1.42s3.066.794 2.23 2.484c-1.009 2.035-6.49-.064-9.497.166-.681.051-13.757 2.035-13.757 2.035l-1.864-15.584z" fill="#EB9481"/>
    <path d="M250.233 82.99c-4.036-1.53-6.072-1.505-10.236-.64-.084 0-.129-.097-.045-.122 4.009-1.19 6.554-1.588 10.364.608.187.07.109.224-.083.153zM251.01 78.427c-4.331-1.23-6.535-1.223-10.962-.64-.064 0-.084-.096 0-.11 4.299-.908 6.843-1.28 11.013.551.167.052.148.256-.051.199zM250.74 73.46c-4.279-.89-6.695-.985-10.923.103a.08.08 0 0 1-.06-.004.082.082 0 0 1-.04-.044.077.077 0 0 1 .004-.06.066.066 0 0 1 .018-.024.087.087 0 0 1 .026-.016c4.209-1.53 7.223-1.433 10.995-.09.25.078.25.174-.02.135z" fill="#101828"/>
    <path d="M226.541 89.12s5.185 1.55 7.608 1.728c2.422.18 11.727-2.457 11.27-4.48-.597-2.624-6.265-2.15-8.995-1.555 0 0-1.369-6.073-5.507-6.611-4.138-.538-4.376 10.918-4.376 10.918z" fill="#EB9481"/>
    <path d="M245.028 85.69c-2.275-2.01-5.828-.998-8.534-.64a.25.25 0 0 1-.295-.288c-.739-2.502-2.519-5.824-5.141-6.694-.077 0-.051-.141 0-.122 2.95.55 4.967 3.667 5.604 6.47 2.769-.435 6.38-1.28 8.353 1.23.045.038.032.057.013.044z" fill="#101828"/>
    <path d="M242.175 111.354c-14.702-3.955-37.854-17.197-35.727-23.571 2.063-6.195 10.744-12.672 21.847-16.115 1.62-.506 1.286 2.88 2.037 8.78.367 2.791 5.282 10.311 2.911 10.292a9.834 9.834 0 0 0-3.598.8c-.868.333 9.561 7.27 15.389 11.622 7.852 5.837 3.418 9.875-2.859 8.192z" fill="#EB9481"/>
    <path d="m220.951 106.861 16.296-10.163s9.786 5.927 12.208 9.21c2.423 3.283.514 6.835-7.068 6.841-8.72.007-21.436-5.888-21.436-5.888z" fill="#2D56A2"/>
    <g opacity=".1" fill="#000">
        <path d="M241.416 99.374h-8.449l1.503-.934h5.539l1.407.934zM245.715 102.446h-17.683l1.497-.934h14.946l1.24.934zM249.127 105.512h-26.011l1.497-.935h23.621c.34.327.642.64.893.935zM250.431 108.584h-25.368c-.893-.346-1.677-.64-2.313-.935h27.566c.084.304.123.619.115.935zM249.506 110.721a4.867 4.867 0 0 1-1.285.928h-13.648a66.804 66.804 0 0 1-3.374-.928h18.307z"/>
    </g>
    <path d="M225.257 108.109c6.56-3.993 13.057-8.499 14.136-9.376.045-.038 0-.109-.064-.083a141.522 141.522 0 0 0-14.137 9.376.052.052 0 0 0-.02.035.054.054 0 0 0 .011.039.052.052 0 0 0 .035.02.054.054 0 0 0 .039-.011zM242.374 112.75a37.249 37.249 0 0 1-9.445-1.53c4.26-2.848 9.323-6.208 13.031-8.582a19.806 19.806 0 0 1 3.489 3.27c2.416 3.277.514 6.835-7.075 6.842z" fill="#101828"/>
    <path d="M188.457 289.703c1.812.173 51.038-11.52 52.587-13.094.193-.179-.778-4.634-2.198-10.714v-.121c-.893-3.84-15.228-35.008-15.228-35.008l-31.91 8.857 14.496 28.909s-6.008 4.32-11.148 8.448c-3.181 2.522-5.924 4.781-6.503 5.517-1.548 1.901-1.895 7.046-.096 7.206z" fill="#EB9481"/>
    <path d="M188.463 289.697c1.799.173 51.026-11.52 52.587-13.088.186-.179-.784-4.633-2.204-10.713v-.116c-.321-1.433-2.532-6.675-5.14-12.672-5.25 1.402-24.077 6.471-30.914 8.576l3.438 6.855s-6.034 4.32-11.174 8.441c-3.181 2.516-5.925 4.781-6.503 5.511-1.549 1.907-1.902 7.059-.09 7.206z" fill="#E4E7EC"/>
    <path d="M188.297 289.934c1.863.16 51.122-11.648 52.69-13.28.604-.64-.482-8.358-3.181-16.563l-31.749 7.68s-16.212 12.8-17.767 14.758c-1.555 1.959-1.85 7.251.007 7.405z" fill="#46A2C6"/>
    <path d="M188.528 287.803c8.211-2.183 41.528-10.24 49.804-11.744.071 0 .084.032 0 .051-8.083 2.336-41.464 10.099-49.785 11.827-.161.038-.193-.077-.019-.134zM191.053 279.982a6.857 6.857 0 0 1 5.429.819 6.61 6.61 0 0 1 2.905 3.949c0 .051-.077.077-.097 0a7.868 7.868 0 0 0-3.321-3.708 7.917 7.917 0 0 0-4.891-.983.062.062 0 0 1-.019-.012.047.047 0 0 1-.012-.02.047.047 0 0 1-.003-.023.047.047 0 0 1 .009-.022zM203.692 269.185c3.297-.839 7.409-.595 10.114 1.606.103.09 0 .231-.128.205a47.364 47.364 0 0 0-9.947-1.389.211.211 0 0 1-.128-.065.212.212 0 0 1-.06-.131.215.215 0 0 1 .149-.226zM201.379 270.791c3.296-.838 7.408-.595 10.113 1.607.103.083 0 .23-.128.205a47.3 47.3 0 0 0-9.941-1.383.219.219 0 0 1-.212-.112.202.202 0 0 1-.025-.08.21.21 0 0 1 .112-.212.225.225 0 0 1 .081-.025zM199.066 272.391c3.296-.838 7.408-.595 10.114 1.606.102.084 0 .231-.129.205a46.965 46.965 0 0 0-9.94-1.389.211.211 0 0 1-.131-.063.215.215 0 0 1-.028-.27.215.215 0 0 1 .114-.089zM196.759 273.998c3.29-.839 7.402-.596 10.108 1.6.102.089 0 .236-.129.211a47.299 47.299 0 0 0-9.94-1.389.213.213 0 0 1-.232-.192.213.213 0 0 1 .193-.23zM234.342 268.75c3.714-.877 5.089 4.864 1.375 5.76-3.714.896-5.089-4.883-1.375-5.76z" fill="#101828"/>
    <path d="M199.425 266.024c2.339 1.862 5.404 2.656 8.148 3.712a.424.424 0 0 0 .371-.071.413.413 0 0 0 .162-.339.086.086 0 0 0 .07-.037.077.077 0 0 0 .007-.078 17.657 17.657 0 0 0-5.037-7.68c-1.375-1.191-3.811-2.035-5.141-.25-1.272 1.664.058 3.655 1.42 4.743zm-.809-2.695c-.54-3.661 3.373-1.683 4.35-.768.625.6 1.209 1.242 1.748 1.92a53.707 53.707 0 0 1 3.039 4.429c-1.317-.602-2.673-1.088-4.01-1.638-1.619-.647-4.832-1.92-5.127-3.943z" fill="#101828"/>
    <path d="M219.415 264.295c-.777-2.086-3.354-1.965-5.012-1.21a17.781 17.781 0 0 0-7.017 5.965.096.096 0 0 0-.014.038.078.078 0 0 0 .004.04.084.084 0 0 0 .021.035c.01.01.021.017.034.022a.416.416 0 0 0 .392.544c2.93-.244 6.098-.141 8.868-1.28 1.619-.653 3.463-2.183 2.724-4.154zm-7.222 4.16c-1.44.154-2.879.237-4.312.442a52.85 52.85 0 0 1 4.177-3.392 17.557 17.557 0 0 1 2.223-1.364c1.195-.601 5.507-1.395 3.952 1.965-.855 1.85-4.325 2.163-6.04 2.349z" fill="#101828"/>
    <path d="m203.358 264.769 33.882-9.037s-29.776-61.498-27.373-64.883c1.202-1.69 32.957-3.117 42.808-11.956 12.793-11.475 3.482-28.16 3.482-28.16h-35.508s.643 7.38-.706 8.532c-.887.768-43.052 5.561-47.274 19.91-5.172 17.594 30.689 85.594 30.689 85.594z" fill="#1B1D3D"/>
    <path d="M202.767 259.822a20.776 20.776 0 0 1 2.776-1.05c.983-.339 1.972-.678 2.955-1.004 1.928-.64 3.907-1.242 5.873-1.805 3.965-1.139 7.93-2.253 11.926-3.29 2.082-.537 6.535-1.709 6.818-1.67.128 0 .161.243.045.288-3.855 1.395-7.775 2.592-11.688 3.808-3.913 1.216-7.827 2.4-11.791 3.417-1.099.282-2.204.538-3.303.807-1.15.338-2.322.595-3.508.768-.103.006-.232-.211-.103-.269zM203.711 188.096c.7-.64 1.767-.729 2.654-.908l15.286-3.008c4.768-.941 9.568-1.799 14.31-2.861 3.926-.877 7.91-2.016 11.264-4.256a16.434 16.434 0 0 0 6.702-9.306c1.086-3.782 1.047-7.814.559-11.686-.122-.947-.328-1.888-.533-2.823 0-.07.102-.096.115 0 1.517 7.207 1.883 15.616-3.392 21.549-2.571 2.893-6.175 4.659-9.864 5.837-4.17 1.338-8.539 2.042-12.851 2.886l-15.286 3.008c-2.455.48-4.948.877-7.377 1.46-.493.077-.952.3-1.317.64a1.905 1.905 0 0 0-.161 1.779c.283 1.19.643 2.374 1.022 3.539 3.084 9.434 24.687 54.099 25.272 55.13.064.108-.11.198-.174.089-4.948-8.205-21.05-42.688-24.417-51.597a56.642 56.642 0 0 1-2.204-6.988c-.206-.858-.334-1.818.392-2.484z" fill="#667085"/>
    <path d="M101.75 290.932c1.683.672 52.221 3.245 54.161 2.15.232-.115.559-4.665.906-10.88l.257-5.875c.09-1.984 26.107-30.867 26.107-30.867l-36.272-2.183-22.181 32.314s-6.985 2.464-13.083 4.96c-3.778 1.549-7.042 2.925-7.833 3.469-1.927 1.414-3.752 6.259-2.062 6.912z" fill="#EB9481"/>
    <path d="M163.706 267.642c-3.778 4.48-6.599 8.019-6.625 8.672l-.263 5.875c-.347 6.228-.675 10.778-.906 10.88-1.928 1.095-52.478-1.478-54.168-2.144-1.69-.665.103-5.504 2.095-6.918.764-.538 4.035-1.92 7.794-3.475 6.091-2.49 13.076-4.954 13.076-4.954l6.425-9.331 32.572 1.395z" fill="#E4E7EC"/>
    <path d="M101.525 291.111c1.741.678 52.349 3.123 54.341 2.003.758-.422 1.928-8.153 1.619-16.781l-32.629-1.542s-19.168 7.731-21.205 9.19c-2.036 1.46-3.861 6.439-2.126 7.13z" fill="#46A2C6"/>
    <path d="M102.354 289.14c8.495.198 42.73 1.817 51.109 2.662.071 0 .071.051 0 .051-8.424 0-42.646-1.92-51.115-2.56-.18-.038-.174-.153.006-.153zM106.98 282.33a6.834 6.834 0 0 1 4.98 2.31 6.55 6.55 0 0 1 1.671 4.602c0 .051-.096.045-.103 0a7.844 7.844 0 0 0-2.136-4.487 7.904 7.904 0 0 0-4.412-2.316.055.055 0 0 1-.038-.093.055.055 0 0 1 .038-.016zM122.158 275.508c3.392.115 7.274 1.504 9.246 4.371.077.109-.083.218-.18.16a47.138 47.138 0 0 0-9.15-4.115.213.213 0 0 1-.104-.099.212.212 0 0 1-.02-.142.215.215 0 0 1 .208-.175zM119.484 276.398c3.399.122 7.274 1.504 9.253 4.371.071.109-.083.218-.186.16a47.147 47.147 0 0 0-9.144-4.115.213.213 0 0 1-.17-.246.21.21 0 0 1 .247-.17zM116.811 277.294c3.399.115 7.281 1.498 9.253 4.365.077.115-.083.217-.18.166a46.784 46.784 0 0 0-9.15-4.121.214.214 0 0 1-.111-.094c-.025-.044-.034-.095-.025-.144a.217.217 0 0 1 .075-.125.216.216 0 0 1 .138-.047zM114.138 278.184c3.399.115 7.281 1.497 9.253 4.371.077.109-.083.217-.18.16a47.131 47.131 0 0 0-9.118-4.122.213.213 0 0 1-.142-.223.21.21 0 0 1 .187-.186zM151.696 283.668c3.811.192 3.509 6.093-.308 5.894-3.817-.198-3.509-6.092.308-5.894zM118.951 271.278c1.722 2.445 4.44 4.058 6.779 5.843a.423.423 0 0 0 .643-.243.078.078 0 0 0 .04-.001.092.092 0 0 0 .036-.017.096.096 0 0 0 .025-.032.092.092 0 0 0 .008-.04 17.697 17.697 0 0 0-2.686-8.768c-.983-1.523-3.084-3.02-4.87-1.683-1.787 1.338-.977 3.514.025 4.941zm0-2.81c.521-3.66 3.714-.678 4.395.48.431.752.809 1.532 1.131 2.336a53.298 53.298 0 0 1 1.671 5.12c-1.092-.947-2.262-1.792-3.386-2.694-1.363-1.094-4.113-3.226-3.83-5.242h.019z" fill="#101828"/>
    <path d="M138.626 275.214c-.16-2.221-2.666-2.822-4.498-2.56a17.898 17.898 0 0 0-8.417 3.763.087.087 0 0 0-.025.032.09.09 0 0 0 .025.109.406.406 0 0 0-.058.379.411.411 0 0 0 .283.261c2.885.595 5.892 1.581 8.867 1.28 1.78-.218 3.971-1.165 3.823-3.264zm-8.102 1.971c-1.427-.256-2.834-.582-4.267-.781a53.664 53.664 0 0 1 4.967-2.092c.821-.286 1.66-.515 2.512-.685 1.324-.243 5.687.205 3.245 2.995-1.343 1.536-4.761.87-6.457.563z" fill="#101828"/>
    <path d="m123.18 268.82 40.526 4.96s40.076-47.757 43.315-50.937c10.037-9.856 46.02-26.88 56.757-42.688 9.639-14.215-.122-29.402-.122-29.402h-39.569a80.864 80.864 0 0 0 4.036 12.294s-32.867 24.647-50.384 42.24c-11.289 11.348-54.559 63.533-54.559 63.533z" fill="#1B1D3D"/>
    <path d="M221.086 160.5a19.41 19.41 0 0 1 3.386.973c1.144.397 2.275.857 3.387 1.35a66.165 66.165 0 0 1 6.355 3.341c.064.038 0 .128-.058.096-2.172-1.043-4.408-1.971-6.651-2.861l-3.213-1.28a33.778 33.778 0 0 1-3.27-1.325c-.161-.038-.09-.294.064-.294z" fill="#667085"/>
    <path d="M223.168 150.74c.508 1.786.958 3.584 1.523 5.351.264.806.521 1.632.855 2.419.283.64.7 1.408 1.484 1.536.9.147 1.137-.64 1.041-1.357a24.655 24.655 0 0 0-.533-2.445c-.212-.928-1.285-5.433-1.285-5.459 0-.025 0-.083.045-.134a.054.054 0 0 1 .038-.015c.014 0 .028.005.039.015.173.089 1.285 3.552 1.516 4.409.231.858.482 1.722.72 2.56.244.634.326 1.318.238 1.991a1.537 1.537 0 0 1-1.388 1.19c.032.058.07.109.102.173.084.173.148.358.219.538.071.179.141.371.205.556.026.091.045.183.058.276v.313a.143.143 0 0 1-.002.113.146.146 0 0 1-.081.079.146.146 0 0 1-.114-.002.146.146 0 0 1-.079-.081c-.051-.09-.122-.16-.18-.25a1.565 1.565 0 0 1-.135-.294 8.397 8.397 0 0 1-.173-.538c-.052-.179-.116-.364-.155-.544a3.114 3.114 0 0 1-.045-.332 2.065 2.065 0 0 1-1.053-.365 3.523 3.523 0 0 1-1.125-1.607c-.295-.742-.527-1.51-.764-2.272a33.336 33.336 0 0 1-1.318-5.76.175.175 0 0 1 .142-.204.174.174 0 0 1 .205.14z" fill="#667085"/>
    <path d="M246.808 154.446c.192.883.321 1.779.552 2.662.232.883.489 1.715.803 2.56a8.945 8.945 0 0 0 1.17 2.285 8.576 8.576 0 0 0 1.805 1.728 14.962 14.962 0 0 0 4.306 2.221c.777.264 1.572.478 2.377.64.418.076.835.14 1.285.179.349.003.693.072 1.015.205a.202.202 0 0 1 .074.277.213.213 0 0 1-.074.075 3.694 3.694 0 0 1-1.869.115 13.778 13.778 0 0 1-5.848-1.773 11.77 11.77 0 0 1-3.212-2.483 8.94 8.94 0 0 1-1.806-3.642 18.29 18.29 0 0 1-.7-4.998.08.08 0 0 1 .019-.032.075.075 0 0 1 .03-.02.079.079 0 0 1 .037-.007c.012 0 .024.002.036.008z" fill="#475467"/>
    <path d="M132.085 262.9a25.436 25.436 0 0 1 3.277.128c1.15.077 2.294.147 3.438.237 2.255.185 4.498.39 6.746.64 4.498.512 9.048 1.043 13.552 1.664 2.352.326 7.396.998 7.666 1.145a.155.155 0 0 1 .064.169.157.157 0 0 1-.052.079.163.163 0 0 1-.089.034c-4.498-.237-8.996-.672-13.494-1.095-4.498-.422-8.996-.864-13.494-1.484-1.234-.173-2.467-.378-3.707-.564a29.87 29.87 0 0 1-3.907-.672c-.122-.051-.148-.281 0-.281zM219.325 213.62c-2.101 1.344-4.131 2.79-6.168 4.224a57.604 57.604 0 0 0-5.59 4.122 29.834 29.834 0 0 0-2.474 2.617l-2.416 2.784a502.927 502.927 0 0 0-4.8 5.594c-.9 1.054-1.793 2.12-2.68 3.2-.925 1.107-1.786 2.272-2.718 3.379a.072.072 0 0 0-.015.049.07.07 0 0 0 .07.065.066.066 0 0 0 .048-.018c1.645-1.85 3.393-3.622 5.038-5.478 1.645-1.856 3.29-3.712 4.915-5.594 1.626-1.882 3.078-3.693 4.749-5.414a38.174 38.174 0 0 1 5.539-4.327c2.249-1.6 4.498-3.2 6.702-4.87.186-.141.013-.448-.2-.333zM227.487 163.322c-6.76 4.723-13.751 10.003-20.106 15.245-6.355 5.241-12.646 10.592-18.789 16.096a505.424 505.424 0 0 0-5.14 4.672c-1.709 1.587-3.38 3.577-5.089 5.165-.09.083.051.217.141.134 3.091-2.758 6.284-5.76 9.414-8.474 3.129-2.713 6.232-5.376 9.362-8.044a843.28 843.28 0 0 1 19.103-15.815c3.573-2.886 7.711-5.805 11.245-8.781.135-.096-.026-.288-.141-.198z" fill="#667085"/>
    <path d="M262.454 155.38a111.533 111.533 0 0 0-1.221-3.386c0-.064-.128 0-.103.032 1.594 4.685 3.213 9.485 3.393 14.477.112 2.39-.237 4.78-1.028 7.04a18.498 18.498 0 0 1-3.611 5.856c-3.149 3.539-7.152 6.33-10.924 9.152a378.478 378.478 0 0 1-12.536 8.96c-4.228 2.893-8.565 5.651-12.948 8.32-4.382 2.669-8.815 5.075-13.172 7.68a35.44 35.44 0 0 0-5.899 4.352c-1.825 1.702-3.457 3.59-5.102 5.466a941.174 941.174 0 0 0-10.461 12.108 925.79 925.79 0 0 0-20.388 24.685 685.008 685.008 0 0 0-2.442 3.066c-.038.051 0 .121.071.07a1831.892 1831.892 0 0 1 20.787-24.896c3.478-4.096 6.976-8.17 10.493-12.224 3.373-3.878 6.618-7.993 10.923-10.88 2.076-1.408 4.293-2.605 6.471-3.84a233.175 233.175 0 0 0 6.785-3.955 333.318 333.318 0 0 0 13.186-8.32c4.298-2.867 8.539-5.805 12.703-8.87a322.088 322.088 0 0 0 6.182-4.672 61.263 61.263 0 0 0 5.082-4.282 22.893 22.893 0 0 0 4.074-5.12 16.73 16.73 0 0 0 2.024-6.483c.488-4.883-.79-9.767-2.339-14.336z" fill="#667085"/>
    <path d="M217.687 157.678c.707 1.344 50.12 12.723 50.467 12.499.861-.64 3.695-45.709-9.343-65.869-2.294-3.552-7.871-4.211-10.743-3.469-1.433.371-7.325 5.37-10.024 10.368-2.699 4.999-20.793 45.613-20.357 46.471z" fill="#2D56A2"/>
    <g opacity=".1" fill="#000">
        <path d="M256.98 102.445h-11.379c.449-.371.867-.685 1.233-.934h8.45c.6.243 1.17.557 1.696.934zM259.55 105.511h-17.227c.302-.327.611-.64.913-.935h15.742c.2.307.386.615.572.935zM261.182 108.583h-21.449c.232-.32.476-.64.72-.935h20.266c.161.308.309.621.463.935zM262.525 111.649h-24.707l.225-.442c.09-.16.18-.326.277-.486h23.813c.128.307.257.614.392.928zM263.63 114.721h-27.309c.161-.333.309-.64.444-.935h26.544c.109.307.218.634.321.935zM264.582 117.793h-29.686l.43-.935h28.979c.097.308.187.621.277.935zM265.391 120.858h-31.903c.142-.32.283-.64.424-.934h31.248l.231.934zM266.091 123.93h-34.004c.141-.314.289-.64.424-.935h33.375c.07.307.141.621.205.935zM266.683 127.002h-35.984c.142-.314.277-.64.418-.935h35.392c.064.308.122.621.174.935zM267.203 130.067H229.33c.141-.313.276-.64.418-.934h37.275l.18.934zM267.666 133.139h-39.704c.135-.307.276-.64.411-.934h39.138c.045.314.084.621.155.934zM268.007 136.18h-41.401c.135-.314.27-.64.412-.935h40.879c.039.339.071.647.11.935zM268.308 139.277h-43.051c.128-.307.27-.64.405-.934h42.556c.033.313.09.621.09.934zM268.553 142.349h-44.639c.129-.307.27-.64.405-.934h44.163c.026.314.051.621.071.934zM268.745 145.415h-46.161l.398-.935h45.712c.019.314.032.66.051.935zM268.88 148.487h-47.613l.398-.934h47.183c.013.313.026.627.032.934zM268.951 151.54h-48.976l.392-.935h48.584v.935zM269.015 154.624h-50.286c.109-.295.237-.608.366-.935h49.914c.006.314.006.628.006.935zM269.015 156.762v.934H217.7c.02-.317.098-.627.232-.915l51.083-.019zM268.951 159.859v.935h-41.124a222.76 222.76 0 0 1-3.534-.935h44.658zM268.874 162.899c0 .32 0 .64-.039.935h-28.607c-1.285-.314-2.57-.64-3.855-.935h32.501zM268.706 165.965c0 .326-.045.64-.07.934h-15.422l-4.016-.934h19.508zM268.411 169.037a6.067 6.067 0 0 1-.167.935h-1.285c-.964-.192-2.461-.519-4.344-.935h5.796z"/>
    </g>
    <path d="M256.581 114.676c8.887-.716 23.614-3.891 31.627-8.32 4.806-2.675 5.532-6.265 5.783-8.774.642-6.49-10.217-17.024-15.923-20.954-.752-.518-1.844 3.296-5.301 7.578-2.924 3.629-8.437 7.725-7.608 8.422 1.221 1.024 6.882 4.91 6.612 5.376-.463.8-5.712 3.021-13.577 6.816-10.551 5.069-7.878 10.368-1.613 9.856z" fill="#EB9481"/>
    <path d="M279.957 112.174 264.716 100.5s-10.313 4.966-13.031 8-1.17 6.752 6.387 7.488c8.661.838 21.885-3.814 21.885-3.814z" fill="#2D56A2"/>
    <path d="M276.121 112.538c-5.783-5.075-11.984-9.939-13.147-10.72-.051-.032-.103.045-.064.083a140.678 140.678 0 0 0 13.153 10.72c.045.032.103-.044.058-.083zM266.887 114.804a8.276 8.276 0 0 0-3.212 1.28c-.46.342-.873.742-1.228 1.191a4.631 4.631 0 0 0-.488.691 4.56 4.56 0 0 0-.366.729c0 .058.064.09.096.052.187-.186.341-.404.533-.589.193-.186.367-.384.566-.563.404-.38.834-.733 1.285-1.056a9.227 9.227 0 0 1 2.859-1.588.07.07 0 0 0 .027-.014.071.071 0 0 0 .019-.023.075.075 0 0 0-.032-.104.077.077 0 0 0-.059-.006z" fill="#101828"/>
    <g opacity=".1" fill="#000">
        <path d="M267.255 102.445h-6.349c.643-.345 1.285-.64 1.787-.934h3.341l1.221.934zM271.258 105.511h-15.672c.488-.314 1.002-.64 1.516-.935h12.935l1.221.935zM275.267 108.583h-23.665l.07-.083c.28-.304.581-.589.9-.852h21.468l1.227.935zM279.27 111.649h-28.812a3.04 3.04 0 0 1 .038-.928h27.566l1.208.928zM274.644 113.779c-1.144.307-2.423.64-3.778.935h-17.825a6.439 6.439 0 0 1-1.407-.935h23.01z"/>
    </g>
    <path d="M246.744 109.166c2.57 1.062 7.768-2.215 10.114-5.184.154-.205.726-9.319 1.028-11.117.058-.365-11.765.857-11.765.857a28.751 28.751 0 0 1-.065 7.072c-.045.263-1.773 7.341.688 8.372z" fill="#EB9481"/>
    <path d="M245.857 101.517c0 .039 0 .077-.039.122h.058c.359.113.726.194 1.099.243 6.169.883 9.497-6.298 10.557-9.094-1.927-.058-11.412.921-11.412.921.27 2.351.248 4.726-.064 7.072 0 .09-.032.173-.045.25a2.772 2.772 0 0 1-.154.486zM244.571 72.736s-3.855 1.55-4.6 5.427c-.746 3.879.102 7.962.437 8.167.334.205 4.163-13.594 4.163-13.594z" fill="#101828"/>
    <path d="M259.434 78.535c1.227 4.051-.938 15.737-3.855 18.342-4.196 3.77-11.052 4.115-14.265-.909-3.117-4.864 0-20.044 3.213-22.4 4.78-3.488 13.082-1.01 14.907 4.967z" fill="#EB9481"/>
    <path d="M240.498 82.99a18.613 18.613 0 0 0-.45 3.263 46.44 46.44 0 0 0-.084 3.399c0 .064.103.057.103 0 0-1.114.077-2.228.174-3.335.096-1.107.276-2.208.334-3.315.006-.051-.064-.051-.077-.013zM247.746 85.62c0-.032.058.045.052.077-.167.787-.225 1.709.443 2.099v.045c-.855-.301-.765-1.53-.495-2.221z" fill="#101828"/>
    <path d="M248.62 84.897c1.285.134.925 2.688-.27 2.56-1.195-.128-.816-2.669.27-2.56zM243.35 85.102c0-.032-.07 0-.07.057-.09.8-.322 1.696-1.08 1.862v.045c.9-.006 1.195-1.197 1.15-1.965z" fill="#101828"/>
    <path d="M242.753 84.173c-1.285-.275-1.722 2.266-.553 2.522 1.17.256 1.613-2.291.553-2.522zM249.795 83.866a9.43 9.43 0 0 1-.944-.486 1.746 1.746 0 0 1-.874-.679.546.546 0 0 1 .18-.64 1.373 1.373 0 0 1 1.381.051c.454.2.816.56 1.016 1.012a.58.58 0 0 1-.14.613.587.587 0 0 1-.619.13zM241.963 82.746a9.853 9.853 0 0 0 1.054-.121 1.75 1.75 0 0 0 1.06-.326.553.553 0 0 0 .058-.64 1.367 1.367 0 0 0-1.285-.442 2 2 0 0 0-1.317.589.585.585 0 0 0-.072.6.583.583 0 0 0 .502.34zM247.682 93.07c-.219.16-.444.39-.739.377a2.237 2.237 0 0 1-.829-.32s-.052 0-.039.032a1.075 1.075 0 0 0 .951.576.865.865 0 0 0 .726-.64c-.006-.02-.045-.045-.07-.026z" fill="#101828"/>
    <path d="M247.174 90.58a2.722 2.722 0 0 1-1.979.954 3.615 3.615 0 0 1-.977-.09l-.186-.051a.845.845 0 0 1-.167-.051.19.19 0 0 1-.104-.075.182.182 0 0 1-.031-.124.329.329 0 0 1 0-.076v-.07c.064-.64.257-1.537.257-1.537-.238.083-1.452.435-1.388.122a40.817 40.817 0 0 1 2.191-8.026c.032-.083.167-.045.148.039-.411 2.56-1.285 4.985-1.716 7.526a4.742 4.742 0 0 1 1.337-.211c.083.038-.398 1.773-.411 2.054a3.79 3.79 0 0 0 2.923-.473c.103-.026.161.038.103.09z" fill="#101828"/>
    <path d="M244.623 91.181c.273.483.667.886 1.144 1.172.265.15.571.212.874.179.642-.077.758-.64.706-1.171a3.272 3.272 0 0 0-.173-.8 4.234 4.234 0 0 1-2.551.62z" fill="#101828"/>
    <path d="M245.767 92.353c.265.15.57.213.873.179.643-.077.759-.64.707-1.171a1.505 1.505 0 0 0-1.58.992z" fill="#FF98B9"/>
    <path d="M258.483 88.014c-1.343.192-2.217-3.879-2.403-5.427-.167-1.357.058-5.556.039-5.85-.02-.294-6.169 2.79-9.26 1.344-3.09-1.446-4.793-4.678-4.626-6.035.167-1.357 4.723-4.154 8.225-3.789 3.502.365 7.518 5.498 7.518 5.498a16.4 16.4 0 0 1-1.221-2.298c.083-.147 2.184 1.095 2.352 2.752 0 0-.135-2.067.045-2.08.179-.013 1.651 1.978 1.053 3.2 0 0 1.742 2.055 1.632 3.994-.109 1.939-1.773 8.467-3.354 8.69z" fill="#101828"/>
    <path d="M244.668 77.05a11.049 11.049 0 0 0 2.885 1.562 7.36 7.36 0 0 0 3.579 0 11.255 11.255 0 0 0 3.342-1.325c.912-.537 1.754-1.229 2.711-1.683.238-.115.444.23.276.41a11.751 11.751 0 0 1-6.547 3.392 6.746 6.746 0 0 1-6.259-2.323s0-.045.013-.032zM248.248 89.396a3.448 3.448 0 0 1-2.084-1.6 3.425 3.425 0 0 1-.345-2.599 3.436 3.436 0 0 1 2.662-2.47 3.449 3.449 0 0 1 3.399 1.294 3.419 3.419 0 0 1-.958 4.993 3.45 3.45 0 0 1-1.826.497c-.287 0-.572-.04-.848-.115zm-1.986-4.084a2.96 2.96 0 0 0 1.059 3.127 2.987 2.987 0 0 0 4.491-1.034 2.956 2.956 0 0 0-.426-3.272 2.98 2.98 0 0 0-2.207-1.016 2.997 2.997 0 0 0-1.835.602 2.977 2.977 0 0 0-1.082 1.593zM241.05 88.436c-1.4-.185-2.339-1.856-2.094-3.73a4.03 4.03 0 0 1 1.034-2.28 2.139 2.139 0 0 1 1.953-.787 2.146 2.146 0 0 1 1.684 1.261c.392.761.533 1.625.405 2.47-.231 1.774-1.439 3.098-2.757 3.08l-.225-.014zm-.726-5.696a3.615 3.615 0 0 0-.912 2.03c-.212 1.618.546 3.058 1.696 3.2 1.15.14 2.256-1.05 2.474-2.676a3.644 3.644 0 0 0-.36-2.189 1.825 1.825 0 0 0-1.343-1.024h-.173a1.894 1.894 0 0 0-1.382.66z" fill="#101828"/>
    <path d="m245.883 85.62.34-.314c-.463-.499-1.581-1.235-2.532-.454l.29.352c.854-.717 1.837.358 1.902.416zM260.964 88.462l.437-.154c-.077-.204-.746-1.97-1.742-2.272-.996-.3-7.119-.499-7.383-.512v.461c1.774.064 6.548.275 7.261.493.714.218 1.253 1.498 1.427 1.984z" fill="#101828"/>
    <path d="M256.903 88.059s2.737-3.719 4.44-2.74c1.702.98-.418 6.4-2.455 7.124a2.06 2.06 0 0 1-2.731-1.165l.746-3.22z" fill="#EB9481"/>
    <path d="M260.7 86.861v.051c-1.426.544-2.204 1.837-2.756 3.2a1.128 1.128 0 0 1 1.274-.497c.158.044.304.122.429.229.038 0 0 .083-.039.07a1.289 1.289 0 0 0-1.401.41 6.895 6.895 0 0 0-.694 1.107c-.064.128-.295.051-.244-.09.026-1.881 1.484-4.339 3.431-4.48z" fill="#101828"/>
    <path d="M261.644 85.364a1.452 1.452 0 0 0-1.362-.192c-.064 0-.071.058 0 .038.271-.08.558-.08.829 0 .225.07.861.333.855 1.658a8.573 8.573 0 0 1-.855 3.008c0 .032.039.064.058.032.311-.59.56-1.21.745-1.85.18-.716.418-2.111-.27-2.694zM257.815 104.865c-.457.505-.861 1.036-1.343 1.516-.485.488-.996.949-1.53 1.383a18.694 18.694 0 0 1-3.341 2.176 6.736 6.736 0 0 1-4.08.909 3.613 3.613 0 0 1-1.744-.817 3.587 3.587 0 0 1-1.071-1.596c-.597-1.6-.192-3.303.2-4.979 0-.058-.078-.084-.097 0-.443 1.721-.777 3.136-.475 4.755a3.82 3.82 0 0 0 .744 1.738c.389.508.9.912 1.485 1.174 2.847 1.177 5.88-.864 7.987-2.611a20.521 20.521 0 0 0 1.755-1.645 14.514 14.514 0 0 0 1.606-1.92c.019-.077-.058-.128-.096-.083z" fill="#101828"/>
    <path d="M281.333 167.028H50.949v8.16h230.384v-8.16z" fill="#667085"/>
    <path d="M281.333 172.001H50.949v3.187h230.384v-3.187z" fill="#475467"/>
    <path d="M59.212 289.684h-3.309l9.639-114.496h8.45l-14.78 114.496z" fill="#667085"/>
    <path d="m73.992 175.188-.99 7.661H64.9l.643-7.661h8.45z" fill="#475467"/>
    <path d="M273.069 289.684h3.309l-9.638-114.496h-8.45l14.779 114.496z" fill="#667085"/>
    <path d="m258.29 175.188.99 7.661h8.102l-.642-7.661h-8.45zM193.341 167.021h35.591v-2.758l-35.591-1.146v3.904z" fill="#475467"/>
    <path d="M165.363 166.971h23.486c2.005 0-.9-5.683-8.212-7.859-7.313-2.176-17.574 5.728-15.274 7.859z" fill="#667085"/>
    <path d="M174.577 166.971a17.107 17.107 0 0 0-1.529-3.431 9.215 9.215 0 0 0-1.092-1.485 12.312 12.312 0 0 0-1.382-1.28 4.71 4.71 0 0 1 1.729.935c.51.43.945.943 1.285 1.517.343.569.605 1.183.777 1.824.18.623.252 1.272.212 1.92z" fill="#101828"/>
    <path d="M171.795 161.562c-1.233.8-2.467 1.517-3.624 2.343-.579.4-1.124.845-1.632 1.331a4.612 4.612 0 0 0-1.176 1.734 3.225 3.225 0 0 1 .803-2.06 7.673 7.673 0 0 1 1.633-1.524 12.402 12.402 0 0 1 1.927-1.1 10.386 10.386 0 0 1 2.069-.724z" fill="#101828"/>
    <path d="M148.515 155.969h57.079l-9.073-42.323h-57.085l9.079 42.323z" fill="#667085"/>
    <path d="M146.407 155.969h57.079l-9.079-42.323h-57.079l9.079 42.323z" fill="#475467"/>
    <path d="M177.193 140.794h1.336l-2.03-9.491h-1.337l2.031 9.491zM174.552 140.794h1.336l-2.03-9.491h-1.343l2.037 9.491zM171.911 140.794h1.336l-2.03-9.491h-1.343l2.037 9.491zM169.27 140.794h1.337l-2.031-9.491h-1.343l2.037 9.491zM166.622 140.794h1.343l-2.03-9.491h-1.343l2.03 9.491zM163.982 140.794h1.343l-2.037-9.491h-1.337l2.031 9.491zM161.341 140.794h1.343l-2.037-9.491h-1.336l2.03 9.491z" fill="#101828"/>
    <path d="M162.549 167.028h28.073v-2.176l-28.073-.903v3.079z" fill="#475467"/>
    <path d="M154.915 167.021h15.074l9.08-23.718h-15.075l-9.079 23.718z" fill="#475467"/>
    <path d="M152.435 167.021h15.074l9.073-23.718h-15.068l-9.079 23.718z" fill="#667085"/>
    <path d="M119.832 88.306s-4.05 32.562-10.8 39.891c-8.055 8.785-13.898 7.47-17.153 12.034-3.248-4.542-9.098-3.249-17.16-12.042-6.75-7.328-10.785-39.89-10.785-39.89 17.685-8.547 27.945-18.131 27.945-18.131.315.306 10.538 9.726 27.953 18.138z" fill="#517BBF"/>
    <path opacity=".2" d="M91.879 70.183v70.048c-3.248-4.542-9.098-3.249-17.16-12.042-6.75-7.328-10.785-39.89-10.785-39.89 17.685-8.547 27.945-18.131 27.945-18.131v.015z" fill="#163C7A"/>
    <path opacity=".1" d="M119.832 88.306s-4.05 32.563-10.8 39.891c-8.055 8.785-13.898 7.471-17.153 12.035V70.184c.315.29 10.538 9.71 27.953 18.122z" fill="#163C7A"/>
    <path d="M115.489 90.928s-3.458 27.513-9.113 33.698c-6.81 7.471-11.752 6.343-14.505 10.175-2.745-3.832-7.688-2.734-14.498-10.175-5.67-6.192-9.112-33.698-9.112-33.698 14.94-7.224 23.61-15.314 23.61-15.314s8.685 8.09 23.618 15.314z" fill="#163C7A"/>
    <path d="M98.959 101.304H84.79v12.804h14.168v-12.804z" fill="#fff"/>
    <path d="M97.542 105.249h-1.44v-5.715a4.206 4.206 0 0 0-1.3-2.864 4.24 4.24 0 0 0-5.854 0 4.206 4.206 0 0 0-1.299 2.864v5.715h-1.44v-5.715a5.637 5.637 0 0 1 1.73-3.86 5.682 5.682 0 0 1 7.872 0 5.637 5.637 0 0 1 1.73 3.86v5.715z" fill="#fff"/>
    <path d="m92.478 107.863.593 2.802h-2.52l.592-2.802a1.255 1.255 0 0 1-.543-1.41 1.264 1.264 0 0 1 2.422 0 1.251 1.251 0 0 1-.544 1.41z" fill="#475467"/>
    <path d="M100.131 136.746h-59v8.909h59v-8.909z" fill="#fff"/>
    <path d="M100.446 145.975H40.81v-9.549h59.636v9.549zm-58.994-.64h58.351v-8.269h-58.35v8.269z" fill="#E4E7EC"/>
    <path d="M39.556 146.96c3.194 0 5.784-2.578 5.784-5.76 0-3.181-2.59-5.76-5.784-5.76-3.193 0-5.783 2.579-5.783 5.76 0 3.182 2.59 5.76 5.783 5.76z" fill="#475467"/>
    <path d="M42.422 139.741H36.69v5.184h5.732v-5.184z" fill="#fff"/>
    <path d="M41.85 141.341h-.584v-2.31c0-.452-.18-.885-.5-1.204a1.714 1.714 0 0 0-2.418 0c-.32.319-.5.752-.5 1.204v2.31h-.585v-2.31c0-.606.241-1.187.672-1.616a2.3 2.3 0 0 1 3.244 0c.43.429.672 1.01.672 1.616v2.31z" fill="#fff"/>
    <path d="m39.8 142.397.238 1.14h-1.021l.244-1.14a.495.495 0 0 1-.244-.428.51.51 0 0 1 .51-.455.515.515 0 0 1 .511.455.509.509 0 0 1-.237.428zM51.36 139.306h-.642v4.076h.642v-4.076z" fill="#475467"/>
    <path d="M53.082 141.021H48.99v.64h4.093v-.64z" fill="#475467"/>
    <path d="m52.257 139.674-2.895 2.883.455.452 2.894-2.883-.454-.452z" fill="#475467"/>
    <path d="m49.822 139.673-.455.453 2.895 2.883.454-.453-2.895-2.883zM58.307 139.306h-.643v4.076h.643v-4.076z" fill="#475467"/>
    <path d="M60.035 141.021H55.94v.64h4.093v-.64z" fill="#475467"/>
    <path d="m59.21 139.673-2.895 2.883.455.452 2.894-2.883-.454-.452z" fill="#475467"/>
    <path d="m56.77 139.677-.455.453 2.895 2.883.454-.453-2.894-2.883zM65.259 139.306h-.643v4.076h.643v-4.076z" fill="#475467"/>
    <path d="M66.98 141.021h-4.092v.64h4.093v-.64z" fill="#475467"/>
    <path d="m66.152 139.677-2.894 2.883.454.452 2.894-2.883-.454-.452z" fill="#475467"/>
    <path d="m63.717 139.676-.454.453 2.894 2.883.454-.453-2.894-2.883zM72.212 139.306h-.643v4.076h.643v-4.076z" fill="#475467"/>
    <path d="M73.934 141.021H69.84v.64h4.093v-.64z" fill="#475467"/>
    <path d="m73.105 139.676-2.894 2.883.454.452 2.895-2.883-.455-.452z" fill="#475467"/>
    <path d="m70.67 139.676-.454.453 2.894 2.883.454-.453-2.894-2.883zM79.157 139.306h-.642v4.076h.642v-4.076z" fill="#475467"/>
    <path d="M80.886 141.021h-4.093v.64h4.093v-.64z" fill="#475467"/>
    <path d="m80.058 139.676-2.894 2.883.454.452 2.895-2.883-.455-.452z" fill="#475467"/>
    <path d="m77.618 139.68-.454.453 2.894 2.883.455-.453-2.895-2.883zM86.11 139.306h-.642v4.076h.642v-4.076z" fill="#475467"/>
    <path d="M87.832 141.021H83.74v.64h4.093v-.64z" fill="#475467"/>
    <path d="m87.007 139.673-2.895 2.883.455.452 2.894-2.883-.454-.452z" fill="#475467"/>
    <path d="m84.572 139.673-.455.453 2.894 2.883.455-.453-2.894-2.883z" fill="#475467"/>
    <path d="M62.4 239.803s-14.246-3.2-22.053-10.381-12.163-20-12.163-20a123.075 123.075 0 0 1 15.974 4.198c1.285 1.357 3.7 4.154 4.832 6.803.132-1.618.145-3.243.038-4.864a21.866 21.866 0 0 1 5.07 3.066c6.47 5.626 8.302 21.178 8.302 21.178z" fill="#46A2C6"/>
    <path d="M37.077 215.661c-1.928-1.344-3.92-2.63-5.854-3.98a.118.118 0 0 1-.034-.068.114.114 0 0 1 .074-.122.115.115 0 0 1 .076-.002 174.53 174.53 0 0 1 10.788 6.963c1.221.851 2.423 1.741 3.605 2.643l-.244-.422c-.43-.711-.88-1.408-1.33-2.106a29.908 29.908 0 0 0-3.027-4.026c-.038-.044 0-.108.07-.064 1.112 1.28 2.218 2.56 3.214 3.885.482.64.925 1.28 1.35 1.991.224.352.436.71.642 1.068l.212.365a82.15 82.15 0 0 1 5.346 4.531 62.346 62.346 0 0 1 3.058 3.047c-.546-1.715-1.028-3.45-1.67-5.12 0-.058.077-.077.096 0 .643 1.773 1.285 3.552 1.78 5.376a53.045 53.045 0 0 1 3.116 3.654c0-.077 0-.153-.051-.23-.16-.64-.328-1.338-.508-1.997a62.313 62.313 0 0 0-1.163-3.84 22.018 22.018 0 0 0-3.855-7.194c-.039-.051 0-.115.07-.07 2.783 3.283 4.415 7.219 5.456 11.347.148.608.296 1.21.43 1.818.078.32.161.64.219.979.43.582.848 1.165 1.285 1.766a61.371 61.371 0 0 1 6.027 11.776 134.9 134.9 0 0 1 4.569 14.17c0 .096-.116.128-.148.038-2.789-8.32-5.629-16.723-10.403-24.14a54.951 54.951 0 0 0-3.251-4.538 26.967 26.967 0 0 1-6.927-1.37 30.946 30.946 0 0 1-6.94-3.34 43.807 43.807 0 0 1-3.558-2.684.049.049 0 0 1-.009-.021.047.047 0 0 1 0-.022.042.042 0 0 1 .01-.02.048.048 0 0 1 .019-.014.057.057 0 0 1 .022-.005c.008 0 .016.002.022.006a28.296 28.296 0 0 0 6.546 3.931 35.912 35.912 0 0 0 7.184 2.4 40.1 40.1 0 0 0 3.213.544 61.317 61.317 0 0 0-4.196-4.653c-.482-.474-.977-.934-1.471-1.395a33.41 33.41 0 0 0-5.27-3.002c-2.332-1.126-4.626-2.317-6.939-3.488-1.285-.64-2.57-1.337-3.913-1.971-.052-.032 0-.109.051-.083 2.346 1.126 4.723 2.176 7.068 3.257 2.23 1.012 4.498 2.029 6.612 3.2l.27.16a107.796 107.796 0 0 0-5.97-4.806 243.782 243.782 0 0 0-5.77-4.122z" fill="#101828"/>
    <path d="M37.886 222.97c1.157.506 2.339.954 3.483 1.491 1.143.538 2.294 1.191 3.418 1.85.045.032 0 .096-.051.077-1.131-.544-2.281-1.05-3.406-1.613-1.124-.563-2.294-1.197-3.476-1.709-.052-.025-.026-.121.032-.096z" fill="#101828"/>
    <path d="M108.67 168.308a20.208 20.208 0 0 0-4.253 11.782c-.052 1.28.154 3.04.302 5.12-5.314 2.81-9.298 7.93-9.298 7.93 3.02-1.805 7.158-2.56 9.394-2.24a27.707 27.707 0 0 1-.546 4.236c-.983-.057-2.892.077-6.04 1.191a13.646 13.646 0 0 1 5.449 1.075c-2.538 8.051-10.088 16.314-30.927 19.84a43.408 43.408 0 0 1 3.689-29.222c6.245-12.244 32.23-19.712 32.23-19.712z" fill="#46A2C6"/>
    <path d="M65.535 251.648c.36-3.439.81-6.867 1.35-10.284a204.458 204.458 0 0 1 4.202-20.314 81.584 81.584 0 0 1 3.007-9.261 13.035 13.035 0 0 1-.07-1.664v-1.99c0-1.331.064-2.66.192-3.987a47.725 47.725 0 0 1 1.285-7.783c.38-1.478.823-2.931 1.285-4.397 0-.057.11-.032.09 0a58.11 58.11 0 0 0-1.535 7.77 73.49 73.49 0 0 0-.7 7.795c0 .711-.04 1.421-.04 2.138v.915a65.268 65.268 0 0 1 3.51-7.206 88.757 88.757 0 0 1 7.132-10.631 4.46 4.46 0 0 1 .173-1.158c.097-.467.2-.928.302-1.389.212-.947.45-1.92.713-2.829.514-1.881 1.202-3.699 1.793-5.555 0-.064.11-.032.09 0-.553 1.837-.919 3.744-1.336 5.613-.212.928-.412 1.856-.643 2.784-.103.461-.206.921-.302 1.389v.102a136.125 136.125 0 0 1 2.57-3.13c3.978-4.646 8.354-8.96 12.736-13.19.539-.525 1.092-1.037 1.638-1.555a.049.049 0 0 1 .033-.007.047.047 0 0 1 .03.014.046.046 0 0 1 .015.03.054.054 0 0 1-.007.033c-4.196 4.365-8.353 8.775-12.247 13.389a174.311 174.311 0 0 0-2.744 3.334c.475-.32.951-.64 1.42-.934a60.768 60.768 0 0 1 3.708-2.266 84.296 84.296 0 0 1 3.855-2.041c1.317-.647 2.77-1.197 4.055-1.92.057-.032.102.057.051.083a29.742 29.742 0 0 0-3.804 2.099c-1.285.749-2.57 1.504-3.785 2.291-1.214.788-2.454 1.536-3.669 2.324-1.015.64-2.01 1.369-3.065 1.977a98.573 98.573 0 0 0-6.676 9.677 71.149 71.149 0 0 0-3.45 6.522l.745-.32 1.928-.845c1.227-.544 2.46-1.075 3.688-1.607 2.339-1.011 4.71-1.92 7.004-3.052a31.697 31.697 0 0 0 3.74-2.068c.05-.038.096.045.05.084-4.272 2.931-9.066 4.998-13.795 7.084l-2.05.903c-.565.249-1.13.525-1.709.742a73.302 73.302 0 0 0-3.528 9.6 195.512 195.512 0 0 0-4.497 20.083c-1.196 6.778-2.005 13.607-2.629 20.48-.083.858-.16 1.709-.257 2.56a.268.268 0 0 1-.46.19.266.266 0 0 1-.08-.19c-.031-3.488.322-6.976.688-10.432z" fill="#101828"/>
    <path d="M78.213 194.324c.385-2.112.95-4.173 1.523-6.24 0-.064.103-.032.09 0-.527 2.029-.906 4.096-1.285 6.157-.38 2.06-.74 4.204-1.035 6.316 0 .032-.058.039-.058 0 .14-2.09.395-4.171.765-6.233zM87.196 200.046a36.828 36.828 0 0 1 4.536-2.56c.759-.391 1.53-.762 2.294-1.133.765-.371 1.62-.704 2.404-1.095a.05.05 0 0 1 .031.003c.01.004.02.011.025.02a.05.05 0 0 1 .007.031.055.055 0 0 1-.012.03c-.765.377-1.484.838-2.236 1.248-.752.409-1.536.844-2.314 1.28-1.522.812-3.02 1.715-4.62 2.38a.113.113 0 0 1-.09.011.116.116 0 0 1-.08-.145.115.115 0 0 1 .055-.07z" fill="#101828"/>
    <path opacity=".1" d="M62.143 215.226s-13.185-3.136-19.232-11.942c-5.783-8.41-7.653-22.746-7.8-24.007.237 1.152 2.962 13.684 11.932 19.52 6.869 4.474 13.506 8.148 15.1 16.429z" fill="#101828"/>
    <path d="M62.143 215.227s-13.186-3.136-19.232-11.943c-5.783-8.409-7.653-22.745-7.8-24.006a.54.54 0 0 1 0-.09s6.322 8.96 12.966 11.232c6.644 2.272 15.968 10.176 14.066 24.807z" fill="#46A2C6"/>
    <path d="M37.436 184.123a52.885 52.885 0 0 0 4.048 6.937 27.97 27.97 0 0 0 5.417 5.562c1.792 1.414 3.688 2.701 5.5 4.083l-.045-.064c-.34-.499-.7-.992-1.08-1.465-.751-.96-1.574-1.869-2.41-2.765-1.631-1.773-3.308-3.507-4.773-5.421a19.72 19.72 0 0 1-2.114-3.392c0-.058.064-.09.09 0 2.14 4.435 6.425 7.277 9.458 11.021.433.534.838 1.089 1.215 1.664.3.414.555.861.758 1.331a27.798 27.798 0 0 1 4.498 4.525 18.08 18.08 0 0 0-.527-2.56 12.801 12.801 0 0 0-1.401-3.322c0-.051.051-.109.084-.057a15.797 15.797 0 0 1 1.535 3.308c.283.915.452 1.861.501 2.816a25.882 25.882 0 0 1 1.78 2.759c-.057-.282-.109-.563-.167-.845a66.711 66.711 0 0 0-.886-3.898 23.366 23.366 0 0 0-3.162-7.36.049.049 0 0 1 .002-.031.05.05 0 0 1 .021-.025.053.053 0 0 1 .06.005 28.114 28.114 0 0 1 3.51 7.232c.423 1.28.757 2.599 1.053 3.923.148.64.276 1.28.398 1.92.065.333.142.679.193 1.024a46.769 46.769 0 0 1 3.04 8.896 129.611 129.611 0 0 1 2.814 16.602c.677 5.85.98 11.737.906 17.626 0 .736-.052 1.472-.097 2.214 0 .186-.295.218-.302 0-.128-2.912-.205-5.824-.379-8.736-.173-2.912-.43-5.818-.739-8.723a154.587 154.587 0 0 0-2.75-16.967c-1.066-4.8-2.454-9.632-5.089-13.836a26.095 26.095 0 0 0-4.755-5.632c-1.844-1.652-3.855-3.098-5.783-4.628a31.73 31.73 0 0 1-5.34-5.12 41.502 41.502 0 0 1-4.247-6.771c-.308-.595-.642-1.184-.944-1.779-.007-.051.077-.102.109-.051z" fill="#101828"/>
    <path d="M39.71 186.049a43.056 43.056 0 0 0 2.937 5.12c0 .038-.039.076-.064.038a35.627 35.627 0 0 1-2.97-5.12c-.025-.064.065-.096.097-.038z" fill="#101828"/>
    <path d="M110.508 209.422s.212 18.656-10.988 24.038c-11.2 5.383-17.208.903-24.816 2.707.296-.441 5.725-8.217 14.368-10.361 8.893-2.221 18.743-8.615 21.436-16.384z" fill="#46A2C6"/>
    <path opacity=".1" d="M110.508 209.422s.212 18.656-10.988 24.038c-11.2 5.383-17.208.903-24.816 2.707a42.534 42.534 0 0 1 12.736-3.737c7.074-.89 20.562-5.447 23.068-23.008z" fill="#000"/>
    <path d="M73.965 236.5a18.883 18.883 0 0 1 4.453-3.008c.244-.115.489-.204.733-.307a5.02 5.02 0 0 1 .379-.429c.332-.352.684-.685 1.054-.998a15.5 15.5 0 0 1 2.249-1.619c1.857-1.088 3.894-1.85 5.783-2.855a.054.054 0 0 1 .017-.005.039.039 0 0 1 .019.002.049.049 0 0 1 .016.008.046.046 0 0 1 .012.015.043.043 0 0 1 .005.017.05.05 0 0 1-.001.019.048.048 0 0 1-.023.028c-.939.486-1.844 1.017-2.757 1.548-.912.532-1.793 1.012-2.66 1.562-.78.497-1.52 1.051-2.217 1.658-.193.172-.386.358-.572.55a29.426 29.426 0 0 1 3.785-1.005c2.05-.409 4.119-.704 6.168-1.139a27.911 27.911 0 0 0 2.969-.8c.932-.742 1.857-1.485 2.737-2.291a22.119 22.119 0 0 0 2.898-3.2c.039-.051.122 0 .084.051a34.285 34.285 0 0 1-4.595 5.05c.482-.186.964-.378 1.433-.596a23.097 23.097 0 0 0 9.549-7.904c.038-.051.122 0 .083.045a26.167 26.167 0 0 1-7.71 7.386 23.286 23.286 0 0 1-4.884 2.297 44.474 44.474 0 0 1-6.06 1.428c-2.01.328-3.993.798-5.936 1.408a17.823 17.823 0 0 0-4.974 2.611 23.173 23.173 0 0 0-6.721 8.313c-2.12 4.231-3.13 8.96-3.695 13.639 0 .198-.334.198-.321 0 .527-7.879 2.635-16.032 8.7-21.479z" fill="#101828"/>
    <path d="M86.964 230.414a6.454 6.454 0 0 1 2.3-2.08 8.414 8.414 0 0 0 2.738-2.253c.038-.051.122 0 .083.051a9.249 9.249 0 0 1-2.416 2.157 8.384 8.384 0 0 0-2.634 2.169c-.032.045-.103 0-.07-.044z" fill="#101828"/>
    <path d="m81.021 250.267-.507 10.259-1.562 31.341H55.454l-1.562-31.341-.507-10.259H81.02z" fill="#98A2B3"/>
    <path d="m81.021 250.267-.507 10.259H53.892l-.507-10.259H81.02z" fill="#667085"/>
    <path d="M82.666 245.984H51.733v9.786h30.933v-9.786z" fill="#98A2B3"/>
</svg>
